<?xml version="1.0" standalone="no"?>
<!DOCTYPE svg PUBLIC "-//W3C//DTD SVG 1.1//EN" "http://www.w3.org/Graphics/SVG/1.1/DTD/svg11.dtd" >
<svg>
<metadata>
Created by FontForge 20090622 at Mon Jul 15 20:42:13 2019
 By deploy user
&#194;&#169; 1996, 2001 Adobe Systems Incorporated. All Rights Reserved.
</metadata>
<defs>
<font id="CronosPro-BoldCapt" horiz-adv-x="337" >
  <font-face 
    font-family="Cronos Pro Caption"
    font-weight="700"
    font-variant="small-caps"
    font-stretch="normal"
    units-per-em="1000"
    panose-1="2 12 7 2 3 5 3 2 3 4"
    ascent="780"
    descent="-220"
    x-height="448"
    cap-height="628"
    bbox="-179 -304.138 1167.68 885"
    underline-thickness="50"
    underline-position="-50"
    unicode-range="U+0020-U+FB06"
  />
<missing-glyph horiz-adv-x="500" 
d="M0 0v700h500v-700h-500zM250 395l170 255h-340zM280 350l170 -255v510zM80 50h340l-170 255zM50 605v-510l170 255z" />
    <glyph glyph-name="T_h" unicode="Th" horiz-adv-x="1045" 
d="M703 610v-210q65 53 135 53q66 0 106.5 -46.5t40.5 -127.5v-133q0 -86 3 -144q-92 -8 -122 -8q-24 0 -24 23v253q0 34 -19 54.5t-50 20.5q-42 0 -70 -24v-292q0 -15 -4.5 -21t-20.5 -8q-49 -6 -121 -6q3 93 3 179v351h-192v-400q0 -62 3 -122q-53 -8 -125 -8
q-25 0 -25 18v512h-184q-30 0 -19 34q16 45 38 72q23 -5 150 -5h352q0 13 -2 29q13 6 59.5 13.5t66.5 7.5q13 0 17 -11t4 -54z" />
    <glyph glyph-name="T_hbar" unicode="T&#x127;" horiz-adv-x="1049" 
d="M702 625h156q-19 -101 -59 -101h-97v-124q65 53 135 53q68 0 107.5 -44.5t39.5 -131.5v-131q0 -84 3 -144q-92 -8 -122 -8q-24 0 -24 23v263q0 30 -16.5 50.5t-42.5 20.5q-42 0 -80 -30v-292q0 -15 -4.5 -21t-20.5 -8q-49 -6 -121 -6q3 93 3 179v351h-192v-400
q0 -62 3 -122q-53 -8 -125 -8q-25 0 -25 18v512h-184q-30 0 -19 34q16 45 38 72q23 -5 150 -5h352q0 13 -2 29q13 6 59.5 13.5t66.5 7.5q21 0 21 -50z" />
    <glyph glyph-name="T_hcircumflex" unicode="T&#x125;" horiz-adv-x="1045" 
d="M703 610v-210q65 53 135 53q66 0 106.5 -46.5t40.5 -127.5v-133q0 -86 3 -144q-92 -8 -122 -8q-24 0 -24 23v253q0 34 -19 54.5t-50 20.5q-42 0 -70 -24v-292q0 -15 -4.5 -21t-20.5 -8q-49 -6 -121 -6q3 93 3 179v351h-192v-400q0 -62 3 -122q-53 -8 -125 -8
q-25 0 -25 18v512h-184q-30 0 -19 34q16 45 38 72q23 -5 150 -5h352q0 13 -2 29q13 6 59.5 13.5t66.5 7.5q13 0 17 -11t4 -54zM541 686h-1q-20 0 -39 13t-23 26q63 41 117 105q9 10 21 13q19 4 46 4q54 -66 124 -123q-7 -11 -24.5 -24.5t-32.5 -13.5q-17 0 -28 7
q-23 15 -69 56q-36 -33 -72 -55q-16 -8 -19 -8z" />
    <glyph glyph-name="Tbar_h" unicode="&#x166;h" horiz-adv-x="1049" 
d="M702 610v-210q65 53 135 53q67 0 107 -42t40 -122v-143q0 -84 3 -144q-92 -8 -122 -8q-24 0 -24 23v269q0 30 -16 48t-43 18q-43 0 -80 -31v-292q0 -15 -4.5 -21t-20.5 -8q-49 -6 -121 -6q3 93 3 179v351h-192v-168h108q-15 -81 -60 -81h-48v-151q0 -62 3 -122
q-53 -8 -125 -8q-25 0 -25 18v263h-102q2 29 14.5 55t27.5 26h60v168h-184q-30 0 -19 34q16 45 38 72q23 -5 150 -5h352q0 13 -2 29q13 6 59.5 13.5t66.5 7.5q13 0 17 -11t4 -54z" />
    <glyph glyph-name="Tcaron_h" unicode="&#x164;h" horiz-adv-x="1045" 
d="M703 610v-210q65 53 135 53q66 0 106.5 -46.5t40.5 -127.5v-133q0 -86 3 -144q-92 -8 -122 -8q-24 0 -24 23v253q0 34 -19 54.5t-50 20.5q-42 0 -70 -24v-292q0 -15 -4.5 -21t-20.5 -8q-49 -6 -121 -6q3 93 3 179v351h-192v-400q0 -62 3 -122q-53 -8 -125 -8
q-25 0 -25 18v512h-184q-30 0 -19 34q16 45 38 72q23 -5 150 -5h352q0 13 -2 29q13 6 59.5 13.5t66.5 7.5q13 0 17 -11t4 -54zM391 829h1q19 0 37.5 -12.5t23.5 -25.5q-65 -43 -115 -103q-8 -9 -22 -14q-19 -4 -47 -4q-52 65 -123 122q8 11 25 24t32 13q17 0 28 -7
q25 -16 69 -55q32 31 71 54q16 8 20 8z" />
    <glyph glyph-name="Tcommaaccent_h" unicode="&#x162;h" horiz-adv-x="1045" 
d="M703 610v-210q65 53 135 53q66 0 106.5 -46.5t40.5 -127.5v-133q0 -86 3 -144q-92 -8 -122 -8q-24 0 -24 23v253q0 34 -19 54.5t-50 20.5q-42 0 -70 -24v-292q0 -15 -4.5 -21t-20.5 -8q-49 -6 -121 -6q3 93 3 179v351h-192v-400q0 -62 3 -122q-53 -8 -125 -8
q-25 0 -25 18v512h-184q-30 0 -19 34q16 45 38 72q23 -5 150 -5h352q0 13 -2 29q13 6 59.5 13.5t66.5 7.5q13 0 17 -11t4 -54zM323 -43h1q23 0 34 -22t11 -50q0 -44 -22 -84t-58 -64q-40 -27 -114 -25q36 42 49.5 78t13.5 88q0 29 -11 51q54 28 96 28z" />
    <glyph glyph-name="f_f_j" unicode="ffj" horiz-adv-x="858" 
d="M655 136v219q-42 -3 -149 -3q0 -42 2 -184.5t2 -167.5q-49 -6 -133 -6q-14 0 -14 10q2 57 2.5 178.5t-0.5 169.5h-150q0 -42 2 -184.5t2 -167.5q-48 -6 -134 -6q-15 0 -15 10q2 55 2 348q-60 3 -60 43q21 24 60 47q2 106 89 173q63 47 162 47q31 0 67 -11t54 -25
q68 57 157 55q47 0 86 -15.5t47 -29.5q3 -30 -20 -55.5t-43 -16.5q-39 18 -74 18q-89 0 -89 -140q110 0 161 1q25 1 62.5 5t44.5 4q14 0 18 -10.5t4 -53.5l-1 -290q0 -169 -65 -247q-53 -62 -124 -62q-24 0 -42.5 17t-22.5 45l2 4q43 14 65 38.5t33.5 81t11.5 161.5z
M218 442h147q0 58 20 103q-34 24 -71 24q-102 0 -96 -127z" />
    <glyph glyph-name="f_j" unicode="fj" horiz-adv-x="557" 
d="M353 127v228q-36 -3 -138 -3q0 -42 2.5 -184.5t2.5 -167.5q-49 -6 -135 -6q-15 0 -15 10q2 55 2 348q-29 0 -44.5 11.5t-15.5 29.5q20 22 60 49q0 124 95 196q61 43 150 43q38 0 74.5 -13t52.5 -29q8 -24 -10 -54.5t-44 -23.5q-42 20 -82 20q-44 0 -69.5 -35.5
t-21.5 -103.5h150q32 0 67 4.5t40 4.5q14 0 18 -11t4 -55v-286q0 -170 -65 -248q-53 -62 -124 -62q-24 0 -42 17t-22 45l2 4q44 14 64.5 35.5t32 76.5t11.5 160z" />
    <glyph glyph-name="ff" unicode="ff" horiz-adv-x="592" 
d="M364 352h-149q0 -42 2.5 -184.5t2.5 -167.5q-49 -6 -135 -6q-15 0 -15 13q2 53 2 344q-29 0 -44.5 11.5t-15.5 30.5q19 19 60 49q4 109 88 173q64 47 159 47q72 0 119 -34q55 55 131 53q65 0 83 -26q2 -29 -17 -56.5t-41 -20.5q-14 4 -31 4q-25 0 -40.5 -39t-11.5 -101
q86 0 111 2q-10 -58 -34 -77q-18 -15 -83 -15q0 -42 2.5 -184.5t2.5 -167.5q-49 -6 -134 -6q-14 0 -14 15q2 54 2.5 175.5t-0.5 167.5zM218 442h146q1 67 23 112q-26 19 -68 19q-54 0 -78.5 -37.5t-22.5 -93.5z" />
    <glyph glyph-name="fi" unicode="fi" horiz-adv-x="557" 
d="M496 385v-361q0 -14 -7.5 -19.5t-27.5 -7.5q-33 -3 -111 -3q3 120 3 156v205q-36 -3 -138 -3q0 -42 2.5 -184.5t2.5 -167.5q-49 -6 -135 -6q-15 0 -15 10q2 55 2 348q-29 0 -44.5 11.5t-15.5 29.5q20 22 60 49q0 124 96 195q60 44 148 44q74 0 112 -38q6 -22 -9 -50
q-18 -33 -46 -28q-32 16 -71 16q-42 0 -65 -36t-19 -103h149q32 0 67 4.5t40 4.5q14 0 18 -11t4 -55z" />
    <glyph glyph-name="fl" unicode="fl" horiz-adv-x="557" 
d="M353 7v353q-34 -8 -138 -8q0 -44 2.5 -185.5t2.5 -164.5q-62 -8 -135 -8q-15 0 -15 12q2 53 2 344q-22 0 -41.5 12t-19.5 29q20 22 61 51q0 120 85 190q58 49 139 49q45 0 77 -15q49 15 100 15q13 0 17.5 -10.5t4.5 -51.5v-487q0 -85 5 -130q-38 -8 -133 -8q-14 0 -14 13
zM353 441v112q0 19 -4 22q-20 13 -50 13q-44 0 -65.5 -41t-16.5 -105h21.5t52.5 -0.5t62 -0.5z" />
    <glyph glyph-name="ffi" unicode="ffi" horiz-adv-x="858" 
d="M365 352h-150q0 -42 2 -184.5t2 -167.5q-48 -6 -134 -6q-15 0 -15 10q2 55 2 348q-60 3 -60 43q21 23 60 46q0 106 88 173q64 48 164 48q77 0 122 -33q62 54 163 52q45 0 82.5 -14.5t44.5 -28.5q3 -24 -20 -52.5t-42 -19.5q-31 16 -71 16q-95 0 -95 -141q110 0 161 2
q27 1 65.5 5t41.5 4q14 0 18 -10.5t4 -53.5v-364q0 -13 -7.5 -18.5t-27.5 -7.5q-29 -4 -111 -4q3 120 3 156v204q-56 -2 -149 -2q0 -42 2 -184.5t2 -167.5q-49 -6 -133 -6q-14 0 -14 10q2 57 2.5 178.5t-0.5 169.5zM218 441h147q1 72 21 111q-24 17 -68 17q-56 0 -79.5 -36
t-20.5 -92z" />
    <glyph glyph-name="ffl" unicode="ffl" horiz-adv-x="860" 
d="M365 352h-150q0 -42 2.5 -184.5t2.5 -167.5q-49 -6 -135 -6q-15 0 -15 10q2 55 2 343q-60 8 -60 43q28 32 60 48q0 107 85 174q63 50 168 50q74 0 119 -32q65 53 150 51q57 0 93 -18q55 18 89 18q14 0 18 -10.5t4 -54.5v-484q0 -84 5 -132q-29 -6 -134 -6q-14 0 -14 11
v355q-33 -8 -149 -8q0 -42 2.5 -184.5t2.5 -167.5q-49 -6 -134 -6q-14 0 -14 10q2 57 2.5 179.5t-0.5 168.5zM654 441v117q0 14 -6 18q-23 15 -56 15q-43 0 -65.5 -38.5t-20.5 -110.5h23.5t58 -0.5t66.5 -0.5zM218 442h147q1 68 20 111q-27 20 -69 20q-52 0 -76 -37t-22 -94
z" />
    <glyph glyph-name=".notdef" horiz-adv-x="500" 
d="M0 0v700h500v-700h-500zM250 395l170 255h-340zM280 350l170 -255v510zM80 50h340l-170 255zM50 605v-510l170 255z" />
    <glyph glyph-name=".null" horiz-adv-x="0" 
 />
    <glyph glyph-name="nonmarkingreturn" horiz-adv-x="333" 
 />
    <glyph glyph-name="space" unicode=" " horiz-adv-x="227" 
 />
    <glyph glyph-name="exclam" unicode="!" horiz-adv-x="242" 
d="M179 607h1q13 0 17.5 -5t4.5 -24q0 -43 -13.5 -163.5t-21.5 -164.5q-3 -18 -26 -25q-53 -11 -59 -11q-7 34 -21.5 179t-15.5 190q4 8 53.5 16t80.5 8zM123 152h1q34 0 56 -22.5t22 -57.5q0 -38 -23.5 -60.5t-62.5 -22.5q-32 0 -56.5 20.5t-24.5 59.5q0 36 23 59.5
t65 23.5z" />
    <glyph glyph-name="quotedbl" unicode="&#x22;" horiz-adv-x="376" 
d="M125 684h1q41 0 37 -65q-2 -36 -14 -81.5t-25 -74.5q-8 -9 -30 -18t-44 -10q-2 139 -20 225q48 24 95 24zM308 684h1q26 0 32.5 -16.5t4.5 -48.5q-2 -36 -14 -81.5t-25 -74.5q-8 -9 -30 -18t-43 -10q2 109 -20 225q46 24 94 24z" />
    <glyph glyph-name="numbersign" unicode="#" horiz-adv-x="507" 
d="M89 479h74l26 110q42 12 67 12q11 0 7 -16l-22 -106h79l25 110q33 12 67 12q6 0 6 -16l-22 -106h46q22 0 17 -24q-10 -48 -18 -67h-64l-23 -104h56q21 0 17 -22q-8 -47 -18 -69h-77l-27 -135q-4 -4 -25 -8.5t-36 -4.5q-17 0 -13 16l29 132h-80l-29 -133q-4 -15 -16 -15
q-4 0 -61 19l31 129l-55 1q-12 0 -15 4.5t-1 17.5q6 39 17 68h71l24 104h-58q-13 0 -17 4.5t-2 18.5q7 43 20 68zM302 388h-79l-24 -104h79z" />
    <glyph glyph-name="dollar" unicode="$" horiz-adv-x="507" 
d="M337 657l-12 -82q27 -2 62 -16t52 -32q-1 -21 -16.5 -44t-37.5 -22q-62 31 -106 31q-41 0 -58 -16t-17 -35q0 -23 23.5 -42.5t80.5 -50.5q47 -25 67 -37t45 -33.5t34 -45.5t9 -57q0 -75 -49.5 -117.5t-116.5 -52.5l-8 -75q-1 -16 -28 -19q-45 -5 -74 -4l10 93
q-71 6 -137 57q-7 32 11 60q16 31 45 12q23 -17 59.5 -29.5t71.5 -12.5q39 0 59 17.5t20 39.5q0 26 -22 43t-97 55q-74 39 -104.5 77t-30.5 93q0 73 50.5 114.5t105.5 46.5l8 54q3 20 21 24q30 6 80 6z" />
    <glyph glyph-name="percent" unicode="%" horiz-adv-x="728" 
d="M578 576l-366 -591q-8 -13 -15 -14.5t-14 3.5q-26 14 -37 37l371 600q5 10 21 4q14 -5 26 -17t14 -22zM188 602h1q71 0 106.5 -44t35.5 -121q0 -68 -37.5 -117t-105.5 -49q-69 0 -110 41t-41 123q0 38 13.5 74t49.5 64.5t88 28.5zM182 537h-1q-19 0 -31 -26t-12 -74
q0 -101 48 -101q21 0 32.5 27.5t11.5 69.5q0 104 -48 104zM547 319h1q71 0 107 -43.5t36 -121.5q0 -67 -38 -116.5t-106 -49.5q-70 0 -111 41t-41 124q0 62 38 114t114 52zM540 253h-1q-19 0 -31 -25.5t-12 -72.5q0 -102 49 -102q21 0 33 27t12 71q0 102 -50 102z" />
    <glyph glyph-name="ampersand" unicode="&#x26;" horiz-adv-x="690" 
d="M663 12l-1 -4q-52 -19 -131 -19q-29 0 -50 19q-20 20 -56 50q-77 -70 -177 -70q-98 0 -152 47.5t-54 128.5q0 32 10.5 57t35 46t35.5 28.5t40 24.5q-59 57 -59 136q0 65 48.5 111.5t126.5 46.5q74 0 121.5 -36.5t47.5 -105.5q0 -28 -10.5 -52t-31.5 -43t-36.5 -29.5
t-42.5 -25.5l43 -37.5l46.5 -40.5t26.5 -22q40 94 75 157q16 33 45 33q57 0 94 -25v-5q-60 -76 -149 -231l81.5 -72.5l52 -47t21.5 -19.5zM222 470v-1q0 -48 52 -97q57 38 57 96q0 30 -15 49t-39 19t-39.5 -17.5t-15.5 -48.5zM287 91h1q45 0 75 26l-69 66.5t-81 81.5
q-10 -6 -21.5 -26t-11.5 -50q0 -42 30 -70t77 -28z" />
    <glyph glyph-name="quotesingle" unicode="'" horiz-adv-x="192" 
d="M125 684h1q41 0 37 -65q-5 -80 -39 -160q-8 -8 -30 -15.5t-44 -8.5q0 128 -20 225q48 24 95 24z" />
    <glyph glyph-name="parenleft" unicode="(" horiz-adv-x="370" 
d="M61 245v1q0 146 57 263.5t157 190.5q17 -6 32.5 -33t13.5 -45q-68 -68 -106.5 -164.5t-38.5 -200.5q0 -106 39 -204.5t106 -158.5q-2 -31 -24.5 -56t-35.5 -22q-94 51 -147 175.5t-53 253.5z" />
    <glyph glyph-name="parenright" unicode=")" horiz-adv-x="370" 
d="M311 272v-1q0 -144 -55.5 -262.5t-155.5 -192.5q-17 6 -34 31.5t-15 45.5q68 67 106.5 164.5t38.5 201.5q0 107 -39 205.5t-106 157.5q2 31 23 56t34 22q92 -47 147.5 -174.5t55.5 -253.5z" />
    <glyph glyph-name="asterisk" unicode="*" horiz-adv-x="385" 
d="M179 529l-10 132q29 10 63 4q16 -2 23.5 -9t3.5 -17l-39 -110l98 78q30 -27 35 -65q5 -28 -17 -32l-100 -19l100 -43q26 -11 16 -38q-7 -16 -22.5 -31.5t-28.5 -22.5l-91 99l14 -127q-27 -9 -74 -1q-28 4 -16 37l37 95l-101 -81q-13 6 -24 26t-15 39q-4 20 9 26l111 27
l-95 41q-27 12 -16 36q16 31 54 55z" />
    <glyph glyph-name="plus" unicode="+" horiz-adv-x="608" 
d="M252 213h-188q1 55 8.5 75.5t26.5 20.5h153v93q0 59 -3 87l79 6q18 1 22.5 -6t4.5 -32v-148h188q1 -55 -6.5 -75.5t-29.5 -20.5h-152v-178q0 -29 -58 -31l-45 -2v211z" />
    <glyph glyph-name="comma" unicode="," horiz-adv-x="241" 
d="M152 172h1q22 0 33 -22t11 -49q0 -50 -30.5 -101.5t-72.5 -81.5q-41 -29 -115 -27q78 94 78 204q0 23 -7 49q65 28 102 28z" />
    <glyph glyph-name="hyphen" unicode="-" horiz-adv-x="332" 
d="M294 326l3 -5q-4 -34 -20 -69.5t-34 -38.5q-36 -16 -104.5 -31t-99.5 -14l-4 7q3 35 17 66.5t24 33.5q165 36 218 51z" />
    <glyph glyph-name="period" unicode="." horiz-adv-x="241" 
d="M124 158h1q35 0 56.5 -24t21.5 -59q0 -39 -23.5 -62.5t-62.5 -23.5q-31 0 -55 20.5t-24 60.5q0 38 22 63t64 25z" />
    <glyph glyph-name="slash" unicode="/" horiz-adv-x="411" 
d="M366 640l-201 -699q-6 -20 -16 -26t-35 -7l-70 -3l207 706q4 15 11 20.5t25 6.5z" />
    <glyph glyph-name="zero" unicode="0" horiz-adv-x="507" 
d="M264 602h1q53 0 93 -22t62 -53.5t35.5 -75t17.5 -78t4 -70.5q0 -153 -59.5 -234t-167.5 -81q-95 0 -157 71t-62 231q0 60 12.5 113t39 99t73 73t108.5 27zM256 512h-1q-25 0 -42 -22t-24 -58.5t-10 -67.5t-3 -65q0 -81 13 -133t30 -70t38 -18q76 0 76 225q0 209 -77 209z
" />
    <glyph glyph-name="one" unicode="1" horiz-adv-x="507" 
d="M358 602l6 -4q0 -32 1.5 -282t1.5 -292q0 -14 -6 -19t-22 -7q-53 -4 -121 -4q2 106 2 471q-95 -24 -130 -27l-3 5l26 78q144 38 245 81z" />
    <glyph glyph-name="two" unicode="2" horiz-adv-x="507" 
d="M44 19l18 46q111 115 160.5 194t49.5 145q0 39 -20 64t-65 25q-44 0 -100 -40q-31 -22 -48 19q-6 14 -6 37q79 93 205 93q80 0 129 -48t49 -128q0 -69 -44 -143q-43 -69 -157 -182q31 -5 252 0q-6 -30 -24.5 -58t-32.5 -33q-20 -13 -98 -13q-208 0 -261 10z" />
    <glyph glyph-name="three" unicode="3" horiz-adv-x="507" 
d="M44 88l4 4q67 -25 129 -25q66 0 99.5 27.5t33.5 74.5q0 81 -120 81q-12 0 -31.5 -2.5t-23.5 -2.5l-6 5q2 19 10.5 43.5t18.5 35.5q62 16 90 39t28 62q0 33 -19.5 51t-52.5 18q-45 0 -99 -36q-30 -21 -44 9q-11 22 -7 46q27 35 79.5 59.5t107.5 24.5q43 0 76.5 -11
t52.5 -27t31 -36.5t16 -37t4 -30.5q0 -44 -26 -74.5t-81 -55.5q74 -12 112 -53t38 -100q0 -97 -74.5 -152t-191.5 -55q-84 0 -124 32q-15 12 -23.5 36t-6.5 50z" />
    <glyph glyph-name="four" unicode="4" horiz-adv-x="507" 
d="M423 621l1 -5l-91.5 -113.5t-85.5 -117.5t-93 -145q58 -7 120 -6l4 112q16 11 61 23.5t72 14.5l4 -4v-147q11 0 73 5l2 -3q-12 -62 -29 -84q-14 -7 -46 -12v-115q0 -18 -33 -23q-41 -7 -116 -7q7 94 7 144q-136 0 -216 14q-8 5 -23.5 30t-15.5 38q35 67 123 191t128 168
q53 28 154 42z" />
    <glyph glyph-name="five" unicode="5" horiz-adv-x="507" 
d="M65 269l-16 23q14 76 37.5 172.5t32.5 114.5q33 -2 157.5 7t144.5 16l2 -4q-13 -75 -46 -99q-30 -22 -183 -30q-12 -37 -24 -99q88 -10 149 -27q75 -23 108.5 -61t33.5 -105q0 -94 -78.5 -150.5t-187.5 -56.5q-79 0 -109 23q-31 26 -31 82l5 5q51 -16 105 -16
q63 0 106 25.5t43 74.5q0 54 -67 76q-65 19 -182 29z" />
    <glyph glyph-name="six" unicode="6" horiz-adv-x="507" 
d="M468 555l-2 -3q-147 -19 -220 -101q-67 -79 -67 -206q0 -82 27 -124.5t64 -42.5q33 0 50.5 27t17.5 64q0 57 -27.5 81.5t-59.5 24.5q-31 0 -51 -8q0 17 7.5 41t17.5 32q34 28 95 28q78 0 117.5 -50.5t39.5 -119.5q0 -99 -62.5 -154.5t-157.5 -55.5q-100 0 -163 65
t-63 187q0 153 100 261q56 60 127 89.5t134 29.5q54 0 76 -65z" />
    <glyph glyph-name="seven" unicode="7" horiz-adv-x="507" 
d="M468 590l4 -5q1 -93 -89 -294.5t-142 -260.5q-23 -28 -71 -36q-47 -7 -89 -5l-1 5q71 86 140 218.5t109 265.5q-3 0 -76.5 -1t-138.5 -1q-35 0 -52.5 5t-20.5 11.5t-2 17.5q1 17 19 45t37 43q14 -8 88 -8h285z" />
    <glyph glyph-name="eight" unicode="8" horiz-adv-x="507" 
d="M260 602h1q83 0 135.5 -41.5t52.5 -111.5q0 -46 -23.5 -75t-69.5 -53q63 -31 89.5 -66t26.5 -92q0 -79 -62.5 -127t-159.5 -48q-113 0 -163.5 48.5t-50.5 112.5q0 50 29 81.5t81 57.5q-87 50 -87 143q0 70 52.5 120.5t148.5 50.5zM257 519h-1q-30 0 -50 -18t-20 -46
q0 -29 22.5 -51t79.5 -46q42 31 42 84q0 33 -18.5 55t-54.5 22zM255 71h1q31 0 52.5 19.5t21.5 51.5q0 29 -26 54t-85 52q-51 -35 -51 -92q0 -35 25 -60t62 -25z" />
    <glyph glyph-name="nine" unicode="9" horiz-adv-x="507" 
d="M58 44l2 3q124 19 189 83q77 75 77 227q0 71 -20.5 113t-61.5 42q-34 0 -54 -29.5t-20 -69.5q0 -53 27 -77.5t62 -24.5q23 0 41 7q1 -19 -8 -46t-21 -36q-24 -21 -79 -21q-71 0 -116.5 47t-45.5 129q0 87 61 149t163 62q106 0 163 -73.5t57 -181.5q0 -166 -112 -277
q-54 -52 -115 -76t-106 -24q-30 0 -47 11q-32 23 -36 63z" />
    <glyph glyph-name="colon" unicode=":" horiz-adv-x="241" 
d="M123 431h1q34 0 56 -24t22 -59q0 -40 -22.5 -63t-60.5 -23q-33 0 -57 21t-24 62q0 37 21.5 61.5t63.5 24.5zM125 158h1q34 0 55.5 -24t21.5 -59q0 -39 -23 -62.5t-62 -23.5q-32 0 -56 21.5t-24 61.5q0 37 22.5 61.5t64.5 24.5z" />
    <glyph glyph-name="semicolon" unicode=";" horiz-adv-x="241" 
d="M124 431h1q34 0 55.5 -24t21.5 -59q0 -40 -22.5 -63t-60.5 -23q-33 0 -57 21t-24 61q0 37 22 62t64 25zM152 172h1q22 0 33 -22t11 -49q0 -49 -30.5 -101t-72.5 -82q-41 -29 -115 -27q78 94 78 204q0 23 -7 49q60 28 102 28z" />
    <glyph glyph-name="less" unicode="&#x3c;" horiz-adv-x="608" 
d="M517 380l-313 -147v-3l313 -148q0 -11 -5 -39t-10 -40q-7 -16 -26 -6l-368 184q-16 6 -16 26q0 43 12 67l372 191q20 11 30 -11q11 -29 11 -74z" />
    <glyph glyph-name="equal" unicode="=" horiz-adv-x="608" 
d="M509 313h-443q1 54 8 75t25 21h444q-1 -49 -8 -72.5t-26 -23.5zM509 105h-443q1 54 8 75t25 21h444q-1 -49 -8 -72.5t-26 -23.5z" />
    <glyph glyph-name="greater" unicode="&#x3e;" horiz-adv-x="608" 
d="M92 82l313 146v3l-313 148q0 12 5 40t10 39q7 16 26 6l368 -183q16 -8 16 -26q0 -42 -12 -68l-372 -190q-20 -11 -30 11q-11 29 -11 74z" />
    <glyph glyph-name="question" unicode="?" horiz-adv-x="380" 
d="M198 607h1q66 0 106 -33.5t40 -95.5q0 -63 -61 -125q-64 -66 -64 -101q0 -24 11 -46q-10 -12 -44 -12q-33 0 -54.5 23t-21.5 64q0 51 52 103q43 45 43 76q0 22 -15.5 32t-35.5 10q-37 0 -81 -26h-7q-17 8 -23.5 30t-3.5 43q59 58 158 58zM189 152h1q34 0 56 -22.5
t22 -57.5q0 -38 -23.5 -60.5t-63.5 -22.5q-32 0 -56.5 21t-24.5 59q0 36 23 59.5t66 23.5z" />
    <glyph glyph-name="at" unicode="@" horiz-adv-x="820" 
d="M565 -29l3 -2q14 -14 10.5 -44t-23.5 -44q-59 -45 -180 -45q-150 0 -242 87.5t-92 242.5q0 183 117 298.5t306 115.5q140 0 230.5 -82t90.5 -212q0 -114 -70 -189t-177 -75q-101 0 -82 97q-55 -98 -154 -98q-40 0 -65 32.5t-25 95.5q0 112 70.5 187.5t182.5 75.5
q28 0 52.5 -3.5t53.5 -10t37 -7.5q-9 -28 -26 -116.5t-21 -131.5q-3 -36 26 -36q35 0 69 47.5t34 132.5q0 96 -64 156t-164 60q-140 0 -228 -95t-88 -225q0 -122 70.5 -192t188.5 -70q80 0 160 50zM360 111h1q19 0 47 27.5t51 79.5q19 46 30 109q-15 6 -37 6
q-52 0 -85.5 -50.5t-33.5 -116.5q0 -55 27 -55z" />
    <glyph glyph-name="A" unicode="A" horiz-adv-x="646" 
d="M421 153h-211q-17 -41 -54 -143q-7 -16 -32 -16q-63 0 -111 13v4l240 587l-6 17q65 13 126 13q16 0 24 -19q44 -106 150 -383q61 -158 87 -216v-4q-39 -12 -132 -12q-14 0 -22 6.5t-15 26.5q-7 22 -21.5 62.5zM242 254h149l-46 131.5t-29 82.5z" />
    <glyph glyph-name="B" unicode="B" horiz-adv-x="574" 
d="M74 6v480q0 82 -3 125q24 6 90.5 12.5t110.5 6.5q227 0 227 -158q0 -43 -26 -78t-63 -52q63 -18 94.5 -57.5t31.5 -90.5q0 -99 -76 -151.5t-204 -52.5q-84 0 -182 16zM217 537v-177q34 6 100 6q44 20 44 84q0 44 -26 67.5t-69 23.5q-31 0 -49 -4zM217 275v-192
q15 -4 44 -4q53 0 85 27.5t32 79.5q0 43 -31 67t-89 24q-26 0 -41 -2z" />
    <glyph glyph-name="C" unicode="C" horiz-adv-x="601" 
d="M566 117l5 -2q-8 -64 -36 -95q-55 -35 -144 -35q-171 0 -264 86.5t-93 233.5q0 153 103 244t258 91q63 0 117.5 -16.5t68.5 -33.5q1 -36 -19 -59t-52 -14q-56 22 -116 22q-91 0 -147.5 -57t-56.5 -167q0 -97 62 -160.5t171 -63.5q62 0 143 26z" />
    <glyph glyph-name="D" unicode="D" horiz-adv-x="675" 
d="M73 8v490q0 62 -2 112q108 20 218 20q86 0 151 -20t102.5 -50.5t61 -73.5t31 -82t7.5 -82q0 -157 -102.5 -244.5t-262.5 -87.5q-111 0 -204 18zM220 533v-443q30 -6 66 -6q23 0 46.5 4.5t52.5 19.5t50 39t36 68.5t15 103.5q0 107 -56.5 162t-155.5 55q-24 0 -54 -3z" />
    <glyph glyph-name="E" unicode="E" horiz-adv-x="495" 
d="M73 24v461q0 81 -3 126q59 12 134 14h241q-8 -63 -34 -94q-17 -7 -102 -7h-89v-152h214q-8 -61 -24 -81t-45 -20h-145v-171q40 -5 79 -5q120 0 173 3l2 -2q-15 -69 -59 -97q-25 -5 -143 -5q-135 0 -183 10z" />
    <glyph glyph-name="F" unicode="F" horiz-adv-x="477" 
d="M73 14v490q0 43 -3 106q42 11 143 15h255q-12 -65 -44 -95q-14 -6 -82 -6h-122v-172h224q-9 -65 -26 -83t-52 -18h-146q0 -138 3 -249q-29 -8 -125 -8q-14 0 -19.5 4t-5.5 16z" />
    <glyph glyph-name="G" unicode="G" horiz-adv-x="653" 
d="M456 86v135q0 19 -2 45t-2 30q117 15 126 15q14 0 19.5 -6t5.5 -21v-221q-37 -32 -87 -56q-64 -22 -137 -22q-52 0 -99 9.5t-93 33t-79 59.5t-53.5 92.5t-20.5 128.5q0 152 103.5 242t255.5 90q72 0 128.5 -18t81.5 -40q0 -41 -24 -61.5t-55 -11.5q-64 26 -133 26
q-91 0 -146 -56.5t-55 -162.5q0 -112 61 -174.5t147 -62.5q37 0 58 7z" />
    <glyph glyph-name="H" unicode="H" horiz-adv-x="676" 
d="M220 377h235v220q0 16 6 21.5t21 5.5q14 1 123 4q-3 -57 -3 -180v-323q0 -63 3 -123q-37 -8 -125 -8q-14 0 -19.5 4t-5.5 17v263q-30 -3 -99 -3h-136v-249q0 -16 -7.5 -21t-27.5 -7q-63 -6 -115 -4q3 60 3 183v316q0 99 -3 127q51 8 127 8q15 0 19 -10.5t4 -44.5v-196z
" />
    <glyph glyph-name="I" unicode="I" horiz-adv-x="293" 
d="M73 14v479q0 99 -3 127q56 8 127 8q15 0 19 -10.5t4 -45.5v-447q0 -63 3 -123q-29 -8 -125 -8q-14 0 -19.5 4t-5.5 16z" />
    <glyph glyph-name="J" unicode="J" horiz-adv-x="293" 
d="M73 151v343q0 99 -3 126q85 8 127 8q15 0 19 -10.5t4 -43.5v-422q0 -94 -14 -143t-48 -85q-24 -25 -61.5 -40t-70.5 -15q-24 0 -43 20t-25 49l2 3q65 11 89 51t24 159z" />
    <glyph glyph-name="K" unicode="K" horiz-adv-x="606" 
d="M73 14v479q0 99 -3 127q56 8 127 8q15 0 19 -10.5t4 -44.5v-254q150 189 235 313q50 0 86 -7q31 -5 35 -17.5t-12 -33.5q-21 -31 -194 -246q33 -55 110.5 -160.5t121.5 -155.5v-5q-7 -5 -43 -10t-77 -5q-27 0 -45 9.5t-41 39.5q-39 51 -103.5 145t-72.5 114v-175
q0 -63 3 -123q-29 -8 -125 -8q-14 0 -19.5 4t-5.5 16z" />
    <glyph glyph-name="L" unicode="L" horiz-adv-x="463" 
d="M73 24v467q0 97 -3 129q67 8 127 8q15 0 19 -11.5t4 -49.5v-465q31 -7 79 -7q100 0 154 5l2 -2q-13 -69 -59 -99q-25 -5 -132 -5q-127 0 -175 10z" />
    <glyph glyph-name="M" unicode="M" horiz-adv-x="834" 
d="M566 599v13q11 7 56 11.5t72 4.5q16 0 21 -33l49 -365q23 -175 32 -227q-34 -9 -118 -9q-29 0 -31 27l-20 221l-20 222q-37 -131 -132 -420q-5 -17 -14 -24.5t-28 -11.5q-42 -8 -74 -8l-142 463q-14 -188 -45 -452q-2 -17 -18 -17q-93 0 -109 9l89 594l-2 15
q77 16 128 16q13 2 20 -6.5t17 -39.5l127 -362q121 327 142 379z" />
    <glyph glyph-name="N" unicode="N" horiz-adv-x="676" 
d="M73 592l-14 22v6q56 8 147 8q13 0 29 -18q69 -105 159 -260q79 -133 97 -171q-7 53 -7 139v279q0 16 5.5 21.5t17.5 5.5q45 4 100 4q-3 -65 -3 -184v-439q-10 -4 -51 -10.5t-63 -6.5q-19 0 -31 17q-19 28 -151 244q-26 42 -45 77t-41.5 81.5t-34.5 68.5q6 -76 6 -190
v-263q0 -14 -5 -18.5t-20 -6.5q-34 -6 -98 -4q3 60 3 182v416z" />
    <glyph glyph-name="O" unicode="O" horiz-adv-x="719" 
d="M365 640h1q145 0 232 -91t87 -231q0 -141 -87.5 -237t-240.5 -96q-83 0 -147 28t-101 75.5t-55.5 103t-18.5 116.5q0 145 88.5 238.5t241.5 93.5zM353 546h-1q-68 0 -114 -56.5t-46 -167.5q0 -114 50 -178.5t127 -64.5t119.5 61t42.5 168q0 100 -45.5 169t-132.5 69z" />
    <glyph glyph-name="P" unicode="P" horiz-adv-x="542" 
d="M73 12v470q0 89 -4 137q69 11 175 11q269 0 269 -206q0 -53 -21 -94.5t-52 -63.5t-60.5 -33.5t-54.5 -11.5q-37 0 -53 8q-14 6 -26.5 29.5t-13.5 51.5q10 -2 27 -2q42 0 72.5 26.5t30.5 88.5q0 58 -31.5 85.5t-79.5 27.5q-20 0 -31 -2v-414q0 -58 3 -118q-29 -8 -125 -8
q-14 0 -19.5 3.5t-5.5 14.5z" />
    <glyph glyph-name="Q" unicode="Q" horiz-adv-x="719" 
d="M365 640h1q146 0 232.5 -90t86.5 -232q0 -106 -48 -184.5t-131 -113.5q38 -15 106 -63q101 -72 159 -82q0 -3 -1 -5q-13 -32 -44.5 -47.5t-66.5 -15.5q-73 0 -213 110q-72 57 -140 69q-128 24 -199.5 104t-71.5 218q0 146 88.5 239t241.5 93zM353 546h-1q-68 0 -114 -57
t-46 -170t49.5 -176.5t127.5 -63.5t120 61t42 167q0 64 -17.5 116.5t-59 87.5t-101.5 35z" />
    <glyph glyph-name="R" unicode="R" horiz-adv-x="566" 
d="M216 249v-225q0 -14 -5.5 -19t-19.5 -7q-39 -4 -121 -4q3 60 3 183v335q0 73 -2 101q20 4 84 10.5t95 6.5q131 0 193 -45t62 -139q0 -95 -116 -156q22 -21 85 -133q61 -105 97 -149v-5q-13 -11 -94 -11q-33 0 -53.5 8.5t-39.5 32.5q-24 31 -90 162q-17 34 -31.5 44
t-33.5 10q-1 0 -7 0.5t-6 -0.5zM216 540v-205q17 -3 48 -1.5t42 6.5q9 5 19 13.5t21 30.5t11 49q0 53 -29 81t-77 28q-24 0 -35 -2z" />
    <glyph glyph-name="S" unicode="S" horiz-adv-x="470" 
d="M256 640h1q41 0 88.5 -15.5t68.5 -37.5q-1 -31 -19.5 -55.5t-49.5 -14.5q-49 21 -94 21q-36 0 -58 -15.5t-22 -42.5q0 -29 25.5 -51t100.5 -62q77 -40 109.5 -77.5t32.5 -105.5q0 -92 -69 -145.5t-166 -53.5q-90 0 -152 40q-28 18 -28 41q0 16 11 42.5t19 30.5
q79 -51 149 -51q42 0 67.5 17t25.5 51q0 29 -22 51t-92 57q-86 42 -116.5 89.5t-30.5 106.5q0 29 11 58t34.5 57.5t69 46.5t106.5 18z" />
    <glyph glyph-name="T" unicode="T" horiz-adv-x="570" 
d="M211 12v512h-175q-30 0 -19 34q16 45 38 72q23 -5 142 -5h368q-3 -45 -21.5 -70.5t-39.5 -30.5h-146v-400q0 -62 3 -122q-53 -8 -125 -8q-25 0 -25 18z" />
    <glyph glyph-name="U" unicode="U" horiz-adv-x="678" 
d="M215 568v-278q0 -61 11.5 -103t32.5 -61t42 -26.5t47 -7.5q66 0 99.5 44.5t33.5 163.5v300q0 14 5.5 19t17.5 5q40 4 108 4q-3 -60 -3 -182v-141q0 -80 -17 -139.5t-42.5 -93.5t-64 -54t-74 -26.5t-78.5 -6.5q-135 0 -200 73.5t-65 228.5v204q0 97 -3 129q56 8 127 8
q15 0 19 -11.5t4 -48.5z" />
    <glyph glyph-name="V" unicode="V" horiz-adv-x="631" 
d="M14 605q89 23 139 23q12 0 19.5 -12t19.5 -46q118 -332 140 -411q26 81 84.5 248l77.5 223q66 0 108 -14q21 -7 8 -47q-52 -136 -218 -533q-13 -30 -27 -36q-22 -12 -110 -12q-152 414 -241 617z" />
    <glyph glyph-name="W" unicode="W" horiz-adv-x="887" 
d="M494 628h1q16 0 27 -37q26 -84 104 -414l125 451q45 0 77 -3q26 -3 35 -13t2 -32q-71 -233 -187 -548q-10 -27 -24 -33q-24 -11 -105 -11q-75 313 -103 418q-8 -32 -46 -169t-57 -198q-10 -32 -30 -40q-33 -11 -98 -11q-17 55 -56 192.5t-73 244.5t-66 179
q16 7 59.5 15.5t65.5 8.5q17 0 26 -14t23 -60q46 -162 95 -366q5 21 21 79.5l40 145.5l42 155q-1 12 -6 37q63 23 108 23z" />
    <glyph glyph-name="X" unicode="X" horiz-adv-x="593" 
d="M24 603l1 3q88 22 139 22q18 0 35 -29l111 -174l122 186q12 17 27 17q14 0 50 -7t57 -15v-4l-194 -268l101 -155.5l76.5 -117.5t31.5 -51v-3q-11 -6 -52.5 -12.5t-87.5 -6.5q-21 0 -35 21q-65 105 -121 205l-75.5 -120.5t-52.5 -81.5q-11 -18 -29 -18q-85 0 -116 12l-1 6
l208 298q-145 227 -195 293z" />
    <glyph glyph-name="Y" unicode="Y" horiz-adv-x="581" 
d="M225 12v233q0 33 -9 48q-64 112 -198 312v3q73 20 128 20q16 0 25 -8t28 -41l115 -201q80 126 144 250q72 2 103 -11q12 -7 11.5 -16t-10.5 -28q-14 -24 -95 -146t-84 -127q-11 -21 -11 -43v-135q0 -40 1.5 -77t1.5 -43q-45 -8 -129 -8q-13 0 -17 3.5t-4 14.5z" />
    <glyph glyph-name="Z" unicode="Z" horiz-adv-x="541" 
d="M532 98l1 -2q-8 -35 -31 -64.5t-37 -34.5q-1 0 -18 -0.5t-54.5 -1.5t-89.5 -1q-175 0 -263 8q-14 14 -15 26q81 117 174.5 274.5t124.5 221.5h-232q-41 0 -52.5 12t-3.5 35q14 35 37 61q20 -7 65 -7h365q-4 -40 -18 -86q-9 -28 -89.5 -172.5l-152.5 -265.5
q22 -6 133.5 -6.5t155.5 3.5z" />
    <glyph glyph-name="bracketleft" unicode="[" horiz-adv-x="370" 
d="M101 212v1q0 276 9 445q3 3 81.5 10t119.5 7q10 -17 10 -66q0 -6 -3.5 -8.5t-17.5 -4.5q-43 -6 -69 -11q-11 -3 -13 -22q-5 -65 -7 -358q-1 -249 3 -276q3 -18 22 -21q5 -1 27.5 -4l36.5 -5q13 -2 12 -18q-1 -43 -10 -60q-41 0 -89 3.5t-78.5 7.5t-32.5 7q-3 26 -3 81.5
t1 149t1 142.5z" />
    <glyph glyph-name="backslash" unicode="\" horiz-adv-x="372" 
d="M151 640l177 -699q5 -20 1 -26t-20 -7l-84 -3l-172 705q-5 15 -2 21t18 7z" />
    <glyph glyph-name="bracketright" unicode="]" horiz-adv-x="370" 
d="M270 284v-1q0 -279 -9 -445q-3 -3 -81.5 -10t-119.5 -7q-10 17 -10 66q0 6 3.5 8.5t17.5 4.5q43 6 69 11q11 3 13 22q5 65 7 358q1 249 -3 276q-3 18 -22 21q-5 1 -27.5 4l-36.5 5q-13 2 -12 18q1 38 12 60q41 0 88.5 -3.5t77.5 -7.5t32 -7q3 -26 3 -81.5t-1 -149
t-1 -142.5z" />
    <glyph glyph-name="asciicircum" unicode="^" horiz-adv-x="608" 
d="M76 213l166 369q4 9 9 12t22 4q74 5 87 4l172 -389q-6 -4 -35 -10.5t-51 -6.5q-5 0 -9.5 1.5t-8 5l-5.5 5.5t-5 6l-2 5l-113 278l-118 -285q-7 -16 -20 -16t-46.5 6t-42.5 11z" />
    <glyph glyph-name="underscore" unicode="_" horiz-adv-x="500" 
d="M500 -75v-50h-500v50h500z" />
    <glyph glyph-name="grave" unicode="`" horiz-adv-x="400" 
d="M163 698q17 -1 42 -55.5t35 -100.5q6 -16 -8 -26q-17 -11 -42 -15q-55 80 -119 143q-11 9 4 22q40 33 88 32z" />
    <glyph glyph-name="a" unicode="a" horiz-adv-x="473" 
d="M454 92l1 -4q0 -100 -96 -100q-62 0 -89 52q-50 -52 -111 -52q-51 0 -91 36.5t-40 94.5q0 29 12 52t28 37.5t43 26.5t47.5 17.5t50.5 12.5l32.5 6.5l27.5 5.5v8q0 27 -19 45t-53 18q-33 0 -80 -21q-38 -13 -55 7t-17 56q89 63 189 63q71 0 121.5 -44.5t50.5 -126.5
q0 -17 -2.5 -75.5t-2.5 -94.5q0 -8 9.5 -15t24.5 -6q15 0 19 1zM161 137v-1q0 -21 15 -33.5t37 -12.5q27 0 45 17q9 11 9 38v55q-60 -5 -83 -23.5t-23 -39.5z" />
    <glyph glyph-name="b" unicode="b" horiz-adv-x="535" 
d="M205 609v-188q70 32 105 32q99 0 148 -61.5t49 -148.5q0 -116 -80 -185.5t-198 -69.5q-78 0 -139 25q-28 11 -28 30v506q0 63 -4 105q19 7 62.5 14t62.5 7q14 0 18 -11t4 -55zM205 341v-258q22 -5 39 -5q44 0 79.5 34.5t35.5 110.5q0 56 -28 91t-82 35q-28 0 -44 -8z" />
    <glyph glyph-name="c" unicode="c" horiz-adv-x="436" 
d="M417 112l3 -4q-1 -24 -11.5 -51t-25.5 -42q-45 -27 -119 -27q-108 0 -170.5 60.5t-62.5 159.5q0 108 71.5 176.5t180.5 68.5q52 0 89.5 -13t50.5 -27q-1 -33 -17 -55t-48 -17q-44 11 -69 11q-50 0 -82 -32.5t-32 -91.5q0 -65 38 -99.5t94 -34.5q65 0 110 18z" />
    <glyph glyph-name="d" unicode="d" horiz-adv-x="546" 
d="M338 445v102q0 72 -5 107q16 6 61.5 13.5t64.5 7.5q13 0 17 -11t4 -55v-488q0 -24 10 -33.5t31 -14.5v-5q-3 -28 -24.5 -54t-45.5 -26q-70 0 -96 51q-28 -21 -63.5 -36t-60.5 -15q-93 0 -146.5 61t-53.5 157q0 110 72 178.5t181 68.5q36 0 54 -8zM338 107v247
q-16 9 -48 9q-46 0 -78.5 -35t-32.5 -102q0 -62 31.5 -96.5t79.5 -34.5q28 0 48 12z" />
    <glyph glyph-name="e" unicode="e" horiz-adv-x="459" 
d="M415 118l3 -4q0 -35 -22.5 -69t-42.5 -42q-39 -15 -89 -15q-114 0 -174 58t-60 172q0 93 60 164t159 71q93 0 139 -53.5t46 -124.5q0 -23 -3 -34q-5 -22 -84 -43q-16 -5 -80.5 -6.5t-96.5 0.5q6 -52 42.5 -75t85.5 -23q66 0 117 24zM240 369h-1q-25 0 -46 -25t-22 -72
q45 -6 121 0q10 0 10 21q0 33 -15.5 54.5t-46.5 21.5z" />
    <glyph glyph-name="f" unicode="f" horiz-adv-x="301" 
d="M273 681h1q52 0 73 -25q4 -23 -10.5 -49.5t-35.5 -31.5q-11 4 -25 4q-32 0 -46.5 -31.5t-12.5 -105.5q90 0 115 2q-1 -23 -12 -47t-22 -31q-22 -15 -83 -15q0 -39 2.5 -181.5t2.5 -167.5q-66 -8 -132 -8q-7 0 -10 1t-5.5 5t-2.5 13q2 218 2 338q-60 5 -60 44q11 12 19 19
t21 15t20 13q0 126 72 191q50 48 129 48z" />
    <glyph glyph-name="g" unicode="g" horiz-adv-x="462" 
d="M227 453h1q40 0 82 -9q10 -2 29 -5.5l32.5 -6t23.5 -2.5q45 0 77 10q5 -10 5 -29q0 -57 -48 -66q-16 -2 -29 -2q8 -21 8 -47q0 -73 -51 -110.5t-132 -37.5q-20 0 -32 2q-12 -12 -12 -18q0 -22 38 -26q11 -1 118 -9q70 -4 102 -37.5t32 -82.5q0 -87 -74 -137.5t-176 -50.5
q-88 0 -147 37t-59 94q0 47 90 89q-24 10 -42.5 33.5t-19.5 55.5q0 8 12 14q51 32 70 53q-37 11 -64 43t-27 86q0 71 55 115t138 44zM226 376h-1q-28 0 -43.5 -22.5t-15.5 -52.5q0 -37 18 -57t46 -20q24 0 41 21t17 53q0 33 -15 55.5t-47 22.5zM141 -59v-1q0 -27 32 -43.5
t79 -16.5q42 0 69 14t27 40q0 38 -63 47q-38 6 -88 6q-25 0 -37 -8q-19 -13 -19 -38z" />
    <glyph glyph-name="h" unicode="h" horiz-adv-x="548" 
d="M205 609v-209q67 53 133 53q67 0 107.5 -46t40.5 -131v-130q0 -86 3 -144q-92 -8 -122 -8q-24 0 -24 23v250q0 35 -18 56.5t-50 21.5q-36 0 -70 -23v-293q0 -15 -4.5 -21t-20.5 -8q-49 -6 -121 -6q3 93 3 179v376q0 63 -4 105q13 6 59.5 13.5t66.5 7.5q13 0 17 -11t4 -55
z" />
    <glyph glyph-name="i" unicode="i" horiz-adv-x="265" 
d="M136 668h1q31 0 50.5 -20.5t19.5 -52.5t-21 -54.5t-52 -22.5q-30 0 -52 18t-22 55q0 38 24.5 57.5t51.5 19.5zM205 386v-362q0 -13 -7 -18.5t-28 -7.5q-29 -4 -111 -4q3 123 3 158v172q0 75 -4 111q50 13 126 13q13 0 17 -10.5t4 -51.5z" />
    <glyph glyph-name="j" unicode="j" horiz-adv-x="265" 
d="M136 668h1q31 0 50.5 -22t19.5 -54q0 -33 -21 -53.5t-53 -20.5q-29 0 -51 18t-22 55q0 38 24.5 57.5t51.5 19.5zM-49 -148l2 3q44 15 65 36.5t32.5 74.5t11.5 154v206q0 73 -4 109q50 13 126 13q13 0 17 -10.5t4 -52.5v-286q0 -170 -65 -248q-52 -62 -124 -62
q-24 0 -42.5 17t-22.5 46z" />
    <glyph glyph-name="k" unicode="k" horiz-adv-x="492" 
d="M205 609v-381l95 121.5t77 103.5q33 1 84 -8q42 -9 14 -46q-75 -96 -127 -156q22 -40 70 -111.5t86 -119.5l-2 -4q-32 -16 -101 -16q-28 0 -44 9t-36 37q-80 109 -116 179v-193q0 -15 -7 -19.5t-28 -6.5q-47 -5 -111 -4q3 62 3 184v371q0 69 -4 111q45 15 126 15
q13 0 17 -11t4 -55z" />
    <glyph glyph-name="l" unicode="l" horiz-adv-x="265" 
d="M62 5v546q0 63 -4 103q14 6 59.5 13.5t65.5 7.5q14 0 18 -10.5t4 -54.5v-478q0 -74 4 -132q-37 -8 -133 -8q-14 0 -14 13z" />
    <glyph glyph-name="m" unicode="m" horiz-adv-x="830" 
d="M210 317v-288q0 -15 -4.5 -21t-20.5 -8q-48 -6 -121 -6q3 93 3 180v164q0 36 -19 51v7q10 21 38 39t50 18q49 0 66 -64q81 64 146 64q81 0 122 -72q32 29 74.5 50.5t77.5 21.5q43 0 73.5 -16.5t46 -43.5t22 -54.5t6.5 -57.5v-129q0 -92 3 -150q-100 -8 -123 -8t-23 21
v251q0 34 -16.5 56.5t-51.5 22.5t-69 -30v-289q0 -14 -4.5 -19t-20.5 -7q-41 -6 -121 -6q3 93 3 180v92q0 35 -17.5 57t-47.5 22q-39 0 -72 -28z" />
    <glyph glyph-name="n" unicode="n" horiz-adv-x="553" 
d="M349 15v250q0 36 -18.5 58t-49.5 22q-34 0 -71 -25v-294q0 -13 -4 -18t-21 -7q-47 -7 -121 -7q3 93 3 180v160q0 40 -19 53v8q9 21 38 39.5t53 18.5q26 0 42 -19t21 -45q77 64 138 64q39 0 67.5 -13.5t44.5 -33t25.5 -47t12 -50t2.5 -46.5v-111q0 -98 4 -150
q-100 -8 -123 -8q-24 0 -24 21z" />
    <glyph glyph-name="o" unicode="o" horiz-adv-x="524" 
d="M267 453h1q103 0 164.5 -63.5t61.5 -162.5q0 -107 -65.5 -173t-171.5 -66q-97 0 -162 59t-65 169q0 104 67 170.5t170 66.5zM257 363h-1q-40 0 -59 -37.5t-19 -94.5q0 -74 25.5 -113.5t63.5 -39.5q79 0 79 137q0 37 -7 68t-28 55.5t-54 24.5z" />
    <glyph glyph-name="p" unicode="p" horiz-adv-x="551" 
d="M210 -1v-176q0 -15 -4.5 -20.5t-20.5 -7.5q-48 -6 -121 -6q3 66 3 157v390q0 44 -19 51v8q12 23 39 40.5t52 17.5q42 0 61 -55q85 55 135 55q83 0 132.5 -60t49.5 -150q0 -118 -72.5 -186.5t-171.5 -68.5q-37 0 -63 11zM210 324v-237q23 -7 42 -7q53 0 85 39t32 102
q0 52 -25.5 87t-67.5 35q-33 0 -66 -19z" />
    <glyph glyph-name="q" unicode="q" horiz-adv-x="536" 
d="M395 440l78 2h6q-5 -155 -5 -239v-376q0 -17 -13 -23.5t-59 -10.5q-47 -4 -73 -4q3 72 3 176v48q-3 -1 -17.5 -7t-22.5 -9t-21.5 -6t-24.5 -3q-99 0 -157.5 60t-58.5 159q0 108 76 177t186 69q58 0 103 -13zM333 98v260q-15 5 -39 5q-48 0 -82 -34t-34 -103
q0 -64 34.5 -98.5t86.5 -34.5q7 0 34 5z" />
    <glyph glyph-name="r" unicode="r" horiz-adv-x="382" 
d="M44 391v6q11 20 39.5 38t49.5 18q67 0 67 -107q45 107 126 107q33 0 54 -21q4 -15 -1.5 -44t-18.5 -48q-6 -14 -17.5 -23.5t-24.5 -8.5q-23 8 -45 8q-14 0 -30.5 -11.5t-25.5 -36.5q-7 -21 -7 -46v-195q0 -13 -4.5 -19t-20.5 -8q-41 -6 -121 -6q3 93 3 180v170
q0 30 -23 47z" />
    <glyph glyph-name="s" unicode="s" horiz-adv-x="378" 
d="M211 453h1q64 0 119 -36q0 -32 -14.5 -56t-44.5 -17q-37 13 -62 13q-18 0 -29.5 -7.5t-11.5 -20.5q0 -9 4.5 -15.5t10.5 -10.5t17 -10q10 -6 43 -21.5t38 -18.5q73 -40 73 -114q0 -72 -56 -111.5t-134 -39.5q-59 0 -102 24q-33 17 -33 45q0 37 25 66q62 -39 119 -39
q48 0 48 31q0 19 -31 36l-82 42q-70 38 -70 115q0 68 50 106.5t122 38.5z" />
    <glyph glyph-name="t" unicode="t" horiz-adv-x="365" 
d="M341 104l4 -2q10 -55 -19 -81q-39 -33 -119 -33q-75 0 -108 39.5t-33 98.5v224q-28 0 -44.5 11.5t-16.5 22.5q12 20 59 64.5t67 60.5q40 32 88 33q-7 -51 -7 -100h143q-6 -37 -16.5 -57.5t-19 -24.5t-21.5 -5q-17 -2 -89 -5q-6 -114 2 -200q7 -62 62 -62q36 0 68 16z" />
    <glyph glyph-name="u" unicode="u" horiz-adv-x="550" 
d="M62 161v163q0 73 -4 111q62 13 126 13q13 0 17 -10.5t4 -51.5v-209q0 -41 22 -59.5t51 -18.5q31 0 62 20v280q0 23 4 30t20 12q76 7 122 7q0 -2 -1.5 -65.5t-1.5 -115.5v-143q0 -25 9.5 -35.5t31.5 -15.5v-5q-1 -28 -24 -54t-45 -26q-42 0 -63.5 16t-33.5 46
q-31 -28 -74 -48q-33 -14 -63 -14q-81 0 -120 47t-39 126z" />
    <glyph glyph-name="v" unicode="v" horiz-adv-x="466" 
d="M133 453h1q22 0 29 -24q46 -137 87 -278l50.5 153t47.5 149q52 0 93 -18q28 -12 5 -69l-141 -345q-7 -17 -33 -23q-48 -10 -92 -10q-13 38 -118 319l-14.5 36l-18.5 45l-17 39q19 10 58 18t63 8z" />
    <glyph glyph-name="w" unicode="w" horiz-adv-x="699" 
d="M138 453h1q19 0 26 -27q26 -100 63 -275l73 240q-1 4 -3 15.5t-3 16.5q16 6 53.5 13t53.5 7q7 0 11 -1.5t6.5 -7t3.5 -8t4 -12.5q6 -25 33 -121.5t37 -137.5q65 238 79 298q71 -2 101 -12q23 -7 8 -51l-126 -360q-4 -11 -7 -16.5t-9 -10t-17 -6.5q-45 -9 -102 -9l-73 266
l-72 -222q-5 -18 -11.5 -25t-20.5 -10q-45 -9 -96 -9l-95 306q-26 79 -48 133q82 26 130 26z" />
    <glyph glyph-name="x" unicode="x" horiz-adv-x="453" 
d="M20 428v4q15 6 57.5 13.5t68.5 7.5q15 0 25 -13l71 -118l70 110q5 8 8 12t8.5 6.5t12.5 2.5q20 0 52.5 -7t46.5 -14v-4q-1 -1 -28 -37.5l-60.5 -83.5l-47.5 -68l146 -230v-5q-48 -10 -130 -10q-21 0 -32 19q-9 17 -35.5 57.5t-36.5 60.5l-71 -119q-11 -18 -29 -18
q-75 0 -107 7v4l145 217q-8 11 -64.5 99t-69.5 107z" />
    <glyph glyph-name="y" unicode="y" horiz-adv-x="453" 
d="M58 -154v6q23 26 60.5 79.5t59.5 94.5q-15 24 -21 40q-98 264 -143 357q25 12 61.5 21t57.5 9q10 0 17 -5.5t9.5 -10.5t7.5 -17q42 -112 84 -254q63 171 79 287q38 -2 83 -11q21 -5 26 -16t0 -30q-42 -189 -128 -366q-43 -88 -90 -158.5t-65 -70.5q-28 0 -57.5 15
t-40.5 30z" />
    <glyph glyph-name="z" unicode="z" horiz-adv-x="409" 
d="M27 6l-14 24q173 278 194 320h-127q-36 0 -49.5 8t-8.5 26q13 51 31 67q19 -9 81 -9h250q-2 -14 -3 -27t-8 -32q-2 -5 -3 -7q-8 -23 -59.5 -117t-96.5 -167q17 -4 94.5 -4t105.5 4q-13 -64 -37 -81q-11 -6 -18 -8.5t-35 -4.5t-81 -2q-165 0 -216 10z" />
    <glyph glyph-name="braceleft" unicode="{" horiz-adv-x="370" 
d="M321 -115v-1q0 -41 -13 -62q-101 1 -146.5 35t-45.5 105q0 24 10 97t10 94q0 41 -14.5 60t-49.5 24q-7 1 -12.5 21t-3.5 42q47 11 63.5 30t16.5 51q0 17 -8.5 71.5t-8.5 87.5q0 84 55 124q48 34 138 35q8 -20 8 -51q0 -19 -16 -24q-37 -12 -53.5 -27.5t-16.5 -49.5
q0 -26 11 -77.5t11 -74.5q1 -86 -86 -116q86 -31 86 -127q0 -34 -10.5 -97t-10.5 -87q0 -56 72 -68q14 -3 14 -15z" />
    <glyph glyph-name="bar" unicode="|" horiz-adv-x="329" 
d="M221 750v-1000h-113v1000h113z" />
    <glyph glyph-name="braceright" unicode="}" horiz-adv-x="370" 
d="M49 637v1q0 41 13 62q101 -1 146.5 -35t45.5 -105q0 -24 -10 -94t-10 -92q0 -36 14.5 -54.5t49.5 -23.5q7 -1 12.5 -21t3.5 -41q-47 -11 -63.5 -30t-16.5 -52q0 -16 8.5 -76.5t8.5 -93.5q0 -84 -54 -123q-49 -35 -141 -36q-6 15 -6 51q0 19 16 24q37 12 53.5 27.5
t16.5 49.5q0 24 -11 78.5t-11 85.5q-1 85 86 115q-86 31 -86 121q0 35 10.5 95t10.5 84q0 56 -72 68q-14 3 -14 15z" />
    <glyph glyph-name="asciitilde" unicode="~" horiz-adv-x="608" 
d="M208 363h1q37 0 65 -18t63 -56q56 -57 78 -57q36 0 42 111q1 16 19 16q22 0 45 -8t33 -17q-5 -210 -138 -210q-28 0 -56 15t-40 26t-40 39q-28 30 -43.5 42t-29.5 12q-39 0 -55 -114q-4 -19 -19 -19q-12 0 -42 10t-37 18q7 69 23.5 114.5t40.5 64.5t44 25t46 6z" />
    <glyph glyph-name="uni00A0" unicode="&#xa0;" horiz-adv-x="227" 
 />
    <glyph glyph-name="exclamdown" unicode="&#xa1;" horiz-adv-x="242" 
d="M121 290h-1q-34 0 -56.5 23t-22.5 57q0 38 23.5 60.5t62.5 22.5q32 0 56.5 -20.5t24.5 -59.5q0 -37 -22.5 -60t-64.5 -23zM69 -165h-1q-28 0 -28 32q0 44 13.5 162t21.5 163q3 18 26 25q53 11 59 11q36 -295 37 -370q-3 -8 -49 -15.5t-79 -7.5z" />
    <glyph glyph-name="cent" unicode="&#xa2;" horiz-adv-x="507" 
d="M368 583l-10 -79q67 -8 93 -34q1 -26 -14 -52t-42 -19q-32 14 -60 14q-63 0 -91.5 -33.5t-28.5 -81.5q0 -58 42.5 -87t88.5 -29q57 0 105 20q0 -69 -37 -93q-29 -22 -79 -22l-6 -60q-2 -16 -10 -23t-31 -8l-63 -4l13 100q-171 32 -171 196q0 44 15 80.5t36.5 58.5
t50.5 38.5t50.5 24t44.5 12.5l5 50q2 14 10 19.5t34 7.5z" />
    <glyph glyph-name="sterling" unicode="&#xa3;" horiz-adv-x="507" 
d="M32 12v19q79 65 79 227q-45 0 -63 15q5 34 20.5 50.5t47.5 26.5q10 270 209 270q65 0 101 -32q3 -24 -11.5 -54t-39.5 -23q-21 7 -39 7q-42 0 -57 -39.5t-18 -129.5q130 0 160 3q-12 -86 -57 -92q-13 -2 -108 -2q-8 -117 -72 -165q90 -30 169 -30q65 0 110 11l2 -2
q-4 -60 -49 -96q-26 -18 -88 -18q-85 0 -296 54z" />
    <glyph glyph-name="currency" unicode="&#xa4;" horiz-adv-x="507" 
d="M243 492h1q66 0 96 -24q43 43 64 71q49 -19 49 -58q0 -14 -55 -71q30 -47 30 -111q0 -28 -12 -64t-30 -55l68 -79q-5 -15 -25.5 -35t-30.5 -20q-6 0 -18 11.5t-35 39.5t-26 32q-44 -27 -97 -27q-42 0 -67 14q-35 -46 -45 -58q-24 -27 -56 -10q-33 18 -35 33q44 48 65 79
q-49 45 -49 132q0 69 49 127q-24 21 -42 39q-24 25 -4 48q20 26 44 34q6 -6 30 -32.5t37 -39.5q48 24 94 24zM230 414h-1q-36 0 -64 -32t-28 -86t27.5 -85t66.5 -31q43 0 69 32t26 87q0 52 -24.5 83.5t-71.5 31.5z" />
    <glyph glyph-name="yen" unicode="&#xa5;" horiz-adv-x="507" 
d="M324 337h102q-3 -68 -34 -68h-89v-64h108q0 -21 -8 -44.5t-20 -23.5h-80v-137q-8 0 -51 -4t-70 -4q-13 0 -17.5 3.5t-4.5 15.5v126h-106q0 17 4 41t9 27h93v64h-111q0 17 4 41t8 27h87l-41 71l-60 103.5t-37 59.5v4q64 14 138 14q13 0 17 -10l91 -187q57 135 92 196
q41 5 95 -2q9 -1 14 -4t5.5 -6t-0.5 -6q-20 -31 -138 -233z" />
    <glyph glyph-name="brokenbar" unicode="&#xa6;" horiz-adv-x="329" 
d="M221 675v-350h-113v350h113zM221 175v-350h-113v350h113z" />
    <glyph glyph-name="section" unicode="&#xa7;" horiz-adv-x="489" 
d="M34 349v1q0 116 107 202q55 74 154 74q47 0 79 -22t-10 -80q-40 22 -75 22q-25 0 -42 -8.5t-17 -21.5q0 -19 21 -43t85 -77q59 -49 86 -95.5t27 -117.5q0 -72 -35.5 -131.5t-90.5 -100.5q-59 -63 -148 -63q-43 0 -65 14q-18 12 -22.5 36.5t9.5 50.5q34 -15 79 -15
q25 0 46 11t21 27q0 18 -26 48.5t-75 78.5q-11 10 -16 15q-92 90 -92 195zM354 136v1q0 48 -22.5 85t-63.5 75q-7 7 -30 28t-32.5 31t-24.5 28.5t-23 37t-12 39.5q-15 -34 -15 -71q0 -79 98 -173q59 -57 78.5 -91t20.5 -73q11 16 18.5 41.5t7.5 41.5z" />
    <glyph glyph-name="dieresis" unicode="&#xa8;" horiz-adv-x="400" 
d="M102 669h1q25 0 42 -19.5t17 -44.5q0 -31 -18 -49.5t-47 -18.5q-25 0 -43.5 17t-18.5 47t18 49t49 19zM304 669h1q26 0 43 -18.5t17 -45.5q0 -31 -18 -49.5t-47 -18.5q-24 0 -43 17t-19 47t17.5 49t48.5 19z" />
    <glyph glyph-name="copyright" unicode="&#xa9;" horiz-adv-x="701" 
d="M352 630h1q134 0 223.5 -89.5t89.5 -224.5q0 -136 -90.5 -225t-223.5 -89q-135 0 -226 88.5t-91 225.5t91 225.5t226 88.5zM353 577h-1q-107 0 -177.5 -74.5t-70.5 -186.5q0 -111 71.5 -186t178.5 -75q105 0 174 75.5t69 188.5q0 109 -68 183.5t-176 74.5zM470 231l3 -3
q0 -40 -25 -58q-27 -18 -80 -18q-85 0 -131 44.5t-46 121.5q0 74 53.5 118.5t128.5 44.5q36 0 65.5 -10.5t37.5 -20.5q0 -16 -11 -33q-4 -7 -13 -10t-17 1q-40 12 -66 12q-41 0 -68 -27.5t-27 -72.5t30 -74t85 -29q47 0 81 14z" />
    <glyph glyph-name="ordfeminine" unicode="&#xaa;" horiz-adv-x="375" 
d="M360 350v-35q-3 -15 -24.5 -28t-53.5 -13q-56 0 -70 35q-39 -34 -88 -34q-43 0 -69.5 21t-26.5 60q0 72 148 98q9 2 17 3t12 2t6 1v6q0 14 -11 23t-31 9q-24 0 -63 -17q-45 -21 -59 28l-5 18q23 17 65 31t83 14q57 0 93 -26.5t36 -81.5q0 -7 -1.5 -46t-1.5 -63
q9 -9 20 -9q10 0 24 4zM137 370v-1q0 -25 30 -25q19 0 34 13q9 11 9 20v31q-73 -6 -73 -38z" />
    <glyph glyph-name="guillemotleft" unicode="&#xab;" horiz-adv-x="676" 
d="M517 50v-1q0 -14 -21 -28.5t-38 -19.5q-63 108 -174 209q-11 12 -11 28q54 37 98.5 87t99.5 128q15 -2 35 -17.5t21 -31.5q1 -21 -41.5 -84.5t-68.5 -91.5q25 -31 62.5 -94t37.5 -84zM288 396v-1q0 -16 -39.5 -80.5t-58.5 -86.5q86 -123 86 -168q1 -12 -18.5 -27.5
t-34.5 -18.5q-58 106 -167 198q-8 11 -8 26q109 85 187 202q15 -2 34 -16.5t19 -27.5z" />
    <glyph glyph-name="logicalnot" unicode="&#xac;" horiz-adv-x="608" 
d="M440 54v227h-374q2 96 33 96h433l11 -13v-278q0 -12 -8 -19.5t-22.5 -10t-27 -3t-27.5 0t-18 0.5z" />
    <glyph glyph-name="uni00AD" unicode="&#xad;" horiz-adv-x="332" 
d="M294 326l3 -5q-4 -34 -20 -69.5t-34 -38.5q-36 -16 -104.5 -31t-99.5 -14l-4 7q3 35 17 66.5t24 33.5q165 36 218 51z" />
    <glyph glyph-name="registered" unicode="&#xae;" horiz-adv-x="330" 
d="M167 640h1q58 0 95.5 -39t37.5 -97t-37.5 -96.5t-97.5 -38.5t-96.5 38.5t-36.5 96.5t37 97t97 39zM166 610h-1q-40 0 -66.5 -30t-26.5 -75t26.5 -75t68.5 -30q41 0 68 30t27 75q0 44 -26.5 74.5t-69.5 30.5zM150 489v-35q0 -10 -10 -13q-5 -1 -25 -1v129q23 4 48 4
q54 0 54 -40q0 -22 -23 -32q27 -46 37 -56l-1 -4q-18 -2 -26 -2q-10 0 -19 9q-5 7 -21 33q-5 10 -14 8zM150 546v-34q9 0 16 2q12 4 12 16q0 18 -17 18q-3 0 -11 -2z" />
    <glyph glyph-name="macron" unicode="&#xaf;" horiz-adv-x="400" 
d="M306 542h-219q-15 0 -15 17t7 43.5t12 31.5h224q13 0 13 -15q0 -20 -7 -44t-15 -33z" />
    <glyph glyph-name="degree" unicode="&#xb0;" horiz-adv-x="335" 
d="M172 602h1q56 0 90.5 -37.5t34.5 -89.5q0 -57 -37.5 -94t-100.5 -37q-48 0 -85.5 34t-37.5 92q0 56 36 94t99 38zM167 535h-1q-24 0 -37.5 -18.5t-13.5 -44.5q0 -28 15.5 -44.5t36.5 -16.5q27 0 40 18t13 45q0 25 -14 43t-39 18z" />
    <glyph glyph-name="plusminus" unicode="&#xb1;" horiz-adv-x="608" 
d="M252 325h-187q1 55 8 75.5t26 20.5h153v93q0 43 -3 70l79 6q18 1 22.5 -7t4.5 -30v-132h187q-1 -56 -7.5 -76t-27.5 -20h-152v-161q0 -14 -11.5 -21.5t-45.5 -8.5l-46 -2v193zM508 0h-442q1 56 8 76t26 20h443q-1 -56 -7.5 -76t-27.5 -20z" />
    <glyph glyph-name="twosuperior" unicode="&#xb2;" 
d="M42 643l-4 3q2 32 13 60q41 44 114 44q57 0 87.5 -29t30.5 -72q0 -18 -5.5 -34.5t-11 -27t-20 -25.5t-20 -20t-24 -19t-20.5 -16q23 -3 123 0q-4 -18 -16 -42.5t-22 -29.5q-32 -8 -95 -8q-107 0 -135 6l-3 9q13 32 23 48q106 80 106 135q0 19 -12.5 30t-33.5 11
q-44 0 -75 -23z" />
    <glyph glyph-name="threesuperior" unicode="&#xb3;" 
d="M82 544l-4 7l8.5 25.5t9.5 25.5q80 8 80 45q0 13 -11.5 20.5t-29.5 7.5q-39 0 -79 -28q-14 21 -14 36t15 29q13 12 45 25t69 13q45 0 78.5 -22t33.5 -59q0 -43 -55 -70q76 -17 76 -80q0 -53 -47 -84.5t-117 -31.5q-46 0 -81 16q-22 18 -22 61l5 5q35 -14 73 -14
q69 0 69 41q0 35 -60 35q-8 0 -22.5 -1.5t-19.5 -1.5z" />
    <glyph glyph-name="acute" unicode="&#xb4;" horiz-adv-x="400" 
d="M240 696h1q43 1 81 -32q11 -8 -2 -22l-43 -49.5l-46 -55.5l-31 -38q-20 3 -42 16q-12 10 -3 29q15 50 39.5 100.5t45.5 51.5z" />
    <glyph glyph-name="mu" unicode="&#xb5;" horiz-adv-x="556" 
d="M186 17l5 -231q-43 -1 -95 2q-31 2 -37 10t-5 35l11 313v172q0 85 -4 110q62 16 125 16q14 0 18 -10.5t4 -54.5v-206q0 -41 19.5 -58t46.5 -17q47 0 70 27v268q0 23 4 30.5t20 11.5q88 8 122 9q0 -5 -1.5 -68t-1.5 -114v-139q0 -24 11.5 -35t35.5 -13v-7
q-6 -30 -25.5 -55t-41.5 -25q-76 0 -103 59q-52 -59 -107 -59q-24 0 -44 9.5t-27 19.5z" />
    <glyph glyph-name="paragraph" unicode="&#xb6;" horiz-adv-x="536" 
d="M303 146l-52 -17q-20 -7 -41 -7q-70 0 -122.5 54t-52.5 137q0 100 61.5 154.5t161.5 54.5h112h132l3 -5q-9 -22 -29 -64l-69 -6v-295q0 -117 -15.5 -174.5t-62.5 -94.5q-51 -42 -129 -42q-55 0 -91.5 18.5t-38.5 40.5q-1 11 11.5 33t19.5 28l12 -7q12 -8 17.5 -10.5
t17.5 -7.5t24 -7t26 -2q105 0 105 164v55z" />
    <glyph glyph-name="periodcentered" unicode="&#xb7;" horiz-adv-x="241" 
d="M126 322h1q34 0 55 -24t21 -59q0 -39 -23 -62.5t-62 -23.5q-32 0 -56 21.5t-24 61.5q0 37 23 61.5t65 24.5z" />
    <glyph glyph-name="cedilla" unicode="&#xb8;" horiz-adv-x="400" 
d="M183 4h78l-40 -55q31 -10 50 -33t19 -53q0 -48 -45.5 -81t-102.5 -35q-13 4 -23 19t-10 25q0 12 10 15q66 15 66 44q0 17 -20 27.5t-51 6.5v31z" />
    <glyph glyph-name="onesuperior" unicode="&#xb9;" 
d="M253 750l4 -4q-5 -107 -3 -300q0 -16 -26 -17l-90 -6q0 2 4 228q-11 -4 -47 -10t-37 -6l-3 2l21 67q138 31 177 46z" />
    <glyph glyph-name="ordmasculine" unicode="&#xba;" horiz-adv-x="397" 
d="M204 572h1q70 0 117 -40.5t47 -106.5q0 -74 -50 -112t-126 -38q-70 0 -117.5 37.5t-47.5 107.5q0 73 49.5 112.5t126.5 39.5zM199 500h-1q-23 0 -36 -19.5t-13 -53.5q0 -38 15 -59t36 -21q23 0 35.5 19.5t12.5 52.5q0 81 -49 81z" />
    <glyph glyph-name="guillemotright" unicode="&#xbb;" horiz-adv-x="675" 
d="M159 403v1q0 13 20.5 29t36.5 19q66 -110 176 -209q11 -14 11 -29q-55 -37 -99.5 -87t-98.5 -127q-15 1 -35.5 16.5t-21.5 31.5q-1 22 39 81.5t71 96.5q-24 31 -61.5 93t-37.5 84zM385 56v1q0 17 40.5 82.5t60.5 86.5q-24 30 -56 86t-32 81q-2 12 18 27.5t35 18.5
q60 -111 166 -197q10 -11 10 -28q-107 -84 -189 -202q-14 3 -33.5 17.5t-19.5 26.5z" />
    <glyph glyph-name="onequarter" unicode="&#xbc;" horiz-adv-x="750" 
d="M251 602l3 -3q-5 -108 -3 -301q0 -16 -26 -17l-90 -6q0 3 4 229q-8 -3 -25.5 -6.5t-35.5 -6.5t-22 -4l-4 3l21 66q140 32 178 46zM571 587l-359 -601q-8 -14 -14.5 -16t-13.5 3q-32 19 -42 39l364 609q9 14 25 6q33 -18 40 -40zM646 337l1 -3q-119 -127 -162 -201
q3 0 24.5 -1t30.5 0l2 59q11 7 44.5 16t58.5 9h4v-83q11 0 40 3l2 -3q-7 -26 -22 -62l-20 -8v-60q-29 -2 -53.5 -4.5t-36.5 -4t-18 -1.5l-4 3q3 60 3 65q-90 0 -128 6q-4 2 -14.5 21.5t-10.5 23.5q26 48 67.5 105.5t72.5 85.5q23 21 119 34z" />
    <glyph glyph-name="onehalf" unicode="&#xbd;" horiz-adv-x="750" 
d="M251 602l4 -3q-7 -47 -4 -301q0 -16 -26 -17l-90 -6q0 3 4 229q-8 -3 -25.5 -6.5t-36 -6.5t-22.5 -4l-3 2l21 67q140 32 178 46zM569 586l-359 -601q-8 -13 -14.5 -15t-13.5 3q-33 20 -42 38l364 610q9 14 25 6q33 -18 40 -41zM556 320h1q58 0 88 -27.5t30 -73.5
q0 -21 -5.5 -38.5t-18.5 -33.5t-21.5 -24.5t-29 -25l-25.5 -20.5q24 -3 122 0q-2 -18 -14.5 -42.5t-23.5 -29.5q-32 -8 -95 -8q-109 0 -136 6l-2 6q12 34 23 51q1 1 11.5 9l14.5 11t15 12t16.5 15l14.5 15.5t14 17.5t10 17.5t7.5 19.5t2.5 20q0 41 -47 41q-41 0 -76 -26
l-5 2q0 31 14 61q40 45 115 45z" />
    <glyph glyph-name="threequarters" unicode="&#xbe;" horiz-adv-x="750" 
d="M180 602h1q45 0 78 -21.5t33 -59.5q0 -44 -53 -73q74 -13 74 -78q0 -51 -49 -83t-119 -32q-45 0 -80 16q-22 18 -22 61l6 6q32 -16 72 -16q72 0 72 43q0 14 -14.5 24.5t-45.5 10.5q-8 0 -22.5 -1.5t-18.5 -1.5l-5 7q2 5 8.5 23.5t9.5 24.5q80 8 80 47q0 14 -10.5 23
t-28.5 9q-41 0 -81 -32q-14 21 -14 36t15 29q13 12 45 25t69 13zM604 586l-359 -601q-8 -13 -14.5 -15t-13.5 3q-32 19 -42 39l364 609q9 15 25 6q33 -18 40 -41zM666 337v-4q-115 -121 -162 -200q4 0 25 -1t30 0l2 59q11 7 45 16t59 9h3v-83q12 0 40 3l2 -4q-6 -23 -22 -61
l-20 -8v-60q-30 -2 -52.5 -4.5t-34.5 -4t-16 -1.5l-9 7q3 60 3 61q-90 0 -127 6q-4 2 -14.5 21.5t-10.5 23.5q26 49 67.5 106t71.5 85q10 10 52.5 21t67.5 13z" />
    <glyph glyph-name="questiondown" unicode="&#xbf;" horiz-adv-x="380" 
d="M193 292h-1q-34 0 -56 23t-22 57q0 38 23.5 60.5t63.5 22.5q32 0 56.5 -21t24.5 -59q0 -37 -23 -60t-66 -23zM184 -162h-1q-66 0 -106 33.5t-40 95.5q0 63 60 124q64 66 64 101q0 24 -11 46q3 4 17 8.5t28 4.5q33 0 54 -23.5t21 -64.5q0 -49 -51 -103q-43 -45 -43 -75
q0 -22 15.5 -32t35.5 -10q41 0 81 26h8q32 -16 26 -73q-59 -58 -158 -58z" />
    <glyph glyph-name="Agrave" unicode="&#xc0;" horiz-adv-x="646" 
d="M421 153h-211q-17 -41 -54 -143q-7 -16 -32 -16q-63 0 -111 13v4l240 587l-6 17q65 13 126 13q16 0 24 -19q44 -106 150 -383q61 -158 87 -216v-4q-39 -12 -132 -12q-14 0 -22 6.5t-15 26.5q-7 22 -21.5 62.5zM242 254h149l-46 131.5t-29 82.5zM233 842h1q14 0 67 -37.5
t84 -67.5q18 -17 5 -40l-11 -15.5l-8 -11.5q-160 75 -187 85q-14 4 -8 22q8 25 24 45t33 20z" />
    <glyph glyph-name="Aacute" unicode="&#xc1;" horiz-adv-x="646" 
d="M421 153h-211q-17 -41 -54 -143q-7 -16 -32 -16q-63 0 -111 13v4l240 587l-6 17q65 13 126 13q16 0 24 -19q44 -106 150 -383q61 -158 87 -216v-4q-39 -12 -132 -12q-14 0 -22 6.5t-15 26.5q-7 22 -21.5 62.5zM242 254h149l-46 131.5t-29 82.5zM433 828q38 -9 52 -72
q2 -12 -16 -19q-31 -9 -67.5 -22l-73.5 -27t-50 -18q-3 3 -20 29q-12 21 7 35q38 32 90.5 63t77.5 31z" />
    <glyph glyph-name="Acircumflex" unicode="&#xc2;" horiz-adv-x="646" 
d="M421 153h-211q-17 -41 -54 -143q-7 -16 -32 -16q-63 0 -111 13v4l240 587l-6 17q65 13 126 13q16 0 24 -19q44 -106 150 -383q61 -158 87 -216v-4q-39 -12 -132 -12q-14 0 -22 6.5t-15 26.5q-7 22 -21.5 62.5zM242 254h149l-46 131.5t-29 82.5zM239 666h-1q-20 0 -39 13
t-23 26q63 41 117 105q9 10 21 13q19 4 46 4q54 -66 124 -123q-7 -11 -24.5 -24.5t-32.5 -13.5q-17 0 -28 7q-23 15 -69 56q-36 -33 -72 -55q-16 -8 -19 -8z" />
    <glyph glyph-name="Atilde" unicode="&#xc3;" horiz-adv-x="646" 
d="M421 153h-211q-17 -41 -54 -143q-7 -16 -32 -16q-63 0 -111 13v4l240 587l-6 17q65 13 126 13q16 0 24 -19q44 -106 150 -383q61 -158 87 -216v-4q-39 -12 -132 -12q-14 0 -22 6.5t-15 26.5q-7 22 -21.5 62.5zM242 254h149l-46 131.5t-29 82.5zM284 816h1q33 0 62 -37
q19 -23 26 -23q15 0 25 49q3 11 11 11q7 0 25.5 -5t27.5 -10q-13 -135 -85 -135q-30 0 -66 40q-21 24 -31 24q-15 -1 -26 -49q-2 -11 -8 -11q-33 0 -57 9q11 137 95 137z" />
    <glyph glyph-name="Adieresis" unicode="&#xc4;" horiz-adv-x="646" 
d="M421 153h-211q-17 -41 -54 -143q-7 -16 -32 -16q-63 0 -111 13v4l240 587l-6 17q65 13 126 13q16 0 24 -19q44 -106 150 -383q61 -158 87 -216v-4q-39 -12 -132 -12q-14 0 -22 6.5t-15 26.5q-7 22 -21.5 62.5zM242 254h149l-46 131.5t-29 82.5zM219 806h1q24 0 41 -19
t17 -44q0 -32 -17.5 -50.5t-47.5 -18.5q-25 0 -44 17t-19 47t18 49t51 19zM439 806h1q25 0 41.5 -18.5t16.5 -44.5q0 -32 -17.5 -50.5t-47.5 -18.5q-23 0 -42 17t-19 47t18 49t49 19z" />
    <glyph glyph-name="Aring" unicode="&#xc5;" horiz-adv-x="646" 
d="M421 153h-211q-17 -41 -54 -143q-7 -16 -32 -16q-63 0 -111 13v4l240 587l-6 17q65 13 126 13q16 0 24 -19q44 -106 150 -383q61 -158 87 -216v-4q-39 -12 -132 -12q-14 0 -22 6.5t-15 26.5q-7 22 -21.5 62.5zM242 254h149l-46 131.5t-29 82.5zM334 870h1q43 0 71 -29
t28 -72q0 -46 -31 -76.5t-81 -30.5q-41 0 -71.5 27t-30.5 74q0 45 30.5 76t83.5 31zM326 814h-1q-17 0 -27.5 -15t-10.5 -34q0 -22 12 -35t29 -13q39 1 39 48q0 21 -10 35t-31 14z" />
    <glyph glyph-name="AE" unicode="&#xc6;" horiz-adv-x="806" 
d="M418 234h-168l-104 -231q-8 -15 -24 -15q-50 0 -101 22l-1 10l276 568q8 17 11 28q81 9 130 9h329q-8 -61 -35 -92q-13 -8 -96 -8h-96l14 -198h195q-17 -61 -34.5 -78t-46.5 -17h-106l10 -131q22 -7 100 -7q98 0 125 3l2 -2q-17 -66 -65 -96q-23 -5 -106 -5
q-140 0 -184 10l-15 20zM415 327l-14 210q-17 -2 -28 -25q-82 -178 -85 -185h127z" />
    <glyph glyph-name="Ccedilla" unicode="&#xc7;" horiz-adv-x="601" 
d="M278 -85l57 74q-144 12 -222.5 96t-78.5 220q0 156 104.5 245.5t262.5 89.5q57 0 110 -16t71 -35q0 -41 -23.5 -62.5t-51.5 -9.5q-11 5 -50.5 13t-60.5 8q-91 0 -148.5 -57t-57.5 -166q0 -96 62.5 -159.5t170.5 -63.5q63 0 144 26l4 -4q-8 -63 -36 -95q-17 -11 -53 -21.5
t-70 -11.5l-27 -37q31 -10 50 -33t19 -53q0 -48 -45.5 -80.5t-102.5 -34.5q-13 3 -23 18t-10 25q0 12 10 15q66 15 66 44q0 17 -20 27.5t-51 6.5v31z" />
    <glyph glyph-name="Egrave" unicode="&#xc8;" horiz-adv-x="495" 
d="M73 24v461q0 81 -3 126q59 12 134 14h241q-8 -63 -34 -94q-17 -7 -102 -7h-89v-152h214q-8 -61 -24 -81t-45 -20h-145v-171q40 -5 79 -5q120 0 173 3l2 -2q-15 -69 -59 -97q-25 -5 -143 -5q-135 0 -183 10zM168 842h1q14 0 67 -37.5t84 -67.5q18 -17 5 -40
q-4 -7 -10.5 -15.5t-8.5 -11.5q-160 75 -187 85q-14 4 -8 22q8 25 24 45t33 20z" />
    <glyph glyph-name="Eacute" unicode="&#xc9;" horiz-adv-x="495" 
d="M73 24v461q0 81 -3 126q59 12 134 14h241q-8 -63 -34 -94q-17 -7 -102 -7h-89v-152h214q-8 -61 -24 -81t-45 -20h-145v-171q40 -5 79 -5q120 0 173 3l2 -2q-15 -69 -59 -97q-25 -5 -143 -5q-135 0 -183 10zM368 828q38 -9 52 -72q2 -12 -16 -19q-31 -9 -67.5 -22
l-73.5 -27t-50 -18q-3 3 -20 29q-12 21 7 35q38 32 90.5 63t77.5 31z" />
    <glyph glyph-name="Ecircumflex" unicode="&#xca;" horiz-adv-x="495" 
d="M73 24v461q0 81 -3 126q59 12 134 14h241q-8 -63 -34 -94q-17 -7 -102 -7h-89v-152h214q-8 -61 -24 -81t-45 -20h-145v-171q40 -5 79 -5q120 0 173 3l2 -2q-15 -69 -59 -97q-25 -5 -143 -5q-135 0 -183 10zM172 667h-1q-20 0 -39 13t-23 26q63 41 117 105q9 10 21 13
q19 4 46 4q54 -66 124 -123q-7 -11 -24.5 -24.5t-32.5 -13.5q-17 0 -28 7q-23 15 -69 56q-36 -33 -72 -55q-16 -8 -19 -8z" />
    <glyph glyph-name="Edieresis" unicode="&#xcb;" horiz-adv-x="495" 
d="M73 24v461q0 81 -3 126q59 12 134 14h241q-8 -63 -34 -94q-17 -7 -102 -7h-89v-152h214q-8 -61 -24 -81t-45 -20h-145v-171q40 -5 79 -5q120 0 173 3l2 -2q-15 -69 -59 -97q-25 -5 -143 -5q-135 0 -183 10zM158 810h1q24 0 41 -19t17 -44q0 -32 -17.5 -50.5t-47.5 -18.5
q-25 0 -44 17t-19 47t18 49t51 19zM378 810h1q25 0 41.5 -18.5t16.5 -44.5q0 -32 -17.5 -50.5t-47.5 -18.5q-23 0 -42 17t-19 47t18 49t49 19z" />
    <glyph glyph-name="Igrave" unicode="&#xcc;" horiz-adv-x="293" 
d="M73 14v479q0 99 -3 127q56 8 127 8q15 0 19 -10.5t4 -45.5v-447q0 -63 3 -123q-29 -8 -125 -8q-14 0 -19.5 4t-5.5 16zM64 842h1q14 0 67 -37.5t84 -67.5q18 -17 5 -40q-4 -7 -10.5 -15.5t-8.5 -11.5q-160 75 -187 85q-14 4 -8 22q8 25 24 45t33 20z" />
    <glyph glyph-name="Iacute" unicode="&#xcd;" horiz-adv-x="293" 
d="M73 14v479q0 99 -3 127q56 8 127 8q15 0 19 -10.5t4 -45.5v-447q0 -63 3 -123q-29 -8 -125 -8q-14 0 -19.5 4t-5.5 16zM246 828q38 -9 52 -72q2 -12 -16 -19q-31 -9 -67.5 -22l-73.5 -27t-50 -18q-3 3 -20 29q-12 21 7 35q38 32 90.5 63t77.5 31z" />
    <glyph glyph-name="Icircumflex" unicode="&#xce;" horiz-adv-x="293" 
d="M73 14v479q0 99 -3 127q56 8 127 8q15 0 19 -10.5t4 -45.5v-447q0 -63 3 -123q-29 -8 -125 -8q-14 0 -19.5 4t-5.5 16zM57 661h-1q-20 0 -39 13t-23 26q63 41 117 105q9 10 21 13q19 4 46 4q54 -66 124 -123q-7 -11 -24.5 -24.5t-32.5 -13.5q-17 0 -28 7q-23 15 -69 56
q-36 -33 -72 -55q-16 -8 -19 -8z" />
    <glyph glyph-name="Idieresis" unicode="&#xcf;" horiz-adv-x="293" 
d="M73 14v479q0 99 -3 127q56 8 127 8q15 0 19 -10.5t4 -45.5v-447q0 -63 3 -123q-29 -8 -125 -8q-14 0 -19.5 4t-5.5 16zM42 810h1q24 0 41 -19t17 -44q0 -32 -17.5 -50.5t-47.5 -18.5q-25 0 -44 17t-19 47t18 49t51 19zM262 810h1q25 0 41.5 -18.5t16.5 -44.5
q0 -32 -17.5 -50.5t-47.5 -18.5q-23 0 -42 17t-19 47t18 49t49 19z" />
    <glyph glyph-name="Eth" unicode="&#xd0;" horiz-adv-x="695" 
d="M84 611l127 13q72 6 98 6q86 0 151 -21t102.5 -52.5t61 -75.5t31 -83.5t7.5 -82.5q0 -151 -111 -245q-95 -80 -248 -80q-81 0 -217 21v268h-80q4 39 13.5 59t18 23.5t23.5 3.5h25v132q0 62 -2 114zM233 531v-166h159q-10 -55 -27 -70.5t-49 -15.5h-83v-187q29 -8 71 -8
q24 0 47.5 4.5t52.5 20t50.5 40t36.5 68.5t15 102q0 104 -56.5 160.5t-151.5 56.5q-38 0 -65 -5z" />
    <glyph glyph-name="Ntilde" unicode="&#xd1;" horiz-adv-x="676" 
d="M73 592l-14 22v6q56 8 147 8q13 0 29 -18q69 -105 159 -260q79 -133 97 -171q-7 53 -7 139v279q0 16 5.5 21.5t17.5 5.5q45 4 100 4q-3 -65 -3 -184v-439q-10 -4 -51 -10.5t-63 -6.5q-19 0 -31 17q-19 28 -151 244q-26 42 -45 77t-41.5 81.5t-34.5 68.5q6 -76 6 -190
v-263q0 -14 -5 -18.5t-20 -6.5q-34 -6 -98 -4q3 60 3 182v416zM304 824h1q33 0 62 -37q19 -23 26 -23q15 0 25 49q3 11 11 11q7 0 25.5 -5t27.5 -10q-13 -135 -85 -135q-30 0 -66 40q-21 24 -31 24q-15 -1 -26 -49q-2 -11 -8 -11q-33 0 -57 9q11 137 95 137z" />
    <glyph glyph-name="Ograve" unicode="&#xd2;" horiz-adv-x="719" 
d="M365 640h1q145 0 232 -91t87 -231q0 -141 -87.5 -237t-240.5 -96q-83 0 -147 28t-101 75.5t-55.5 103t-18.5 116.5q0 145 88.5 238.5t241.5 93.5zM353 546h-1q-68 0 -114 -56.5t-46 -167.5q0 -114 50 -178.5t127 -64.5t119.5 61t42.5 168q0 100 -45.5 169t-132.5 69z
M282 850h1q14 0 67 -37.5t84 -67.5q18 -17 5 -40q-5 -6 -11 -15l-8 -12q-160 75 -187 85q-14 4 -8 22q8 25 24 45t33 20z" />
    <glyph glyph-name="Oacute" unicode="&#xd3;" horiz-adv-x="719" 
d="M365 640h1q145 0 232 -91t87 -231q0 -141 -87.5 -237t-240.5 -96q-83 0 -147 28t-101 75.5t-55.5 103t-18.5 116.5q0 145 88.5 238.5t241.5 93.5zM353 546h-1q-68 0 -114 -56.5t-46 -167.5q0 -114 50 -178.5t127 -64.5t119.5 61t42.5 168q0 100 -45.5 169t-132.5 69z
M462 836q38 -9 52 -72q2 -12 -16 -19q-31 -9 -67.5 -22l-73.5 -27t-50 -18q-3 3 -20 29q-12 21 7 35q38 32 90.5 63t77.5 31z" />
    <glyph glyph-name="Ocircumflex" unicode="&#xd4;" horiz-adv-x="719" 
d="M365 640h1q145 0 232 -91t87 -231q0 -141 -87.5 -237t-240.5 -96q-83 0 -147 28t-101 75.5t-55.5 103t-18.5 116.5q0 145 88.5 238.5t241.5 93.5zM353 546h-1q-68 0 -114 -56.5t-46 -167.5q0 -114 50 -178.5t127 -64.5t119.5 61t42.5 168q0 100 -45.5 169t-132.5 69z
M270 677h-1q-20 0 -39 13t-23 26q63 41 117 105q9 10 21 13q19 4 46 4q54 -66 124 -123q-7 -11 -24.5 -24.5t-32.5 -13.5q-17 0 -28 7q-23 15 -69 56q-36 -33 -72 -55q-16 -8 -19 -8z" />
    <glyph glyph-name="Otilde" unicode="&#xd5;" horiz-adv-x="719" 
d="M365 640h1q145 0 232 -91t87 -231q0 -141 -87.5 -237t-240.5 -96q-83 0 -147 28t-101 75.5t-55.5 103t-18.5 116.5q0 145 88.5 238.5t241.5 93.5zM353 546h-1q-68 0 -114 -56.5t-46 -167.5q0 -114 50 -178.5t127 -64.5t119.5 61t42.5 168q0 100 -45.5 169t-132.5 69z
M317 828h1q33 0 62 -37q19 -23 26 -23q15 0 25 49q3 11 11 11q7 0 25.5 -5t27.5 -10q-13 -135 -85 -135q-30 0 -66 40q-21 24 -31 24q-15 -1 -26 -49q-2 -11 -8 -11q-33 0 -57 9q11 137 95 137z" />
    <glyph glyph-name="Odieresis" unicode="&#xd6;" horiz-adv-x="719" 
d="M365 640h1q145 0 232 -91t87 -231q0 -141 -87.5 -237t-240.5 -96q-83 0 -147 28t-101 75.5t-55.5 103t-18.5 116.5q0 145 88.5 238.5t241.5 93.5zM353 546h-1q-68 0 -114 -56.5t-46 -167.5q0 -114 50 -178.5t127 -64.5t119.5 61t42.5 168q0 100 -45.5 169t-132.5 69z
M255 814h1q24 0 41 -19t17 -44q0 -32 -17.5 -50.5t-47.5 -18.5q-25 0 -44 17t-19 47t18 49t51 19zM475 814h1q25 0 41.5 -18.5t16.5 -44.5q0 -32 -17.5 -50.5t-47.5 -18.5q-23 0 -42 17t-19 47t18 49t49 19z" />
    <glyph glyph-name="multiply" unicode="&#xd7;" horiz-adv-x="608" 
d="M534 404l-159 -158l142 -141q26 -23 11 -47q-20 -31 -65 -50l-159 164l-158 -164q-40 6 -65 46q-18 26 4 44l147 148l-146 143q-20 18 -2 44q25 37 62 47l158 -161l141 144q17 20 41 6q19 -10 33.5 -31.5t14.5 -33.5z" />
    <glyph glyph-name="Oslash" unicode="&#xd8;" horiz-adv-x="737" 
d="M654 615l-49 -64q98 -87 98 -233q0 -66 -21 -125t-61.5 -106t-106.5 -74.5t-149 -27.5q-100 0 -168 41l-57 -74q-20 -24 -38 -1q-23 30 -26 43l61 77q-52 46 -77 108.5t-25 122.5q0 152 93 245t243 93q102 0 174 -44l40 53q12 15 19.5 17t16.5 -5q28 -22 33 -46zM217 175
l259 332q-36 39 -112 39q-70 0 -127 -58.5t-57 -178.5q0 -88 37 -134zM524 447l-256 -329q47 -39 107 -39q82 0 132.5 61.5t50.5 175.5q0 82 -34 131z" />
    <glyph glyph-name="Ugrave" unicode="&#xd9;" horiz-adv-x="678" 
d="M215 568v-278q0 -61 11.5 -103t32.5 -61t42 -26.5t47 -7.5q66 0 99.5 44.5t33.5 163.5v300q0 14 5.5 19t17.5 5q40 4 108 4q-3 -60 -3 -182v-141q0 -80 -17 -139.5t-42.5 -93.5t-64 -54t-74 -26.5t-78.5 -6.5q-135 0 -200 73.5t-65 228.5v204q0 97 -3 129q56 8 127 8
q15 0 19 -11.5t4 -48.5zM254 834h1q14 0 67 -37.5t84 -67.5q18 -17 5 -40q-5 -6 -11 -15l-8 -12q-160 75 -187 85q-14 4 -8 22q8 25 24 45t33 20z" />
    <glyph glyph-name="Uacute" unicode="&#xda;" horiz-adv-x="678" 
d="M215 568v-278q0 -61 11.5 -103t32.5 -61t42 -26.5t47 -7.5q66 0 99.5 44.5t33.5 163.5v300q0 14 5.5 19t17.5 5q40 4 108 4q-3 -60 -3 -182v-141q0 -80 -17 -139.5t-42.5 -93.5t-64 -54t-74 -26.5t-78.5 -6.5q-135 0 -200 73.5t-65 228.5v204q0 97 -3 129q56 8 127 8
q15 0 19 -11.5t4 -48.5zM434 826q38 -9 52 -72q2 -12 -16 -19q-31 -9 -67.5 -22l-73.5 -27t-50 -18q-3 3 -20 29q-12 21 7 35q38 32 90.5 63t77.5 31z" />
    <glyph glyph-name="Ucircumflex" unicode="&#xdb;" horiz-adv-x="678" 
d="M215 568v-278q0 -61 11.5 -103t32.5 -61t42 -26.5t47 -7.5q66 0 99.5 44.5t33.5 163.5v300q0 14 5.5 19t17.5 5q40 4 108 4q-3 -60 -3 -182v-141q0 -80 -17 -139.5t-42.5 -93.5t-64 -54t-74 -26.5t-78.5 -6.5q-135 0 -200 73.5t-65 228.5v204q0 97 -3 129q56 8 127 8
q15 0 19 -11.5t4 -48.5zM249 673h-1q-20 0 -39 13t-23 26q63 41 117 105q9 10 21 13q19 4 46 4q54 -66 124 -123q-7 -11 -24.5 -24.5t-32.5 -13.5q-17 0 -28 7q-23 15 -69 56q-36 -33 -72 -55q-16 -8 -19 -8z" />
    <glyph glyph-name="Udieresis" unicode="&#xdc;" horiz-adv-x="678" 
d="M215 568v-278q0 -61 11.5 -103t32.5 -61t42 -26.5t47 -7.5q66 0 99.5 44.5t33.5 163.5v300q0 14 5.5 19t17.5 5q40 4 108 4q-3 -60 -3 -182v-141q0 -80 -17 -139.5t-42.5 -93.5t-64 -54t-74 -26.5t-78.5 -6.5q-135 0 -200 73.5t-65 228.5v204q0 97 -3 129q56 8 127 8
q15 0 19 -11.5t4 -48.5zM237 812h1q24 0 41 -19t17 -44q0 -32 -17.5 -50.5t-47.5 -18.5q-25 0 -44 17t-19 47t18 49t51 19zM457 812h1q25 0 41.5 -18.5t16.5 -44.5q0 -32 -17.5 -50.5t-47.5 -18.5q-23 0 -42 17t-19 47t18 49t49 19z" />
    <glyph glyph-name="Yacute" unicode="&#xdd;" horiz-adv-x="581" 
d="M225 12v233q0 33 -9 48q-64 112 -198 312v3q73 20 128 20q16 0 25 -8t28 -41l115 -201q80 126 144 250q72 2 103 -11q12 -7 11.5 -16t-10.5 -28q-14 -24 -95 -146t-84 -127q-11 -21 -11 -43v-135q0 -40 1.5 -77t1.5 -43q-45 -8 -129 -8q-13 0 -17 3.5t-4 14.5zM416 812
q38 -9 52 -72q2 -12 -16 -19q-31 -9 -67.5 -22l-73.5 -27t-50 -18q-3 3 -20 29q-12 21 7 35q38 32 90.5 63t77.5 31z" />
    <glyph glyph-name="Thorn" unicode="&#xde;" horiz-adv-x="532" 
d="M73 12v481q0 99 -3 127q56 8 127 8q15 0 19 -10.5t4 -44.5v-73q3 0 22.5 2t31.5 2q119 0 175 -57q51 -51 51 -135q0 -44 -14.5 -79t-35.5 -55.5t-47 -34t-47 -18t-37 -4.5q-27 0 -52 9q-36 13 -36 81q16 -4 29 -4q36 0 63.5 24t27.5 72q0 56 -29.5 82t-76.5 25
q-11 0 -25 -1v-284q0 -63 3 -123q-46 -8 -130 -8q-13 0 -16.5 3.5t-3.5 14.5z" />
    <glyph glyph-name="germandbls" unicode="&#xdf;" horiz-adv-x="582" 
d="M317 680h1q86 0 138.5 -47.5t52.5 -129.5q0 -28 -7 -42q-55 -26 -72.5 -47.5t-17.5 -51.5q0 -25 29 -46l57 -43q57 -42 57 -112q0 -83 -59 -128t-134 -45q-65 0 -101 24q-3 43 15 66q12 15 32 15q30 -10 52 -10q21 0 38.5 12t17.5 37q0 28 -30 49l-66 50q-46 35 -46 94
q0 78 95 138q6 12 6 38q0 39 -19 63.5t-50 24.5q-91 0 -91 -195q0 -267 5 -392q-66 -8 -135 -8q-15 0 -15 13q2 53 2 330q-60 5 -60 40q24 27 60 55q0 60 28 115.5t77 90.5q62 42 140 42z" />
    <glyph glyph-name="agrave" unicode="&#xe0;" horiz-adv-x="473" 
d="M454 92l1 -4q0 -100 -96 -100q-62 0 -89 52q-50 -52 -111 -52q-51 0 -91 36.5t-40 94.5q0 29 12 52t28 37.5t43 26.5t47.5 17.5t50.5 12.5l32.5 6.5l27.5 5.5v8q0 27 -19 45t-53 18q-33 0 -80 -21q-38 -13 -55 7t-17 56q89 63 189 63q71 0 121.5 -44.5t50.5 -126.5
q0 -17 -2.5 -75.5t-2.5 -94.5q0 -8 9.5 -15t24.5 -6q15 0 19 1zM161 137v-1q0 -21 15 -33.5t37 -12.5q27 0 45 17q9 11 9 38v55q-60 -5 -83 -23.5t-23 -39.5zM200 698q17 -1 42 -55.5t35 -100.5q6 -16 -8 -26q-17 -11 -42 -15q-55 80 -119 143q-11 9 4 22q40 33 88 32z" />
    <glyph glyph-name="aacute" unicode="&#xe1;" horiz-adv-x="473" 
d="M454 92l1 -4q0 -100 -96 -100q-62 0 -89 52q-50 -52 -111 -52q-51 0 -91 36.5t-40 94.5q0 29 12 52t28 37.5t43 26.5t47.5 17.5t50.5 12.5l32.5 6.5l27.5 5.5v8q0 27 -19 45t-53 18q-33 0 -80 -21q-38 -13 -55 7t-17 56q89 63 189 63q71 0 121.5 -44.5t50.5 -126.5
q0 -17 -2.5 -75.5t-2.5 -94.5q0 -8 9.5 -15t24.5 -6q15 0 19 1zM161 137v-1q0 -21 15 -33.5t37 -12.5q27 0 45 17q9 11 9 38v55q-60 -5 -83 -23.5t-23 -39.5zM265 696h1q43 1 81 -32q11 -8 -2 -22l-43 -49.5l-46 -55.5l-31 -38q-20 3 -42 16q-12 10 -3 29q15 50 39.5 100.5
t45.5 51.5z" />
    <glyph glyph-name="acircumflex" unicode="&#xe2;" horiz-adv-x="473" 
d="M454 92l1 -4q0 -100 -96 -100q-62 0 -89 52q-50 -52 -111 -52q-51 0 -91 36.5t-40 94.5q0 29 12 52t28 37.5t43 26.5t47.5 17.5t50.5 12.5l32.5 6.5l27.5 5.5v8q0 27 -19 45t-53 18q-33 0 -80 -21q-38 -13 -55 7t-17 56q89 63 189 63q71 0 121.5 -44.5t50.5 -126.5
q0 -17 -2.5 -75.5t-2.5 -94.5q0 -8 9.5 -15t24.5 -6q15 0 19 1zM161 137v-1q0 -21 15 -33.5t37 -12.5q27 0 45 17q9 11 9 38v55q-60 -5 -83 -23.5t-23 -39.5zM157 509h-1q-14 0 -66 14q72 98 99 147q7 14 23 17q17 4 49 4q47 -75 107 -162q-43 -20 -66 -20q-18 0 -22 10
q-45 60 -53 73q-21 -38 -48 -66q-14 -17 -22 -17z" />
    <glyph glyph-name="atilde" unicode="&#xe3;" horiz-adv-x="473" 
d="M454 92l1 -4q0 -100 -96 -100q-62 0 -89 52q-50 -52 -111 -52q-51 0 -91 36.5t-40 94.5q0 29 12 52t28 37.5t43 26.5t47.5 17.5t50.5 12.5l32.5 6.5l27.5 5.5v8q0 27 -19 45t-53 18q-33 0 -80 -21q-38 -13 -55 7t-17 56q89 63 189 63q71 0 121.5 -44.5t50.5 -126.5
q0 -17 -2.5 -75.5t-2.5 -94.5q0 -8 9.5 -15t24.5 -6q15 0 19 1zM161 137v-1q0 -21 15 -33.5t37 -12.5q27 0 45 17q9 11 9 38v55q-60 -5 -83 -23.5t-23 -39.5zM190 683h1q32 0 63 -35q16 -22 24 -22q17 0 25 48q4 11 11 11q9 0 28.5 -4.5t27.5 -10.5q-12 -138 -87 -138
q-33 0 -67 38q-21 23 -30 23q-15 -2 -26 -49q-2 -11 -9 -11q-34 0 -58 9q9 141 97 141z" />
    <glyph glyph-name="adieresis" unicode="&#xe4;" horiz-adv-x="473" 
d="M454 92l1 -4q0 -100 -96 -100q-62 0 -89 52q-50 -52 -111 -52q-51 0 -91 36.5t-40 94.5q0 29 12 52t28 37.5t43 26.5t47.5 17.5t50.5 12.5l32.5 6.5l27.5 5.5v8q0 27 -19 45t-53 18q-33 0 -80 -21q-38 -13 -55 7t-17 56q89 63 189 63q71 0 121.5 -44.5t50.5 -126.5
q0 -17 -2.5 -75.5t-2.5 -94.5q0 -8 9.5 -15t24.5 -6q15 0 19 1zM161 137v-1q0 -21 15 -33.5t37 -12.5q27 0 45 17q9 11 9 38v55q-60 -5 -83 -23.5t-23 -39.5zM128 669h1q25 0 42 -19.5t17 -44.5q0 -31 -18 -49.5t-47 -18.5q-25 0 -43.5 17t-18.5 47t18 49t49 19zM330 669h1
q26 0 43 -18.5t17 -45.5q0 -31 -18 -49.5t-47 -18.5q-24 0 -43 17t-19 47t17.5 49t48.5 19z" />
    <glyph glyph-name="aring" unicode="&#xe5;" horiz-adv-x="473" 
d="M454 92l1 -4q0 -100 -96 -100q-62 0 -89 52q-50 -52 -111 -52q-51 0 -91 36.5t-40 94.5q0 29 12 52t28 37.5t43 26.5t47.5 17.5t50.5 12.5l32.5 6.5l27.5 5.5v8q0 27 -19 45t-53 18q-33 0 -80 -21q-38 -13 -55 7t-17 56q89 63 189 63q71 0 121.5 -44.5t50.5 -126.5
q0 -17 -2.5 -75.5t-2.5 -94.5q0 -8 9.5 -15t24.5 -6q15 0 19 1zM161 137v-1q0 -21 15 -33.5t37 -12.5q27 0 45 17q9 11 9 38v55q-60 -5 -83 -23.5t-23 -39.5zM237 707h1q47 0 76.5 -30t29.5 -77q0 -45 -31 -75.5t-77 -30.5t-77.5 28t-31.5 79q0 44 30.5 75t79.5 31zM235 649
h-1q-17 0 -28 -14t-11 -32q0 -26 12 -39t31 -13q38 2 38 49q0 21 -10.5 35t-30.5 14z" />
    <glyph glyph-name="ae" unicode="&#xe6;" horiz-adv-x="688" 
d="M644 117l2 -3q-1 -42 -26 -74t-42 -39q-34 -13 -83 -13q-124 0 -176 77q-77 -77 -157 -77q-54 0 -94 34.5t-40 92.5q0 36 17 63t48.5 44t60 26.5t67.5 17.5q47 9 55 9v19q0 23 -18.5 38.5t-50.5 15.5q-42 0 -89 -20q-36 -14 -55.5 4.5t-17.5 58.5q36 26 87.5 44t99.5 18
q83 0 122 -55q58 55 137 55q88 0 130 -53t42 -122q0 -24 -6 -36q-11 -24 -78 -42q-38 -10 -179 -10q12 -96 130 -96q49 0 114 23zM470 369h-1q-27 0 -48 -24t-20 -74q54 -6 124 3q6 1 6 19q0 32 -15.5 54t-45.5 22zM213 90h1q37 0 72 42q-12 24 -12 68q-45 -3 -72 -15.5
t-34 -23.5t-7 -24q0 -20 14.5 -33.5t37.5 -13.5z" />
    <glyph glyph-name="ccedilla" unicode="&#xe7;" horiz-adv-x="436" 
d="M169 -85l60 76q-92 9 -145 67t-53 149q0 101 67 173.5t189 72.5q54 0 90.5 -14.5t46.5 -26.5q0 -17 -7.5 -36.5t-18.5 -28.5q-21 -17 -45 -6q-29 12 -60 12q-52 0 -85 -33t-33 -91q0 -66 38.5 -100.5t97.5 -34.5q57 0 106 17l3 -3q0 -26 -11.5 -53.5t-28.5 -41.5
q-23 -16 -73 -22l-30 -42q31 -10 50 -33t19 -53q0 -48 -45.5 -81t-102.5 -35q-13 4 -23 19t-10 25q0 12 9 15q67 15 67 44q0 17 -20 27.5t-52 6.5v31z" />
    <glyph glyph-name="egrave" unicode="&#xe8;" horiz-adv-x="459" 
d="M415 118l3 -4q0 -35 -22.5 -69t-42.5 -42q-39 -15 -89 -15q-114 0 -174 58t-60 172q0 93 60 164t159 71q93 0 139 -53.5t46 -124.5q0 -23 -3 -34q-5 -22 -84 -43q-16 -5 -80.5 -6.5t-96.5 0.5q6 -52 42.5 -75t85.5 -23q66 0 117 24zM240 369h-1q-25 0 -46 -25t-22 -72
q45 -6 121 0q10 0 10 21q0 33 -15.5 54.5t-46.5 21.5zM203 698q17 -1 42 -55.5t35 -100.5q6 -16 -8 -26q-17 -11 -42 -15q-55 80 -119 143q-11 9 4 22q40 33 88 32z" />
    <glyph glyph-name="eacute" unicode="&#xe9;" horiz-adv-x="459" 
d="M415 118l3 -4q0 -35 -22.5 -69t-42.5 -42q-39 -15 -89 -15q-114 0 -174 58t-60 172q0 93 60 164t159 71q93 0 139 -53.5t46 -124.5q0 -23 -3 -34q-5 -22 -84 -43q-16 -5 -80.5 -6.5t-96.5 0.5q6 -52 42.5 -75t85.5 -23q66 0 117 24zM240 369h-1q-25 0 -46 -25t-22 -72
q45 -6 121 0q10 0 10 21q0 33 -15.5 54.5t-46.5 21.5zM272 696h1q43 1 81 -32q11 -8 -2 -22l-43 -49.5l-46 -55.5l-31 -38q-20 3 -42 16q-12 10 -3 29q15 50 39.5 100.5t45.5 51.5z" />
    <glyph glyph-name="ecircumflex" unicode="&#xea;" horiz-adv-x="459" 
d="M415 118l3 -4q0 -35 -22.5 -69t-42.5 -42q-39 -15 -89 -15q-114 0 -174 58t-60 172q0 93 60 164t159 71q93 0 139 -53.5t46 -124.5q0 -23 -3 -34q-5 -22 -84 -43q-16 -5 -80.5 -6.5t-96.5 0.5q6 -52 42.5 -75t85.5 -23q66 0 117 24zM240 369h-1q-25 0 -46 -25t-22 -72
q45 -6 121 0q10 0 10 21q0 33 -15.5 54.5t-46.5 21.5zM172 509h-1q-14 0 -66 14q72 98 99 147q7 14 23 17q17 4 49 4q47 -75 107 -162q-43 -20 -66 -20q-18 0 -22 10q-45 60 -53 73q-21 -38 -48 -66q-14 -17 -22 -17z" />
    <glyph glyph-name="edieresis" unicode="&#xeb;" horiz-adv-x="459" 
d="M415 118l3 -4q0 -35 -22.5 -69t-42.5 -42q-39 -15 -89 -15q-114 0 -174 58t-60 172q0 93 60 164t159 71q93 0 139 -53.5t46 -124.5q0 -23 -3 -34q-5 -22 -84 -43q-16 -5 -80.5 -6.5t-96.5 0.5q6 -52 42.5 -75t85.5 -23q66 0 117 24zM240 369h-1q-25 0 -46 -25t-22 -72
q45 -6 121 0q10 0 10 21q0 33 -15.5 54.5t-46.5 21.5zM141 669h1q25 0 42 -19.5t17 -44.5q0 -31 -18 -49.5t-47 -18.5q-25 0 -43.5 17t-18.5 47t18 49t49 19zM343 669h1q26 0 43 -18.5t17 -45.5q0 -31 -18 -49.5t-47 -18.5q-24 0 -43 17t-19 47t17.5 49t48.5 19z" />
    <glyph glyph-name="igrave" unicode="&#xec;" horiz-adv-x="265" 
d="M205 386v-362q0 -13 -7 -18.5t-28 -7.5q-29 -4 -111 -4q3 123 3 158v172q0 75 -4 111q50 13 126 13q13 0 17 -10.5t4 -51.5zM100 698q17 -1 42 -55.5t35 -100.5q6 -16 -8 -26q-17 -11 -42 -15q-55 80 -119 143q-11 9 4 22q40 33 88 32z" />
    <glyph glyph-name="iacute" unicode="&#xed;" horiz-adv-x="265" 
d="M205 386v-362q0 -13 -7 -18.5t-28 -7.5q-29 -4 -111 -4q3 123 3 158v172q0 75 -4 111q50 13 126 13q13 0 17 -10.5t4 -51.5zM163 696h1q43 1 81 -32q11 -8 -2 -22l-43 -49.5l-46 -55.5l-31 -38q-20 3 -42 16q-12 10 -3 29q15 50 39.5 100.5t45.5 51.5z" />
    <glyph glyph-name="icircumflex" unicode="&#xee;" horiz-adv-x="265" 
d="M205 386v-362q0 -13 -7 -18.5t-28 -7.5q-29 -4 -111 -4q3 123 3 158v172q0 75 -4 111q50 13 126 13q13 0 17 -10.5t4 -51.5zM61 509h-1q-14 0 -66 14q72 98 99 147q7 14 23 17q17 4 49 4q47 -75 107 -162q-42 -20 -66 -20q-18 0 -22 10q-45 60 -53 73q-21 -38 -48 -66
q-14 -17 -22 -17z" />
    <glyph glyph-name="idieresis" unicode="&#xef;" horiz-adv-x="265" 
d="M205 386v-362q0 -13 -7 -18.5t-28 -7.5q-29 -4 -111 -4q3 123 3 158v172q0 75 -4 111q50 13 126 13q13 0 17 -10.5t4 -51.5zM38 669h1q25 0 42 -19.5t17 -44.5q0 -31 -18 -49.5t-47 -18.5q-25 0 -43.5 17t-18.5 47t18 49t49 19zM240 669h1q26 0 43 -18.5t17 -45.5
q0 -31 -18 -49.5t-47 -18.5q-24 0 -43 17t-19 47t17.5 49t48.5 19z" />
    <glyph glyph-name="eth" unicode="&#xf0;" horiz-adv-x="523" 
d="M425 598l-61 -28q59 -60 92.5 -143.5t33.5 -168.5q0 -136 -67.5 -203t-168.5 -67q-96 0 -159.5 56.5t-63.5 171.5q0 104 66.5 170.5t169.5 66.5q26 0 45 -6q-11 32 -61 73l-128 -61q-17 -7 -21.5 -4.5t-4.5 14.5q0 46 11 57l81 41q-10 7 -25 14t-27 12l-25.5 10.5
t-16.5 6.5v4q11 22 35 42q15 19 35 19q8 0 24 -4t48 -18t67 -35l104 51q30 14 30 -7q0 -49 -13 -64zM273 362h-1q-42 0 -67.5 -37t-25.5 -104q0 -69 25 -105.5t57 -36.5q86 0 86 170q0 69 -16 96q-23 17 -58 17z" />
    <glyph glyph-name="ntilde" unicode="&#xf1;" horiz-adv-x="553" 
d="M349 15v250q0 36 -18.5 58t-49.5 22q-34 0 -71 -25v-294q0 -13 -4 -18t-21 -7q-47 -7 -121 -7q3 93 3 180v160q0 40 -19 53v8q9 21 38 39.5t53 18.5q26 0 42 -19t21 -45q77 64 138 64q39 0 67.5 -13.5t44.5 -33t25.5 -47t12 -50t2.5 -46.5v-111q0 -98 4 -150
q-100 -8 -123 -8q-24 0 -24 21zM230 683h1q32 0 63 -35q16 -22 24 -22q17 0 25 48q4 11 11 11q9 0 28.5 -4.5t27.5 -10.5q-12 -138 -87 -138q-33 0 -67 38q-21 23 -30 23q-15 -2 -26 -49q-2 -11 -9 -11q-34 0 -58 9q9 141 97 141z" />
    <glyph glyph-name="ograve" unicode="&#xf2;" horiz-adv-x="524" 
d="M267 453h1q103 0 164.5 -63.5t61.5 -162.5q0 -107 -65.5 -173t-171.5 -66q-97 0 -162 59t-65 169q0 104 67 170.5t170 66.5zM257 363h-1q-40 0 -59 -37.5t-19 -94.5q0 -74 25.5 -113.5t63.5 -39.5q79 0 79 137q0 37 -7 68t-28 55.5t-54 24.5zM227 698q17 -1 42 -55.5
t35 -100.5q6 -16 -8 -26q-17 -11 -42 -15q-55 80 -119 143q-11 9 4 22q40 33 88 32z" />
    <glyph glyph-name="oacute" unicode="&#xf3;" horiz-adv-x="524" 
d="M267 453h1q103 0 164.5 -63.5t61.5 -162.5q0 -107 -65.5 -173t-171.5 -66q-97 0 -162 59t-65 169q0 104 67 170.5t170 66.5zM257 363h-1q-40 0 -59 -37.5t-19 -94.5q0 -74 25.5 -113.5t63.5 -39.5q79 0 79 137q0 37 -7 68t-28 55.5t-54 24.5zM286 696h1q43 1 81 -32
q11 -8 -2 -22l-43 -49.5l-46 -55.5l-31 -38q-20 3 -42 16q-12 10 -3 29q15 50 39.5 100.5t45.5 51.5z" />
    <glyph glyph-name="ocircumflex" unicode="&#xf4;" horiz-adv-x="524" 
d="M267 453h1q103 0 164.5 -63.5t61.5 -162.5q0 -107 -65.5 -173t-171.5 -66q-97 0 -162 59t-65 169q0 104 67 170.5t170 66.5zM257 363h-1q-40 0 -59 -37.5t-19 -94.5q0 -74 25.5 -113.5t63.5 -39.5q79 0 79 137q0 37 -7 68t-28 55.5t-54 24.5zM198 509h-1q-14 0 -66 14
q72 98 99 147q7 14 23 17q17 4 49 4q47 -75 107 -162q-43 -20 -66 -20q-18 0 -22 10q-45 60 -53 73q-21 -38 -48 -66q-14 -17 -22 -17z" />
    <glyph glyph-name="otilde" unicode="&#xf5;" horiz-adv-x="524" 
d="M267 453h1q103 0 164.5 -63.5t61.5 -162.5q0 -107 -65.5 -173t-171.5 -66q-97 0 -162 59t-65 169q0 104 67 170.5t170 66.5zM257 363h-1q-40 0 -59 -37.5t-19 -94.5q0 -74 25.5 -113.5t63.5 -39.5q79 0 79 137q0 37 -7 68t-28 55.5t-54 24.5zM214 683h1q32 0 63 -35
q16 -22 24 -22q17 0 25 48q4 11 11 11q9 0 28.5 -4.5t27.5 -10.5q-12 -138 -87 -138q-33 0 -67 38q-21 23 -30 23q-15 -2 -26 -49q-2 -11 -9 -11q-34 0 -58 9q9 141 97 141z" />
    <glyph glyph-name="odieresis" unicode="&#xf6;" horiz-adv-x="524" 
d="M267 453h1q103 0 164.5 -63.5t61.5 -162.5q0 -107 -65.5 -173t-171.5 -66q-97 0 -162 59t-65 169q0 104 67 170.5t170 66.5zM257 363h-1q-40 0 -59 -37.5t-19 -94.5q0 -74 25.5 -113.5t63.5 -39.5q79 0 79 137q0 37 -7 68t-28 55.5t-54 24.5zM158 669h1q25 0 42 -19.5
t17 -44.5q0 -31 -18 -49.5t-47 -18.5q-25 0 -43.5 17t-18.5 47t18 49t49 19zM360 669h1q26 0 43 -18.5t17 -45.5q0 -31 -18 -49.5t-47 -18.5q-24 0 -43 17t-19 47t17.5 49t48.5 19z" />
    <glyph glyph-name="divide" unicode="&#xf7;" horiz-adv-x="608" 
d="M305 373h-1q-28 0 -45 19t-17 46t18 46.5t46 19.5q29 0 46 -19t17 -47t-18 -46.5t-46 -18.5zM509 211h-443q1 55 8 75.5t26 20.5h444q-1 -49 -8 -72.5t-27 -23.5zM303 145h1q28 0 45.5 -18t17.5 -47t-19 -47.5t-45 -18.5q-27 0 -45.5 18.5t-18.5 47.5q0 28 18.5 46.5
t45.5 18.5z" />
    <glyph glyph-name="oslash" unicode="&#xf8;" horiz-adv-x="530" 
d="M448 430l-23 -33q36 -28 54 -75.5t18 -98.5q0 -101 -64 -168t-163 -67q-69 0 -116 22l-27 -35l-1 -1v-1q-14 -19 -26 -3q-23 28 -25 39v0q0 -3 27 36q-71 59 -71 174q0 100 68 167t168 67q67 0 106 -22q20 26 20 28q11 16 18.5 17.5t15.5 -9.5q17 -19 21 -37zM182 155
l132 191q-20 22 -50 22q-48 0 -72 -41.5t-24 -99.5q0 -41 14 -72zM349 291l-134 -193q24 -24 55 -24q47 0 68.5 39.5t21.5 102.5q0 42 -11 75z" />
    <glyph glyph-name="ugrave" unicode="&#xf9;" horiz-adv-x="550" 
d="M62 161v163q0 73 -4 111q62 13 126 13q13 0 17 -10.5t4 -51.5v-209q0 -41 22 -59.5t51 -18.5q31 0 62 20v280q0 23 4 30t20 12q76 7 122 7q0 -2 -1.5 -65.5t-1.5 -115.5v-143q0 -25 9.5 -35.5t31.5 -15.5v-5q-1 -28 -24 -54t-45 -26q-42 0 -63.5 16t-33.5 46
q-31 -28 -74 -48q-33 -14 -63 -14q-81 0 -120 47t-39 126zM233 698q17 -1 42 -55.5t35 -100.5q6 -16 -8 -26q-17 -11 -42 -15q-55 80 -119 143q-11 9 4 22q40 33 88 32z" />
    <glyph glyph-name="uacute" unicode="&#xfa;" horiz-adv-x="550" 
d="M62 161v163q0 73 -4 111q62 13 126 13q13 0 17 -10.5t4 -51.5v-209q0 -41 22 -59.5t51 -18.5q31 0 62 20v280q0 23 4 30t20 12q76 7 122 7q0 -2 -1.5 -65.5t-1.5 -115.5v-143q0 -25 9.5 -35.5t31.5 -15.5v-5q-1 -28 -24 -54t-45 -26q-42 0 -63.5 16t-33.5 46
q-31 -28 -74 -48q-33 -14 -63 -14q-81 0 -120 47t-39 126zM309 696h1q43 1 81 -32q11 -8 -2 -22l-43 -49.5l-46 -55.5l-31 -38q-20 3 -42 16q-12 10 -3 29q15 50 39.5 100.5t45.5 51.5z" />
    <glyph glyph-name="ucircumflex" unicode="&#xfb;" horiz-adv-x="550" 
d="M62 161v163q0 73 -4 111q62 13 126 13q13 0 17 -10.5t4 -51.5v-209q0 -41 22 -59.5t51 -18.5q31 0 62 20v280q0 23 4 30t20 12q76 7 122 7q0 -2 -1.5 -65.5t-1.5 -115.5v-143q0 -25 9.5 -35.5t31.5 -15.5v-5q-1 -28 -24 -54t-45 -26q-42 0 -63.5 16t-33.5 46
q-31 -28 -74 -48q-33 -14 -63 -14q-81 0 -120 47t-39 126zM198 512h-1q-14 0 -66 14q72 98 99 147q7 14 23 17q17 4 49 4q47 -75 107 -162q-43 -20 -66 -20q-18 0 -22 10q-45 60 -53 73q-21 -37 -48 -66q-14 -17 -22 -17z" />
    <glyph glyph-name="udieresis" unicode="&#xfc;" horiz-adv-x="550" 
d="M62 161v163q0 73 -4 111q62 13 126 13q13 0 17 -10.5t4 -51.5v-209q0 -41 22 -59.5t51 -18.5q31 0 62 20v280q0 23 4 30t20 12q76 7 122 7q0 -2 -1.5 -65.5t-1.5 -115.5v-143q0 -25 9.5 -35.5t31.5 -15.5v-5q-1 -28 -24 -54t-45 -26q-42 0 -63.5 16t-33.5 46
q-31 -28 -74 -48q-33 -14 -63 -14q-81 0 -120 47t-39 126zM173 669h1q25 0 42 -19.5t17 -44.5q0 -31 -18 -49.5t-47 -18.5q-25 0 -43.5 17t-18.5 47t18 49t49 19zM375 669h1q26 0 43 -18.5t17 -45.5q0 -31 -18 -49.5t-47 -18.5q-24 0 -43 17t-19 47t17.5 49t48.5 19z" />
    <glyph glyph-name="yacute" unicode="&#xfd;" horiz-adv-x="453" 
d="M58 -154v6q23 26 60.5 79.5t59.5 94.5q-15 24 -21 40q-98 264 -143 357q25 12 61.5 21t57.5 9q10 0 17 -5.5t9.5 -10.5t7.5 -17q42 -112 84 -254q63 171 79 287q38 -2 83 -11q21 -5 26 -16t0 -30q-42 -189 -128 -366q-43 -88 -90 -158.5t-65 -70.5q-28 0 -57.5 15
t-40.5 30zM278 696h1q43 1 81 -32q11 -8 -2 -22l-43 -49.5l-46 -55.5l-31 -38q-20 3 -42 16q-12 10 -3 29q15 50 39.5 100.5t45.5 51.5z" />
    <glyph glyph-name="thorn" unicode="&#xfe;" horiz-adv-x="540" 
d="M204 -1v-183q0 -15 -4.5 -20.5t-20.5 -7.5q-48 -6 -121 -6q3 75 3 164v382v223q0 63 -4 103q14 6 59.5 13.5t65.5 7.5q13 0 17 -11t4 -54v-207q28 19 41 27t36.5 15.5t49.5 7.5q84 0 133 -61t49 -152q0 -109 -68.5 -180.5t-175.5 -71.5q-37 0 -64 11zM204 322v-233
q19 -9 46 -9q55 0 84.5 42.5t29.5 102.5q0 49 -25.5 83.5t-66.5 34.5q-35 0 -68 -21z" />
    <glyph glyph-name="ydieresis" unicode="&#xff;" horiz-adv-x="453" 
d="M58 -154v6q23 26 60.5 79.5t59.5 94.5q-15 24 -21 40q-98 264 -143 357q25 12 61.5 21t57.5 9q10 0 17 -5.5t9.5 -10.5t7.5 -17q42 -112 84 -254q63 171 79 287q38 -2 83 -11q21 -5 26 -16t0 -30q-42 -189 -128 -366q-43 -88 -90 -158.5t-65 -70.5q-28 0 -57.5 15
t-40.5 30zM138 669h1q25 0 42 -19.5t17 -44.5q0 -31 -18 -49.5t-47 -18.5q-25 0 -43.5 17t-18.5 47t18 49t49 19zM340 669h1q26 0 43 -18.5t17 -45.5q0 -31 -18 -49.5t-47 -18.5q-24 0 -43 17t-19 47t17.5 49t48.5 19z" />
    <glyph glyph-name="Amacron" unicode="&#x100;" horiz-adv-x="646" 
d="M421 153h-211q-17 -41 -54 -143q-7 -16 -32 -16q-63 0 -111 13v4l240 587l-6 17q65 13 126 13q16 0 24 -19q44 -106 150 -383q61 -158 87 -216v-4q-39 -12 -132 -12q-14 0 -22 6.5t-15 26.5q-7 22 -21.5 62.5zM242 254h149l-46 131.5t-29 82.5zM437 681h-226
q-15 0 -15 18q0 16 7 42.5t12 32.5h231q14 0 14 -16q0 -19 -7.5 -43t-15.5 -34z" />
    <glyph glyph-name="amacron" unicode="&#x101;" horiz-adv-x="473" 
d="M454 92l1 -4q0 -100 -96 -100q-62 0 -89 52q-50 -52 -111 -52q-51 0 -91 36.5t-40 94.5q0 29 12 52t28 37.5t43 26.5t47.5 17.5t50.5 12.5l32.5 6.5l27.5 5.5v8q0 27 -19 45t-53 18q-33 0 -80 -21q-38 -13 -55 7t-17 56q89 63 189 63q71 0 121.5 -44.5t50.5 -126.5
q0 -17 -2.5 -75.5t-2.5 -94.5q0 -8 9.5 -15t24.5 -6q15 0 19 1zM161 137v-1q0 -21 15 -33.5t37 -12.5q27 0 45 17q9 11 9 38v55q-60 -5 -83 -23.5t-23 -39.5zM341 540h-219q-15 0 -15 17t7 43.5t12 31.5h224q13 0 13 -15q0 -20 -7 -44t-15 -33z" />
    <glyph glyph-name="Abreve" unicode="&#x102;" horiz-adv-x="646" 
d="M421 153h-211q-17 -41 -54 -143q-7 -16 -32 -16q-63 0 -111 13v4l240 587l-6 17q65 13 126 13q16 0 24 -19q44 -106 150 -383q61 -158 87 -216v-4q-39 -12 -132 -12q-14 0 -22 6.5t-15 26.5q-7 22 -21.5 62.5zM242 254h149l-46 131.5t-29 82.5zM253 810h1q10 0 13 -15
q9 -54 53 -54q48 0 63 55q4 14 16 14q9 0 23 -2t26 -7t11 -10q-8 -60 -45.5 -94.5t-95.5 -34.5q-62 0 -96 36.5t-33 89.5q0 11 22 16.5t42 5.5z" />
    <glyph glyph-name="abreve" unicode="&#x103;" horiz-adv-x="473" 
d="M454 92l1 -4q0 -100 -96 -100q-62 0 -89 52q-50 -52 -111 -52q-51 0 -91 36.5t-40 94.5q0 29 12 52t28 37.5t43 26.5t47.5 17.5t50.5 12.5l32.5 6.5l27.5 5.5v8q0 27 -19 45t-53 18q-33 0 -80 -21q-38 -13 -55 7t-17 56q89 63 189 63q71 0 121.5 -44.5t50.5 -126.5
q0 -17 -2.5 -75.5t-2.5 -94.5q0 -8 9.5 -15t24.5 -6q15 0 19 1zM161 137v-1q0 -21 15 -33.5t37 -12.5q27 0 45 17q9 11 9 38v55q-60 -5 -83 -23.5t-23 -39.5zM176 677h1q8 0 8 -11q10 -62 49 -62q25 0 37.5 16.5t19.5 47.5q0 9 13 9q16 0 38 -6t21 -14q-14 -135 -137 -135
q-55 0 -85 36t-29 96q0 11 22.5 17t41.5 6z" />
    <glyph glyph-name="Aogonek" unicode="&#x104;" horiz-adv-x="646" 
d="M421 153h-211q-5 -12 -26 -69t-28 -74q-6 -16 -32 -16q-61 0 -107 13l-2 7l238 584l-6 17q65 13 127 13q15 0 23 -19q44 -106 150 -383q71 -182 85 -211l-2 -9q-32 -14 -65 -52.5t-33 -79.5q0 -27 14.5 -41t38.5 -14q33 0 55 11l6 -5q0 -12 -5 -32t-10 -26
q-12 -13 -43 -25t-64 -12q-51 0 -80 31t-29 79q0 36 25.5 77t67.5 77q-18 0 -27 7t-15 26q-9 28 -24 68.5zM242 254h150l-47 133t-29 81q-50 -150 -74 -214z" />
    <glyph glyph-name="aogonek" unicode="&#x105;" horiz-adv-x="473" 
d="M455 94v-48q-6 -31 -46 -49q-47 -33 -64 -62.5t-17 -64.5q0 -22 16 -36.5t39 -14.5q26 0 54 10l5 -5q0 -12 -4.5 -31.5t-9.5 -25.5q-12 -14 -43 -25.5t-64 -11.5q-51 0 -80 31t-29 78q0 38 28 81t74 76q-28 13 -44 44q-50 -52 -111 -52q-51 0 -91 36.5t-40 93.5
q0 29 13.5 52.5t29.5 37t47.5 27t49 18.5t51.5 14l27.5 5.5l22.5 4.5v7q0 28 -19 46t-53 18q-33 0 -80 -21q-38 -13 -55 7t-17 56q89 63 189 63q71 0 121.5 -44.5t50.5 -126.5q0 -17 -2.5 -77t-2.5 -96q0 -7 7.5 -13t20.5 -6q18 0 26 4zM161 137v-1q0 -21 14.5 -33.5
t36.5 -12.5q28 0 46 17q9 11 9 38v55q-60 -5 -83 -23.5t-23 -39.5z" />
    <glyph glyph-name="Cacute" unicode="&#x106;" horiz-adv-x="601" 
d="M566 117l5 -2q-8 -64 -36 -95q-55 -35 -144 -35q-171 0 -264 86.5t-93 233.5q0 153 103 244t258 91q63 0 117.5 -16.5t68.5 -33.5q1 -36 -19 -59t-52 -14q-56 22 -116 22q-91 0 -147.5 -57t-56.5 -167q0 -97 62 -160.5t171 -63.5q62 0 143 26zM453 835q38 -9 52 -72
q2 -12 -16 -19q-31 -9 -67.5 -22l-73.5 -27t-50 -18q-3 3 -20 29q-12 21 7 35q38 32 90.5 63t77.5 31z" />
    <glyph glyph-name="cacute" unicode="&#x107;" horiz-adv-x="436" 
d="M417 112l3 -4q-1 -24 -11.5 -51t-25.5 -42q-45 -27 -119 -27q-108 0 -170.5 60.5t-62.5 159.5q0 108 71.5 176.5t180.5 68.5q52 0 89.5 -13t50.5 -27q-1 -33 -17 -55t-48 -17q-44 11 -69 11q-50 0 -82 -32.5t-32 -91.5q0 -65 38 -99.5t94 -34.5q65 0 110 18zM298 696h1
q43 1 81 -32q11 -8 -2 -22l-43 -49.5l-46 -55.5l-31 -38q-20 3 -42 16q-12 10 -3 29q15 50 39.5 100.5t45.5 51.5z" />
    <glyph glyph-name="Ccircumflex" unicode="&#x108;" horiz-adv-x="601" 
d="M566 117l5 -2q-8 -64 -36 -95q-55 -35 -144 -35q-171 0 -264 86.5t-93 233.5q0 153 103 244t258 91q63 0 117.5 -16.5t68.5 -33.5q1 -36 -19 -59t-52 -14q-56 22 -116 22q-91 0 -147.5 -57t-56.5 -167q0 -97 62 -160.5t171 -63.5q62 0 143 26zM273 675h-1q-20 0 -39 13
t-23 26q63 41 117 105q9 10 21 13q19 4 46 4q54 -66 124 -123q-7 -11 -24.5 -24.5t-32.5 -13.5q-17 0 -28 7q-23 15 -69 56q-36 -33 -72 -55q-16 -8 -19 -8z" />
    <glyph glyph-name="ccircumflex" unicode="&#x109;" horiz-adv-x="436" 
d="M417 112l3 -4q-1 -24 -11.5 -51t-25.5 -42q-45 -27 -119 -27q-108 0 -170.5 60.5t-62.5 159.5q0 108 71.5 176.5t180.5 68.5q52 0 89.5 -13t50.5 -27q-1 -33 -17 -55t-48 -17q-44 11 -69 11q-50 0 -82 -32.5t-32 -91.5q0 -65 38 -99.5t94 -34.5q65 0 110 18zM186 509h-1
q-14 0 -66 14q72 98 99 147q7 14 23 17q17 4 49 4q47 -75 107 -162q-42 -20 -66 -20q-18 0 -22 10q-45 60 -53 73q-21 -38 -48 -66q-14 -17 -22 -17z" />
    <glyph glyph-name="Cdotaccent" unicode="&#x10a;" horiz-adv-x="601" 
d="M566 117l5 -2q-8 -64 -36 -95q-55 -35 -144 -35q-171 0 -264 86.5t-93 233.5q0 153 103 244t258 91q63 0 117.5 -16.5t68.5 -33.5q1 -36 -19 -59t-52 -14q-56 22 -116 22q-91 0 -147.5 -57t-56.5 -167q0 -97 62 -160.5t171 -63.5q62 0 143 26zM367 820h1q25 0 42 -18.5
t17 -44.5q0 -32 -18 -50.5t-48 -18.5q-25 0 -44 17t-19 47t18 49t51 19z" />
    <glyph glyph-name="cdotaccent" unicode="&#x10b;" horiz-adv-x="436" 
d="M417 112l3 -4q-1 -24 -11.5 -51t-25.5 -42q-45 -27 -119 -27q-108 0 -170.5 60.5t-62.5 159.5q0 108 71.5 176.5t180.5 68.5q52 0 89.5 -13t50.5 -27q-1 -33 -17 -55t-48 -17q-44 11 -69 11q-50 0 -82 -32.5t-32 -91.5q0 -65 38 -99.5t94 -34.5q65 0 110 18zM262 671h1
q26 0 43.5 -19t17.5 -46q0 -32 -18.5 -50.5t-50.5 -18.5q-24 0 -43 17t-19 48t17.5 50t51.5 19z" />
    <glyph glyph-name="Ccaron" unicode="&#x10c;" horiz-adv-x="601" 
d="M566 117l5 -2q-8 -64 -36 -95q-55 -35 -144 -35q-171 0 -264 86.5t-93 233.5q0 153 103 244t258 91q63 0 117.5 -16.5t68.5 -33.5q1 -36 -19 -59t-52 -14q-56 22 -116 22q-91 0 -147.5 -57t-56.5 -167q0 -97 62 -160.5t171 -63.5q62 0 143 26zM460 843h1q19 0 37.5 -12.5
t23.5 -25.5q-65 -43 -115 -103q-8 -9 -22 -14q-19 -4 -47 -4q-52 65 -123 122q8 11 25 24t32 13q17 0 28 -7q25 -16 69 -55q32 31 71 54q16 8 20 8z" />
    <glyph glyph-name="ccaron" unicode="&#x10d;" horiz-adv-x="436" 
d="M417 112l3 -4q-1 -24 -11.5 -51t-25.5 -42q-45 -27 -119 -27q-108 0 -170.5 60.5t-62.5 159.5q0 108 71.5 176.5t180.5 68.5q52 0 89.5 -13t50.5 -27q-1 -33 -17 -55t-48 -17q-44 11 -69 11q-50 0 -82 -32.5t-32 -91.5q0 -65 38 -99.5t94 -34.5q65 0 110 18zM325 690h1
q13 0 61 -14q-68 -100 -92 -148q-8 -14 -21 -16q-16 -4 -45 -4l-100 162q40 20 62 20q15 0 20 -10q2 -2 21 -30t28 -43q24 42 45 66q12 17 20 17z" />
    <glyph glyph-name="Dcaron" unicode="&#x10e;" horiz-adv-x="675" 
d="M73 8v490q0 62 -2 112q108 20 218 20q86 0 151 -20t102.5 -50.5t61 -73.5t31 -82t7.5 -82q0 -157 -102.5 -244.5t-262.5 -87.5q-111 0 -204 18zM220 533v-443q30 -6 66 -6q23 0 46.5 4.5t52.5 19.5t50 39t36 68.5t15 103.5q0 107 -56.5 162t-155.5 55q-24 0 -54 -3z
M408 829h1q19 0 37.5 -12.5t23.5 -25.5q-65 -43 -115 -103q-8 -9 -22 -14q-19 -4 -47 -4q-52 65 -123 122q8 11 25 24t32 13q17 0 28 -7q25 -16 69 -55q32 31 71 54q16 8 20 8z" />
    <glyph glyph-name="dcaron" unicode="&#x10f;" horiz-adv-x="546" 
d="M338 445v102q0 72 -5 107q16 6 61.5 13.5t64.5 7.5q13 0 17 -11t4 -55v-488q0 -24 10 -33.5t31 -14.5v-5q-3 -28 -24.5 -54t-45.5 -26q-70 0 -96 51q-28 -21 -63.5 -36t-60.5 -15q-93 0 -146.5 61t-53.5 157q0 110 72 178.5t181 68.5q36 0 54 -8zM338 107v247
q-16 9 -48 9q-46 0 -78.5 -35t-32.5 -102q0 -62 31.5 -96.5t79.5 -34.5q28 0 48 12zM660 693h1q23 0 34 -22t11 -50q0 -44 -22 -84t-58 -64q-40 -27 -114 -25q36 42 49.5 78t13.5 88q0 29 -11 51q54 28 96 28z" />
    <glyph glyph-name="Dcroat" unicode="&#x110;" horiz-adv-x="695" 
d="M84 611l127 13q72 6 98 6q86 0 151 -21t102.5 -52.5t61 -75.5t31 -83.5t7.5 -82.5q0 -151 -111 -245q-95 -80 -248 -80q-81 0 -217 21v268h-80q4 39 13.5 59t18 23.5t23.5 3.5h25v132q0 62 -2 114zM233 531v-166h159q-10 -55 -27 -70.5t-49 -15.5h-83v-187q29 -8 71 -8
q24 0 47.5 4.5t52.5 20t50.5 40t36.5 68.5t15 102q0 104 -56.5 160.5t-151.5 56.5q-38 0 -65 -5z" />
    <glyph glyph-name="dcroat" unicode="&#x111;" horiz-adv-x="547" 
d="M338 446v57h-108q4 28 17.5 50.5t28.5 22.5h62q-1 45 -5 78q16 6 61.5 13.5t64.5 7.5q13 0 17 -11t4 -55v-33h81q-6 -31 -22 -52t-41 -21h-18v-380q0 -24 10 -35t31 -17v-9q-6 -25 -26.5 -49.5t-43.5 -24.5q-69 0 -96 52q-71 -52 -119 -52q-97 0 -151 60t-54 156
q0 107 70.5 178t178.5 71q32 0 58 -7zM338 108v242q-19 13 -49 13q-45 0 -77.5 -36t-32.5 -104q0 -62 31 -95.5t76 -33.5q32 0 52 14z" />
    <glyph glyph-name="Emacron" unicode="&#x112;" horiz-adv-x="495" 
d="M73 24v461q0 81 -3 126q59 12 134 14h241q-8 -63 -34 -94q-17 -7 -102 -7h-89v-152h214q-8 -61 -24 -81t-45 -20h-145v-171q40 -5 79 -5q120 0 173 3l2 -2q-15 -69 -59 -97q-25 -5 -143 -5q-135 0 -183 10zM372 683h-226q-15 0 -15 18q0 16 7 42.5t12 32.5h231
q14 0 14 -16q0 -19 -7.5 -43t-15.5 -34z" />
    <glyph glyph-name="emacron" unicode="&#x113;" horiz-adv-x="459" 
d="M415 118l3 -4q0 -35 -22.5 -69t-42.5 -42q-39 -15 -89 -15q-114 0 -174 58t-60 172q0 93 60 164t159 71q93 0 139 -53.5t46 -124.5q0 -23 -3 -34q-5 -22 -84 -43q-16 -5 -80.5 -6.5t-96.5 0.5q6 -52 42.5 -75t85.5 -23q66 0 117 24zM240 369h-1q-25 0 -46 -25t-22 -72
q45 -6 121 0q10 0 10 21q0 33 -15.5 54.5t-46.5 21.5zM343 542h-219q-15 0 -15 17t7 43.5t12 31.5h224q13 0 13 -15q0 -20 -7 -44t-15 -33z" />
    <glyph glyph-name="Ebreve" unicode="&#x114;" horiz-adv-x="495" 
d="M73 24v461q0 81 -3 126q59 12 134 14h241q-8 -63 -34 -94q-17 -7 -102 -7h-89v-152h214q-8 -61 -24 -81t-45 -20h-145v-171q40 -5 79 -5q120 0 173 3l2 -2q-15 -69 -59 -97q-25 -5 -143 -5q-135 0 -183 10zM192 814h1q10 0 13 -15q9 -54 53 -54q48 0 63 55q4 14 16 14
q9 0 23 -2t26 -7t11 -10q-8 -60 -45.5 -94.5t-95.5 -34.5q-62 0 -96 36.5t-33 89.5q0 11 22 16.5t42 5.5z" />
    <glyph glyph-name="ebreve" unicode="&#x115;" horiz-adv-x="459" 
d="M415 118l3 -4q0 -35 -22.5 -69t-42.5 -42q-39 -15 -89 -15q-114 0 -174 58t-60 172q0 93 60 164t159 71q93 0 139 -53.5t46 -124.5q0 -23 -3 -34q-5 -22 -84 -43q-16 -5 -80.5 -6.5t-96.5 0.5q6 -52 42.5 -75t85.5 -23q66 0 117 24zM240 369h-1q-25 0 -46 -25t-22 -72
q45 -6 121 0q10 0 10 21q0 33 -15.5 54.5t-46.5 21.5zM175 677h1q8 0 8 -11q10 -62 49 -62q25 0 37.5 16.5t19.5 47.5q0 9 13 9q16 0 38 -6t21 -14q-14 -135 -137 -135q-55 0 -85 36t-29 96q0 11 22.5 17t41.5 6z" />
    <glyph glyph-name="Edotaccent" unicode="&#x116;" horiz-adv-x="495" 
d="M73 24v461q0 81 -3 126q59 12 134 14h241q-8 -63 -34 -94q-17 -7 -102 -7h-89v-152h214q-8 -61 -24 -81t-45 -20h-145v-171q40 -5 79 -5q120 0 173 3l2 -2q-15 -69 -59 -97q-25 -5 -143 -5q-135 0 -183 10zM255 810h1q25 0 42 -18.5t17 -44.5q0 -32 -18 -50.5t-48 -18.5
q-25 0 -44 17t-19 47t18 49t51 19z" />
    <glyph glyph-name="edotaccent" unicode="&#x117;" horiz-adv-x="459" 
d="M415 118l3 -4q0 -35 -22.5 -69t-42.5 -42q-39 -15 -89 -15q-114 0 -174 58t-60 172q0 93 60 164t159 71q93 0 139 -53.5t46 -124.5q0 -23 -3 -34q-5 -22 -84 -43q-16 -5 -80.5 -6.5t-96.5 0.5q6 -52 42.5 -75t85.5 -23q66 0 117 24zM240 369h-1q-25 0 -46 -25t-22 -72
q45 -6 121 0q10 0 10 21q0 33 -15.5 54.5t-46.5 21.5zM236 671h1q26 0 43.5 -19t17.5 -46q0 -32 -18.5 -50.5t-50.5 -18.5q-24 0 -43 17t-19 48t17.5 50t51.5 19z" />
    <glyph glyph-name="Eogonek" unicode="&#x118;" horiz-adv-x="485" 
d="M407 -170l5 -5q0 -12 -5 -32t-9 -26q-13 -13 -44 -25t-63 -12q-52 0 -81 31t-29 79q0 38 27 80t73 74h-9q-135 0 -183 10l-16 20v461q0 81 -3 126q59 12 134 14h231q-8 -63 -34 -94q-17 -7 -92 -7h-89v-152h204q-13 -66 -26 -83.5t-43 -17.5h-135v-171q40 -5 84 -5
q105 0 158 3l2 -2q-15 -69 -59 -97q-11 -2 -28 -3q-46 -34 -63 -63t-17 -63q0 -22 15.5 -36.5t38.5 -14.5q32 0 56 11z" />
    <glyph glyph-name="eogonek" unicode="&#x119;" horiz-adv-x="458" 
d="M371 -170l5 -5q0 -12 -5 -32t-9 -26q-13 -13 -44 -25t-63 -12q-52 0 -81 31t-29 79q0 36 25 76.5t68 72.5q-100 5 -154 64t-54 163q0 94 60 165.5t158 71.5q93 0 138.5 -52t47.5 -126q0 -23 -3 -34q-5 -22 -84 -43q-16 -5 -80.5 -6.5t-96.5 0.5q4 -51 40 -74.5t92 -23.5
q54 0 114 24l3 -4q-1 -27 -17 -56.5t-33 -40.5q-108 -74 -108 -143q0 -24 14.5 -39.5t39.5 -15.5q32 0 56 11zM239 369h-1q-23 0 -44.5 -24.5t-22.5 -72.5q45 -6 121 0q10 0 10 21q0 33 -16 54.5t-47 21.5z" />
    <glyph glyph-name="Ecaron" unicode="&#x11a;" horiz-adv-x="495" 
d="M73 24v461q0 81 -3 126q59 12 134 14h241q-8 -63 -34 -94q-17 -7 -102 -7h-89v-152h214q-8 -61 -24 -81t-45 -20h-145v-171q40 -5 79 -5q120 0 173 3l2 -2q-15 -69 -59 -97q-25 -5 -143 -5q-135 0 -183 10zM351 829h1q19 0 37.5 -12.5t23.5 -25.5q-65 -43 -115 -103
q-8 -9 -22 -14q-19 -4 -47 -4q-52 65 -123 122q8 11 25 24t32 13q17 0 28 -7q25 -16 69 -55q32 31 71 54q16 8 20 8z" />
    <glyph glyph-name="ecaron" unicode="&#x11b;" horiz-adv-x="459" 
d="M415 118l3 -4q0 -35 -22.5 -69t-42.5 -42q-39 -15 -89 -15q-114 0 -174 58t-60 172q0 93 60 164t159 71q93 0 139 -53.5t46 -124.5q0 -23 -3 -34q-5 -22 -84 -43q-16 -5 -80.5 -6.5t-96.5 0.5q6 -52 42.5 -75t85.5 -23q66 0 117 24zM240 369h-1q-25 0 -46 -25t-22 -72
q45 -6 121 0q10 0 10 21q0 33 -15.5 54.5t-46.5 21.5zM304 692h1q13 0 61 -14q-68 -100 -92 -148q-8 -14 -21 -16q-16 -4 -45 -4l-100 162q40 20 62 20q15 0 20 -10q2 -2 21 -30t28 -43q24 42 45 66q12 17 20 17z" />
    <glyph glyph-name="Gcircumflex" unicode="&#x11c;" horiz-adv-x="653" 
d="M456 86v135q0 19 -2 45t-2 30q117 15 126 15q14 0 19.5 -6t5.5 -21v-221q-37 -32 -87 -56q-64 -22 -137 -22q-52 0 -99 9.5t-93 33t-79 59.5t-53.5 92.5t-20.5 128.5q0 152 103.5 242t255.5 90q72 0 128.5 -18t81.5 -40q0 -41 -24 -61.5t-55 -11.5q-64 26 -133 26
q-91 0 -146 -56.5t-55 -162.5q0 -112 61 -174.5t147 -62.5q37 0 58 7zM267 677h-1q-20 0 -39 13t-23 26q63 41 117 105q9 10 21 13q19 4 46 4q54 -66 124 -123q-7 -11 -24.5 -24.5t-32.5 -13.5q-17 0 -28 7q-23 15 -69 56q-36 -33 -72 -55q-16 -8 -19 -8z" />
    <glyph glyph-name="gcircumflex" unicode="&#x11d;" horiz-adv-x="462" 
d="M227 453h1q40 0 82 -9q10 -2 29 -5.5l32.5 -6t23.5 -2.5q45 0 77 10q5 -10 5 -29q0 -57 -48 -66q-16 -2 -29 -2q8 -21 8 -47q0 -73 -51 -110.5t-132 -37.5q-20 0 -32 2q-12 -12 -12 -18q0 -22 38 -26q11 -1 118 -9q70 -4 102 -37.5t32 -82.5q0 -87 -74 -137.5t-176 -50.5
q-88 0 -147 37t-59 94q0 47 90 89q-24 10 -42.5 33.5t-19.5 55.5q0 8 12 14q51 32 70 53q-37 11 -64 43t-27 86q0 71 55 115t138 44zM226 376h-1q-28 0 -43.5 -22.5t-15.5 -52.5q0 -37 18 -57t46 -20q24 0 41 21t17 53q0 33 -15 55.5t-47 22.5zM141 -59v-1q0 -27 32 -43.5
t79 -16.5q42 0 69 14t27 40q0 38 -63 47q-38 6 -88 6q-25 0 -37 -8q-19 -13 -19 -38zM159 509h-1q-14 0 -66 14q72 98 99 147q7 14 23 17q17 4 49 4q47 -75 107 -162q-42 -20 -66 -20q-18 0 -22 10q-45 60 -53 73q-21 -38 -48 -66q-14 -17 -22 -17z" />
    <glyph glyph-name="Gbreve" unicode="&#x11e;" horiz-adv-x="653" 
d="M456 86v135q0 19 -2 45t-2 30q117 15 126 15q14 0 19.5 -6t5.5 -21v-221q-37 -32 -87 -56q-64 -22 -137 -22q-52 0 -99 9.5t-93 33t-79 59.5t-53.5 92.5t-20.5 128.5q0 152 103.5 242t255.5 90q72 0 128.5 -18t81.5 -40q0 -41 -24 -61.5t-55 -11.5q-64 26 -133 26
q-91 0 -146 -56.5t-55 -162.5q0 -112 61 -174.5t147 -62.5q37 0 58 7zM295 826h1q10 0 13 -15q9 -54 53 -54q48 0 63 55q4 14 16 14q9 0 23 -2t26 -7t11 -10q-8 -60 -45.5 -94.5t-95.5 -34.5q-62 0 -96 36.5t-33 89.5q0 11 22 16.5t42 5.5z" />
    <glyph glyph-name="gbreve" unicode="&#x11f;" horiz-adv-x="462" 
d="M227 453h1q40 0 82 -9q10 -2 29 -5.5l32.5 -6t23.5 -2.5q45 0 77 10q5 -10 5 -29q0 -57 -48 -66q-16 -2 -29 -2q8 -21 8 -47q0 -73 -51 -110.5t-132 -37.5q-20 0 -32 2q-12 -12 -12 -18q0 -22 38 -26q11 -1 118 -9q70 -4 102 -37.5t32 -82.5q0 -87 -74 -137.5t-176 -50.5
q-88 0 -147 37t-59 94q0 47 90 89q-24 10 -42.5 33.5t-19.5 55.5q0 8 12 14q51 32 70 53q-37 11 -64 43t-27 86q0 71 55 115t138 44zM226 376h-1q-28 0 -43.5 -22.5t-15.5 -52.5q0 -37 18 -57t46 -20q24 0 41 21t17 53q0 33 -15 55.5t-47 22.5zM141 -59v-1q0 -27 32 -43.5
t79 -16.5q42 0 69 14t27 40q0 38 -63 47q-38 6 -88 6q-25 0 -37 -8q-19 -13 -19 -38zM170 677h1q8 0 8 -11q10 -62 49 -62q25 0 37.5 16.5t19.5 47.5q0 9 13 9q16 0 38 -6t21 -14q-14 -135 -137 -135q-55 0 -85 36t-29 96q0 11 22.5 17t41.5 6z" />
    <glyph glyph-name="Gdotaccent" unicode="&#x120;" horiz-adv-x="653" 
d="M456 86v135q0 19 -2 45t-2 30q117 15 126 15q14 0 19.5 -6t5.5 -21v-221q-37 -32 -87 -56q-64 -22 -137 -22q-52 0 -99 9.5t-93 33t-79 59.5t-53.5 92.5t-20.5 128.5q0 152 103.5 242t255.5 90q72 0 128.5 -18t81.5 -40q0 -41 -24 -61.5t-55 -11.5q-64 26 -133 26
q-91 0 -146 -56.5t-55 -162.5q0 -112 61 -174.5t147 -62.5q37 0 58 7zM371 818h1q25 0 42 -18.5t17 -44.5q0 -32 -18 -50.5t-48 -18.5q-25 0 -44 17t-19 47t18 49t51 19z" />
    <glyph glyph-name="gdotaccent" unicode="&#x121;" horiz-adv-x="462" 
d="M227 453h1q40 0 82 -9q10 -2 29 -5.5l32.5 -6t23.5 -2.5q45 0 77 10q5 -10 5 -29q0 -57 -48 -66q-16 -2 -29 -2q8 -21 8 -47q0 -73 -51 -110.5t-132 -37.5q-20 0 -32 2q-12 -12 -12 -18q0 -22 38 -26q11 -1 118 -9q70 -4 102 -37.5t32 -82.5q0 -87 -74 -137.5t-176 -50.5
q-88 0 -147 37t-59 94q0 47 90 89q-24 10 -42.5 33.5t-19.5 55.5q0 8 12 14q51 32 70 53q-37 11 -64 43t-27 86q0 71 55 115t138 44zM226 376h-1q-28 0 -43.5 -22.5t-15.5 -52.5q0 -37 18 -57t46 -20q24 0 41 21t17 53q0 33 -15 55.5t-47 22.5zM141 -59v-1q0 -27 32 -43.5
t79 -16.5q42 0 69 14t27 40q0 38 -63 47q-38 6 -88 6q-25 0 -37 -8q-19 -13 -19 -38zM235 671h1q26 0 43.5 -19t17.5 -46q0 -32 -18.5 -50.5t-50.5 -18.5q-24 0 -43 17t-19 48t17.5 50t51.5 19z" />
    <glyph glyph-name="Gcommaaccent" unicode="&#x122;" horiz-adv-x="653" 
d="M456 86v135q0 19 -2 45t-2 30q117 15 126 15q14 0 19.5 -6t5.5 -21v-221q-37 -32 -87 -56q-64 -22 -137 -22q-52 0 -99 9.5t-93 33t-79 59.5t-53.5 92.5t-20.5 128.5q0 152 103.5 242t255.5 90q72 0 128.5 -18t81.5 -40q0 -41 -24 -61.5t-55 -11.5q-64 26 -133 26
q-91 0 -146 -56.5t-55 -162.5q0 -112 61 -174.5t147 -62.5q37 0 58 7zM403 -49h1q23 0 34 -22t11 -50q0 -44 -22 -84t-58 -64q-40 -27 -114 -25q36 42 49.5 78t13.5 88q0 29 -11 51q54 28 96 28z" />
    <glyph glyph-name="gcommaaccent" unicode="&#x123;" horiz-adv-x="470" 
d="M199 489h-1q-23 0 -34 22t-11 50q0 43 22 83.5t58 65.5q40 27 114 25q-35 -42 -49 -78.5t-14 -88.5q0 -29 11 -51q-58 -28 -96 -28zM228 453h1q39 0 81 -9q10 -2 29 -5.5l32.5 -6t23.5 -2.5q45 0 77 10q5 -10 5 -29q0 -57 -48 -66q-16 -2 -29 -2q8 -21 8 -47
q0 -73 -51 -110.5t-132 -37.5q-20 0 -32 2q-12 -12 -12 -18q0 -22 37 -26q3 0 121 -9q71 -4 103 -37.5t32 -82.5q0 -87 -75.5 -137.5t-178.5 -50.5q-88 0 -148 37t-60 94q0 22 17.5 41t32.5 27.5t40 20.5q-24 10 -42.5 33.5t-18.5 55.5q0 8 11 14q58 37 73 53q-37 11 -64 43
t-27 86q0 71 55.5 115t138.5 44zM226 376h-1q-28 0 -43.5 -22.5t-15.5 -52.5q0 -37 18 -57t46 -20q24 0 41 21t17 53q0 33 -15 55.5t-47 22.5zM138 -59v-1q0 -27 33.5 -44.5t80.5 -17.5q41 0 69 14.5t28 41.5q0 38 -63 47q-38 6 -92 6q-25 0 -37 -8q-19 -13 -19 -38z" />
    <glyph glyph-name="Hcircumflex" unicode="&#x124;" horiz-adv-x="676" 
d="M220 377h235v220q0 16 6 21.5t21 5.5q14 1 123 4q-3 -57 -3 -180v-323q0 -63 3 -123q-37 -8 -125 -8q-14 0 -19.5 4t-5.5 17v263q-30 -3 -99 -3h-136v-249q0 -16 -7.5 -21t-27.5 -7q-63 -6 -115 -4q3 60 3 183v316q0 99 -3 127q51 8 127 8q15 0 19 -10.5t4 -44.5v-196z
M248 661h-1q-20 0 -39 13t-23 26q63 41 117 105q9 10 21 13q19 4 46 4q54 -66 124 -123q-7 -11 -24.5 -24.5t-32.5 -13.5q-17 0 -28 7q-23 15 -69 56q-36 -33 -72 -55q-16 -8 -19 -8z" />
    <glyph glyph-name="hcircumflex" unicode="&#x125;" horiz-adv-x="548" 
d="M205 609v-209q67 53 133 53q67 0 107.5 -46t40.5 -131v-130q0 -86 3 -144q-92 -8 -122 -8q-24 0 -24 23v250q0 35 -18 56.5t-50 21.5q-36 0 -70 -23v-293q0 -15 -4.5 -21t-20.5 -8q-49 -6 -121 -6q3 93 3 179v376q0 63 -4 105q13 6 59.5 13.5t66.5 7.5q13 0 17 -11t4 -55
zM36 703h-1q-20 0 -39 13t-23 26q63 41 117 105q9 10 21 13q19 4 46 4q54 -66 124 -123q-7 -11 -24.5 -24.5t-32.5 -13.5q-17 0 -28 7q-23 15 -69 56q-36 -33 -72 -55q-16 -8 -19 -8z" />
    <glyph glyph-name="Hbar" unicode="&#x126;" horiz-adv-x="683" 
d="M73 408h-73q4 30 17.5 58t28.5 28h27q0 103 -3 126q51 8 127 8q15 0 19 -10.5t4 -44.5v-79h243v103q0 16 6 21.5t21 5.5q14 1 123 4q-3 -45 -3 -134h78q-8 -35 -24.5 -60.5t-40.5 -25.5h-13v-283q0 -63 3 -123q-37 -8 -125 -8q-14 0 -19.5 4t-5.5 17v206q-30 -3 -99 -3
h-144v-192q0 -16 -7.5 -21t-27.5 -7q-63 -6 -115 -4q3 60 3 183v231zM463 408h-243v-88h243v88z" />
    <glyph glyph-name="hbar" unicode="&#x127;" horiz-adv-x="548" 
d="M205 609v-33h117q-7 -32 -23.5 -52.5t-41.5 -20.5h-52v-103q64 53 133 53q67 0 107.5 -45.5t40.5 -126.5v-135q0 -84 3 -144q-92 -8 -122 -8q-24 0 -24 23v253q0 36 -19.5 55.5t-47.5 19.5q-42 0 -71 -24v-292q0 -15 -4.5 -21t-20.5 -8q-49 -6 -121 -6q3 93 3 179v330
h-71q4 28 17.5 50.5t28.5 22.5h25q-1 54 -4 78q13 6 59.5 13.5t66.5 7.5q13 0 17 -11t4 -55z" />
    <glyph glyph-name="Itilde" unicode="&#x128;" horiz-adv-x="293" 
d="M73 14v479q0 99 -3 127q56 8 127 8q15 0 19 -10.5t4 -45.5v-447q0 -63 3 -123q-29 -8 -125 -8q-14 0 -19.5 4t-5.5 16zM104 826h1q33 0 62 -37q19 -23 26 -23q15 0 25 49q3 11 11 11q7 0 25.5 -5t27.5 -10q-13 -135 -85 -135q-30 0 -66 40q-21 24 -31 24q-15 -1 -26 -49
q-2 -11 -8 -11q-33 0 -57 9q11 137 95 137z" />
    <glyph glyph-name="itilde" unicode="&#x129;" horiz-adv-x="265" 
d="M205 386v-362q0 -13 -7 -18.5t-28 -7.5q-29 -4 -111 -4q3 123 3 158v172q0 75 -4 111q50 13 126 13q13 0 17 -10.5t4 -51.5zM92 683h1q32 0 63 -35q16 -22 24 -22q17 0 25 48q4 11 11 11q9 0 28.5 -4.5t27.5 -10.5q-12 -138 -87 -138q-33 0 -67 38q-21 23 -30 23
q-15 -2 -26 -49q-2 -11 -9 -11q-34 0 -58 9q9 141 97 141z" />
    <glyph glyph-name="Imacron" unicode="&#x12a;" horiz-adv-x="293" 
d="M73 14v479q0 99 -3 127q56 8 127 8q15 0 19 -10.5t4 -45.5v-447q0 -63 3 -123q-29 -8 -125 -8q-14 0 -19.5 4t-5.5 16zM259 682h-226q-15 0 -15 18q0 16 7 42.5t12 32.5h231q14 0 14 -16q0 -19 -7.5 -43t-15.5 -34z" />
    <glyph glyph-name="imacron" unicode="&#x12b;" horiz-adv-x="265" 
d="M205 386v-362q0 -13 -7 -18.5t-28 -7.5q-29 -4 -111 -4q3 123 3 158v172q0 75 -4 111q50 13 126 13q13 0 17 -10.5t4 -51.5zM239 542h-219q-15 0 -15 17t7 43.5t12 31.5h224q13 0 13 -15q0 -20 -7 -44t-15 -33z" />
    <glyph glyph-name="Ibreve" unicode="&#x12c;" horiz-adv-x="293" 
d="M73 14v479q0 99 -3 127q56 8 127 8q15 0 19 -10.5t4 -45.5v-447q0 -63 3 -123q-29 -8 -125 -8q-14 0 -19.5 4t-5.5 16zM77 810h1q10 0 13 -15q9 -54 53 -54q48 0 63 55q4 14 16 14q9 0 23 -2t26 -7t11 -10q-8 -60 -45.5 -94.5t-95.5 -34.5q-62 0 -96 36.5t-33 89.5
q0 11 22 16.5t42 5.5z" />
    <glyph glyph-name="ibreve" unicode="&#x12d;" horiz-adv-x="265" 
d="M205 386v-362q0 -13 -7 -18.5t-28 -7.5q-29 -4 -111 -4q3 123 3 158v172q0 75 -4 111q50 13 126 13q13 0 17 -10.5t4 -51.5zM72 677h1q8 0 8 -11q10 -62 49 -62q25 0 37.5 16.5t19.5 47.5q0 9 13 9q16 0 38 -6t21 -14q-14 -135 -137 -135q-55 0 -85 36t-29 96
q0 11 22.5 17t41.5 6z" />
    <glyph glyph-name="Iogonek" unicode="&#x12e;" horiz-adv-x="293" 
d="M220 572v-447q0 -63 3 -123q-36 -24 -58 -59.5t-22 -71.5q0 -22 16 -37t39 -15q32 0 56 11l5 -5q0 -12 -5 -32t-9 -26q-13 -13 -44 -25t-63 -12q-52 0 -81 30.5t-29 78.5q0 86 87 155h-17q-14 0 -19.5 4t-5.5 16v479q0 99 -3 127q56 8 127 8q15 0 19 -10.5t4 -45.5z" />
    <glyph glyph-name="iogonek" unicode="&#x12f;" horiz-adv-x="265" 
d="M136 671h1q31 0 50.5 -20.5t19.5 -52.5t-21 -54.5t-52 -22.5q-30 0 -52 18t-22 55q0 38 24.5 57.5t51.5 19.5zM240 -170l6 -5q0 -12 -5 -32t-10 -26q-12 -13 -44.5 -25t-64.5 -12q-52 0 -80 31t-28 80q0 45 25 85.5t59 66.5q-5 0 -19 0.5t-20 0.5q3 123 3 158v172
q0 75 -4 111q50 13 126 13q13 0 17 -10.5t4 -51.5v-359q0 -12 -19 -31q-56 -53 -56 -122q0 -24 14.5 -39.5t39.5 -15.5q32 0 56 11z" />
    <glyph glyph-name="Idotaccent" unicode="&#x130;" horiz-adv-x="293" 
d="M73 14v479q0 99 -3 127q56 8 127 8q15 0 19 -10.5t4 -45.5v-447q0 -63 3 -123q-29 -8 -125 -8q-14 0 -19.5 4t-5.5 16zM151 810h1q25 0 42 -18.5t17 -44.5q0 -32 -18 -50.5t-48 -18.5q-25 0 -44 17t-19 47t18 49t51 19z" />
    <glyph glyph-name="dotlessi" unicode="&#x131;" horiz-adv-x="265" 
d="M205 386v-362q0 -13 -7 -18.5t-28 -7.5q-29 -4 -111 -4q3 123 3 158v172q0 75 -4 111q50 13 126 13q13 0 17 -10.5t4 -51.5z" />
    <glyph glyph-name="IJ" unicode="&#x132;" horiz-adv-x="586" 
d="M73 14v479q0 99 -3 127q56 8 127 8q15 0 19 -10.5t4 -45.5v-447q0 -63 3 -123q-29 -8 -125 -8q-14 0 -19.5 4t-5.5 16zM366 151v343q0 99 -3 126q85 8 127 8q15 0 19 -10.5t4 -43.5v-422q0 -94 -14 -143t-48 -85q-24 -25 -61.5 -40t-70.5 -15q-24 0 -43 20t-25 49l2 3
q65 11 89 51t24 159z" />
    <glyph glyph-name="ij" unicode="&#x133;" horiz-adv-x="531" 
d="M136 668h1q31 0 50.5 -20.5t19.5 -52.5t-21 -54.5t-52 -22.5q-30 0 -52 18t-22 55q0 38 24.5 57.5t51.5 19.5zM205 386v-362q0 -13 -7 -18.5t-28 -7.5q-29 -4 -111 -4q3 123 3 158v172q0 75 -4 111q50 13 126 13q13 0 17 -10.5t4 -51.5zM401 668h1q31 0 50.5 -22
t19.5 -54q0 -33 -21 -53.5t-53 -20.5q-29 0 -51 18t-22 55q0 38 24.5 57.5t51.5 19.5zM216 -148l2 3q44 15 65 36.5t32.5 74.5t11.5 154v206q0 73 -4 109q50 13 126 13q13 0 17 -10.5t4 -52.5v-286q0 -170 -65 -248q-52 -62 -124 -62q-24 0 -42.5 17t-22.5 46z" />
    <glyph glyph-name="Jcircumflex" unicode="&#x134;" horiz-adv-x="293" 
d="M73 151v343q0 99 -3 126q85 8 127 8q15 0 19 -10.5t4 -43.5v-422q0 -94 -14 -143t-48 -85q-24 -25 -61.5 -40t-70.5 -15q-24 0 -43 20t-25 49l2 3q65 11 89 51t24 159zM57 661h-1q-20 0 -39 13t-23 26q63 41 117 105q9 10 21 13q19 4 46 4q54 -66 124 -123
q-7 -11 -24.5 -24.5t-32.5 -13.5q-17 0 -28 7q-23 15 -69 56q-36 -33 -72 -55q-16 -8 -19 -8z" />
    <glyph glyph-name="jcircumflex" unicode="&#x135;" horiz-adv-x="265" 
d="M-49 -148l2 3q44 15 65 36.5t32.5 74.5t11.5 154v206q0 73 -4 109q50 13 126 13q13 0 17 -10.5t4 -52.5v-286q0 -170 -65 -248q-52 -62 -124 -62q-24 0 -42.5 17t-22.5 46zM61 509h-1q-14 0 -66 14q72 98 99 147q7 14 23 17q17 4 49 4q47 -75 107 -162q-42 -20 -66 -20
q-18 0 -22 10q-45 60 -53 73q-21 -38 -48 -66q-14 -17 -22 -17z" />
    <glyph glyph-name="Kcommaaccent" unicode="&#x136;" horiz-adv-x="606" 
d="M73 14v479q0 99 -3 127q56 8 127 8q15 0 19 -10.5t4 -44.5v-254q150 189 235 313q50 0 86 -7q31 -5 35 -17.5t-12 -33.5q-21 -31 -194 -246q33 -55 110.5 -160.5t121.5 -155.5v-5q-7 -5 -43 -10t-77 -5q-27 0 -45 9.5t-41 39.5q-39 51 -103.5 145t-72.5 114v-175
q0 -63 3 -123q-29 -8 -125 -8q-14 0 -19.5 4t-5.5 16zM350 -39h1q23 0 34 -22t11 -50q0 -44 -22 -84t-58 -64q-40 -27 -114 -25q36 42 49.5 78t13.5 88q0 29 -11 51q54 28 96 28z" />
    <glyph glyph-name="kcommaaccent" unicode="&#x137;" horiz-adv-x="492" 
d="M205 609v-381l95 121.5t77 103.5q33 1 84 -8q42 -9 14 -46q-75 -96 -127 -156q22 -40 70 -111.5t86 -119.5l-2 -4q-32 -16 -101 -16q-28 0 -44 9t-36 37q-80 109 -116 179v-193q0 -15 -7 -19.5t-28 -6.5q-47 -5 -111 -4q3 62 3 184v371q0 69 -4 111q45 15 126 15
q13 0 17 -11t4 -55zM293 -39h1q23 0 34 -22t11 -50q0 -44 -22 -84t-58 -64q-40 -27 -114 -25q36 42 49.5 78t13.5 88q0 29 -11 51q54 28 96 28z" />
    <glyph glyph-name="kgreenlandic" unicode="&#x138;" horiz-adv-x="492" 
d="M205 387v-160q28 33 92 118.5t78 107.5q33 1 84 -8q40 -9 14 -47q-35 -47 -125 -154q56 -101 159 -232l-1 -4q-34 -16 -103 -16q-28 0 -44 9t-36 36q-71 96 -118 178v-191q0 -15 -7 -19.5t-28 -6.5q-47 -5 -111 -4q3 62 3 184v149q0 69 -4 111q45 15 126 15q13 0 17 -11
t4 -55z" />
    <glyph glyph-name="Lacute" unicode="&#x139;" horiz-adv-x="463" 
d="M73 24v467q0 97 -3 129q67 8 127 8q15 0 19 -11.5t4 -49.5v-465q31 -7 79 -7q100 0 154 5l2 -2q-13 -69 -59 -99q-25 -5 -132 -5q-127 0 -175 10zM251 828q38 -9 52 -72q2 -12 -16 -19q-31 -9 -67.5 -22l-73.5 -27t-50 -18q-3 3 -20 29q-12 21 7 35q38 32 90.5 63
t77.5 31z" />
    <glyph glyph-name="lacute" unicode="&#x13a;" horiz-adv-x="265" 
d="M62 5v546q0 63 -4 103q14 6 59.5 13.5t65.5 7.5q14 0 18 -10.5t4 -54.5v-478q0 -74 4 -132q-37 -8 -133 -8q-14 0 -14 13zM243 870q38 -9 52 -72q2 -12 -16 -19q-31 -9 -67.5 -22l-73.5 -27t-50 -18q-3 3 -20 29q-12 21 7 35q38 32 90.5 63t77.5 31z" />
    <glyph glyph-name="Lcommaaccent" unicode="&#x13b;" horiz-adv-x="463" 
d="M73 24v467q0 97 -3 129q67 8 127 8q15 0 19 -11.5t4 -49.5v-465q31 -7 79 -7q100 0 154 5l2 -2q-13 -69 -59 -99q-25 -5 -132 -5q-127 0 -175 10zM290 -41h1q23 0 34 -22t11 -50q0 -44 -22 -84t-58 -64q-40 -27 -114 -25q36 42 49.5 78t13.5 88q0 29 -11 51q54 28 96 28z
" />
    <glyph glyph-name="lcommaaccent" unicode="&#x13c;" horiz-adv-x="265" 
d="M62 5v546q0 63 -4 103q14 6 59.5 13.5t65.5 7.5q14 0 18 -10.5t4 -54.5v-478q0 -74 4 -132q-37 -8 -133 -8q-14 0 -14 13zM169 -41h1q23 0 34 -22t11 -50q0 -44 -22 -84t-58 -64q-40 -27 -114 -25q36 42 49.5 78t13.5 88q0 29 -11 51q54 28 96 28z" />
    <glyph glyph-name="Lcaron" unicode="&#x13d;" horiz-adv-x="463" 
d="M73 24v467q0 97 -3 129q67 8 127 8q15 0 19 -11.5t4 -49.5v-465q31 -7 79 -7q100 0 154 5l2 -2q-13 -69 -59 -99q-25 -5 -132 -5q-127 0 -175 10zM424 657h1q23 0 34 -22t11 -50q0 -44 -22 -84t-58 -64q-40 -27 -114 -25q36 42 49.5 78t13.5 88q0 29 -11 51q54 28 96 28z
" />
    <glyph glyph-name="lcaron" unicode="&#x13e;" horiz-adv-x="265" 
d="M62 5v546q0 63 -4 103q14 6 59.5 13.5t65.5 7.5q14 0 18 -10.5t4 -54.5v-478q0 -74 4 -132q-37 -8 -133 -8q-14 0 -14 13zM371 689h1q23 0 34 -22t11 -50q0 -44 -22 -84t-58 -64q-40 -27 -114 -25q36 42 49.5 78t13.5 88q0 29 -11 51q54 28 96 28z" />
    <glyph glyph-name="Ldot" unicode="&#x13f;" horiz-adv-x="463" 
d="M73 24v467q0 97 -3 129q67 8 127 8q15 0 19 -11.5t4 -49.5v-465q31 -7 79 -7q100 0 154 5l2 -2q-13 -69 -59 -99q-25 -5 -132 -5q-127 0 -175 10zM369 444h1q25 0 42 -18.5t17 -44.5q0 -32 -18 -50.5t-48 -18.5q-25 0 -44 17t-19 47t18 49t51 19z" />
    <glyph glyph-name="ldot" unicode="&#x140;" horiz-adv-x="317" 
d="M62 5v546q0 63 -4 103q14 6 59.5 13.5t65.5 7.5q14 0 18 -10.5t4 -54.5v-478q0 -74 4 -132q-37 -8 -133 -8q-14 0 -14 13zM296 396h1q29 0 47.5 -22.5t18.5 -54.5q0 -36 -19.5 -58t-52.5 -22q-27 0 -47 19t-20 56q0 36 18.5 59t53.5 23z" />
    <glyph glyph-name="Lslash" unicode="&#x141;" horiz-adv-x="480" 
d="M89 24v217l-49 -33q-21 -20 -21 10q0 49 11 57l59 39v177q0 97 -3 129q64 8 126 8q15 0 19.5 -11t4.5 -47v-177l101 68q16 11 16 -10q0 -42 -14 -64l-103 -74v-211q32 -7 79 -7q99 0 153 5l2 -2q-13 -66 -61 -99q-23 -5 -132 -5q-125 0 -173 10z" />
    <glyph glyph-name="lslash" unicode="&#x142;" horiz-adv-x="282" 
d="M268 381l-49 -34v-215q0 -74 4 -132q-40 -8 -133 -8q-14 0 -14 13v274l-43 -28q-10 -6 -13.5 -4.5t-3.5 13.5q-1 13 2.5 34t7.5 27l50 33v197q0 63 -4 103q14 6 59.5 13.5t66.5 7.5q13 0 17 -11t4 -54v-184l48 32q14 7 14 -11q0 -46 -13 -66z" />
    <glyph glyph-name="Nacute" unicode="&#x143;" horiz-adv-x="676" 
d="M73 592l-14 22v6q56 8 147 8q13 0 29 -18q69 -105 159 -260q79 -133 97 -171q-7 53 -7 139v279q0 16 5.5 21.5t17.5 5.5q45 4 100 4q-3 -65 -3 -184v-439q-10 -4 -51 -10.5t-63 -6.5q-19 0 -31 17q-19 28 -151 244q-26 42 -45 77t-41.5 81.5t-34.5 68.5q6 -76 6 -190
v-263q0 -14 -5 -18.5t-20 -6.5q-34 -6 -98 -4q3 60 3 182v416zM446 826q38 -9 52 -72q2 -12 -16 -19q-31 -9 -67.5 -22l-73.5 -27t-50 -18q-3 3 -20 29q-12 21 7 35q38 32 90.5 63t77.5 31z" />
    <glyph glyph-name="nacute" unicode="&#x144;" horiz-adv-x="553" 
d="M349 15v250q0 36 -18.5 58t-49.5 22q-34 0 -71 -25v-294q0 -13 -4 -18t-21 -7q-47 -7 -121 -7q3 93 3 180v160q0 40 -19 53v8q9 21 38 39.5t53 18.5q26 0 42 -19t21 -45q77 64 138 64q39 0 67.5 -13.5t44.5 -33t25.5 -47t12 -50t2.5 -46.5v-111q0 -98 4 -150
q-100 -8 -123 -8q-24 0 -24 21zM317 696h1q43 1 81 -32q11 -8 -2 -22l-43 -49.5l-46 -55.5l-31 -38q-20 3 -42 16q-12 10 -3 29q15 50 39.5 100.5t45.5 51.5z" />
    <glyph glyph-name="Ncommaaccent" unicode="&#x145;" horiz-adv-x="676" 
d="M73 592l-14 22v6q56 8 147 8q13 0 29 -18q69 -105 159 -260q79 -133 97 -171q-7 53 -7 139v279q0 16 5.5 21.5t17.5 5.5q45 4 100 4q-3 -65 -3 -184v-439q-10 -4 -51 -10.5t-63 -6.5q-19 0 -31 17q-19 28 -151 244q-26 42 -45 77t-41.5 81.5t-34.5 68.5q6 -76 6 -190
v-263q0 -14 -5 -18.5t-20 -6.5q-34 -6 -98 -4q3 60 3 182v416zM381 -41h1q23 0 34 -22t11 -50q0 -44 -22 -84t-58 -64q-40 -27 -114 -25q36 42 49.5 78t13.5 88q0 29 -11 51q54 28 96 28z" />
    <glyph glyph-name="ncommaaccent" unicode="&#x146;" horiz-adv-x="553" 
d="M349 15v250q0 36 -18.5 58t-49.5 22q-34 0 -71 -25v-294q0 -13 -4 -18t-21 -7q-47 -7 -121 -7q3 93 3 180v160q0 40 -19 53v8q9 21 38 39.5t53 18.5q26 0 42 -19t21 -45q77 64 138 64q39 0 67.5 -13.5t44.5 -33t25.5 -47t12 -50t2.5 -46.5v-111q0 -98 4 -150
q-100 -8 -123 -8q-24 0 -24 21zM317 -41h1q23 0 34 -22t11 -50q0 -44 -22 -84t-58 -64q-40 -27 -114 -25q36 42 49.5 78t13.5 88q0 29 -11 51q54 28 96 28z" />
    <glyph glyph-name="Ncaron" unicode="&#x147;" horiz-adv-x="676" 
d="M73 592l-14 22v6q56 8 147 8q13 0 29 -18q69 -105 159 -260q79 -133 97 -171q-7 53 -7 139v279q0 16 5.5 21.5t17.5 5.5q45 4 100 4q-3 -65 -3 -184v-439q-10 -4 -51 -10.5t-63 -6.5q-19 0 -31 17q-19 28 -151 244q-26 42 -45 77t-41.5 81.5t-34.5 68.5q6 -76 6 -190
v-263q0 -14 -5 -18.5t-20 -6.5q-34 -6 -98 -4q3 60 3 182v416zM435 819h1q19 0 37.5 -12.5t23.5 -25.5q-65 -43 -115 -103q-8 -9 -22 -14q-19 -4 -47 -4q-52 65 -123 122q8 11 25 24t32 13q17 0 28 -7q25 -16 69 -55q32 31 71 54q16 8 20 8z" />
    <glyph glyph-name="ncaron" unicode="&#x148;" horiz-adv-x="553" 
d="M349 15v250q0 36 -18.5 58t-49.5 22q-34 0 -71 -25v-294q0 -13 -4 -18t-21 -7q-47 -7 -121 -7q3 93 3 180v160q0 40 -19 53v8q9 21 38 39.5t53 18.5q26 0 42 -19t21 -45q77 64 138 64q39 0 67.5 -13.5t44.5 -33t25.5 -47t12 -50t2.5 -46.5v-111q0 -98 4 -150
q-100 -8 -123 -8q-24 0 -24 21zM344 690h1q13 0 61 -14q-68 -100 -92 -148q-8 -14 -21 -16q-16 -4 -45 -4l-100 162q40 20 62 20q15 0 20 -10q2 -2 21 -30t28 -43q24 42 45 66q12 17 20 17z" />
    <glyph glyph-name="napostrophe" unicode="&#x149;" horiz-adv-x="553" 
d="M349 15v250q0 36 -18.5 58t-49.5 22q-34 0 -71 -25v-294q0 -13 -4 -18t-21 -7q-47 -7 -121 -7q3 93 3 180v160q0 40 -19 53v8q9 21 38 39.5t53 18.5q26 0 42 -19t21 -45q77 64 138 64q39 0 67.5 -13.5t44.5 -33t25.5 -47t12 -50t2.5 -46.5v-111q0 -98 4 -150
q-100 -8 -123 -8q-24 0 -24 21zM116 714v-1q0 -45 -24 -94.5t-60 -75.5q-29 -23 -93 -21q52 80 52 181q0 25 -6 45q60 24 90 24q19 0 30 -16.5t11 -41.5z" />
    <glyph glyph-name="Eng" unicode="&#x14a;" horiz-adv-x="683" 
d="M358 -143l2 4q64 15 93 44t29 85q-64 92 -167 261q-64 105 -128 227q10 -127 10 -192v-263q0 -14 -5 -18.5t-20 -6.5q-35 -6 -102 -4q3 60 3 182v415l-14 20v9q56 8 144 8q13 0 29 -18q97 -139 169 -263q88 -148 97 -168q-11 83 -11 139v279q0 16 5.5 21.5t17.5 5.5
q45 4 104 4q-3 -65 -3 -184l1 -346q0 -113 -12.5 -161t-45.5 -87q-52 -61 -131 -61q-24 0 -42 19.5t-23 48.5z" />
    <glyph glyph-name="eng" unicode="&#x14b;" horiz-adv-x="553" 
d="M492 273v-173q0 -104 -13 -159t-44 -92q-52 -60 -130 -60q-24 0 -43.5 20.5t-24.5 49.5l2 3q22 5 27 6t22 8t22 14l15.5 22.5t13.5 36.5t6.5 52t3.5 72v196q0 35 -19.5 55.5t-48.5 20.5q-17 0 -38.5 -8t-32.5 -18v-293q0 -13 -4 -18t-21 -7q-47 -7 -121 -7q3 93 3 180
v170q0 37 -20 43q0 12 7 17q13 21 40.5 35.5t47.5 14.5q42 0 59 -65q40 32 70 48t65 16q39 0 68.5 -13t45.5 -32t26 -45t13 -47t3 -43z" />
    <glyph glyph-name="Omacron" unicode="&#x14c;" horiz-adv-x="719" 
d="M365 640h1q145 0 232 -91t87 -231q0 -141 -87.5 -237t-240.5 -96q-83 0 -147 28t-101 75.5t-55.5 103t-18.5 116.5q0 145 88.5 238.5t241.5 93.5zM353 546h-1q-68 0 -114 -56.5t-46 -167.5q0 -114 50 -178.5t127 -64.5t119.5 61t42.5 168q0 100 -45.5 169t-132.5 69z
M474 703h-226q-15 0 -15 18q0 16 7 42.5t12 32.5h231q14 0 14 -16q0 -19 -7.5 -43t-15.5 -34z" />
    <glyph glyph-name="omacron" unicode="&#x14d;" horiz-adv-x="524" 
d="M267 453h1q103 0 164.5 -63.5t61.5 -162.5q0 -107 -65.5 -173t-171.5 -66q-97 0 -162 59t-65 169q0 104 67 170.5t170 66.5zM257 363h-1q-40 0 -59 -37.5t-19 -94.5q0 -74 25.5 -113.5t63.5 -39.5q79 0 79 137q0 37 -7 68t-28 55.5t-54 24.5zM368 542h-219q-15 0 -15 17
t7 43.5t12 31.5h224q13 0 13 -15q0 -20 -7 -44t-15 -33z" />
    <glyph glyph-name="Obreve" unicode="&#x14e;" horiz-adv-x="719" 
d="M365 640h1q145 0 232 -91t87 -231q0 -141 -87.5 -237t-240.5 -96q-83 0 -147 28t-101 75.5t-55.5 103t-18.5 116.5q0 145 88.5 238.5t241.5 93.5zM353 546h-1q-68 0 -114 -56.5t-46 -167.5q0 -114 50 -178.5t127 -64.5t119.5 61t42.5 168q0 100 -45.5 169t-132.5 69z
M290 830h1q10 0 13 -15q9 -54 53 -54q48 0 63 55q4 14 16 14q9 0 23 -2t26 -7t11 -10q-8 -60 -45.5 -94.5t-95.5 -34.5q-62 0 -96 36.5t-33 89.5q0 11 22 16.5t42 5.5z" />
    <glyph glyph-name="obreve" unicode="&#x14f;" horiz-adv-x="524" 
d="M267 453h1q103 0 164.5 -63.5t61.5 -162.5q0 -107 -65.5 -173t-171.5 -66q-97 0 -162 59t-65 169q0 104 67 170.5t170 66.5zM257 363h-1q-40 0 -59 -37.5t-19 -94.5q0 -74 25.5 -113.5t63.5 -39.5q79 0 79 137q0 37 -7 68t-28 55.5t-54 24.5zM201 677h1q8 0 8 -11
q10 -62 49 -62q25 0 37.5 16.5t19.5 47.5q0 9 13 9q16 0 38 -6t21 -14q-14 -135 -137 -135q-55 0 -85 36t-29 96q0 11 22.5 17t41.5 6z" />
    <glyph glyph-name="Ohungarumlaut" unicode="&#x150;" horiz-adv-x="719" 
d="M365 640h1q145 0 232 -91t87 -231q0 -141 -87.5 -237t-240.5 -96q-83 0 -147 28t-101 75.5t-55.5 103t-18.5 116.5q0 145 88.5 238.5t241.5 93.5zM353 546h-1q-68 0 -114 -56.5t-46 -167.5q0 -114 50 -178.5t127 -64.5t119.5 61t42.5 168q0 100 -45.5 169t-132.5 69z
M311 826h1q41 0 73 -28q14 -9 1 -24l-86 -94q-6 -7 -15 -7q-7 0 -24 6.5t-21 11.5q7 37 28 86t43 49zM495 826h1q41 0 73 -28q13 -9 0 -24q-56 -64 -86 -94q-4 -7 -14 -7q-7 0 -24 6.5t-21 11.5q7 38 28 86.5t43 48.5z" />
    <glyph glyph-name="ohungarumlaut" unicode="&#x151;" horiz-adv-x="524" 
d="M267 453h1q103 0 164.5 -63.5t61.5 -162.5q0 -107 -65.5 -173t-171.5 -66q-97 0 -162 59t-65 169q0 104 67 170.5t170 66.5zM257 363h-1q-40 0 -59 -37.5t-19 -94.5q0 -74 25.5 -113.5t63.5 -39.5q79 0 79 137q0 37 -7 68t-28 55.5t-54 24.5zM214 710q19 1 42.5 -10
t30.5 -20t0 -22q-43 -57 -91 -155q-28 6 -41 15q-16 14 -14 29q7 57 28 109.5t45 53.5zM394 710q19 1 42 -9.5t31 -20.5q9 -9 0 -22q-43 -58 -90 -155q-9 2 -49 22q-7 4 -5 23q5 54 26 107.5t45 54.5z" />
    <glyph glyph-name="OE" unicode="&#x152;" horiz-adv-x="990" 
d="M721 372h208q-13 -65 -29 -83t-45 -18h-134v-171q40 -5 85 -5q109 0 162 3l2 -2q-13 -67 -60 -97q-25 -5 -132 -5q-131 0 -179 10l-16 20v49q-69 -88 -212 -88q-88 0 -155.5 29t-105.5 76t-57 100t-19 109q0 153 94.5 247t245.5 94q135 0 209 -85v57q39 9 126 13h231
q-8 -62 -35 -94q-17 -7 -92 -7h-92v-152zM190 318v-1q0 -102 50.5 -170t145.5 -68q86 0 143.5 61t57.5 173q0 117 -60 175t-145 58q-88 0 -140 -63t-52 -165z" />
    <glyph glyph-name="oe" unicode="&#x153;" horiz-adv-x="767" 
d="M722 116l1 -3q1 -38 -23 -70.5t-41 -40.5q-36 -14 -90 -14q-116 0 -168 58q-55 -58 -147 -58q-94 0 -159.5 56.5t-65.5 174.5q0 102 67.5 168t169.5 66q97 0 151 -63q58 63 145 63q88 0 132.5 -53.5t45.5 -121.5q0 -30 -3 -37q-4 -22 -80 -43q-38 -8 -183 -8
q5 -50 42.5 -73.5t93.5 -23.5q50 0 112 23zM546 369h-1q-26 0 -46 -24.5t-23 -73.5q47 -5 126 1q6 1 6 17q0 34 -15 57t-47 23zM260 364h-1q-40 0 -61 -37.5t-21 -92.5q0 -77 26.5 -116.5t64.5 -39.5q80 0 80 141q0 55 -21.5 100t-66.5 45z" />
    <glyph glyph-name="Racute" unicode="&#x154;" horiz-adv-x="566" 
d="M216 249v-225q0 -14 -5.5 -19t-19.5 -7q-39 -4 -121 -4q3 60 3 183v335q0 73 -2 101q20 4 84 10.5t95 6.5q131 0 193 -45t62 -139q0 -95 -116 -156q22 -21 85 -133q61 -105 97 -149v-5q-13 -11 -94 -11q-33 0 -53.5 8.5t-39.5 32.5q-24 31 -90 162q-17 34 -31.5 44
t-33.5 10q-1 0 -7 0.5t-6 -0.5zM216 540v-205q17 -3 48 -1.5t42 6.5q9 5 19 13.5t21 30.5t11 49q0 53 -29 81t-77 28q-24 0 -35 -2zM384 828q38 -9 52 -72q2 -12 -16 -19q-31 -9 -67.5 -22l-73.5 -27t-50 -18q-3 3 -20 29q-12 21 7 35q38 32 90.5 63t77.5 31z" />
    <glyph glyph-name="racute" unicode="&#x155;" horiz-adv-x="382" 
d="M44 391v6q11 20 39.5 38t49.5 18q67 0 67 -107q45 107 126 107q33 0 54 -21q4 -15 -1.5 -44t-18.5 -48q-6 -14 -17.5 -23.5t-24.5 -8.5q-23 8 -45 8q-14 0 -30.5 -11.5t-25.5 -36.5q-7 -21 -7 -46v-195q0 -13 -4.5 -19t-20.5 -8q-41 -6 -121 -6q3 93 3 180v170
q0 30 -23 47zM231 696h1q43 1 81 -32q11 -8 -2 -22l-43 -49.5l-46 -55.5l-31 -38q-20 3 -42 16q-12 10 -3 29q15 50 39.5 100.5t45.5 51.5z" />
    <glyph glyph-name="Rcommaaccent" unicode="&#x156;" horiz-adv-x="566" 
d="M216 249v-225q0 -14 -5.5 -19t-19.5 -7q-39 -4 -121 -4q3 60 3 183v335q0 73 -2 101q20 4 84 10.5t95 6.5q131 0 193 -45t62 -139q0 -95 -116 -156q22 -21 85 -133q61 -105 97 -149v-5q-13 -11 -94 -11q-33 0 -53.5 8.5t-39.5 32.5q-24 31 -90 162q-17 34 -31.5 44
t-33.5 10q-1 0 -7 0.5t-6 -0.5zM216 540v-205q17 -3 48 -1.5t42 6.5q9 5 19 13.5t21 30.5t11 49q0 53 -29 81t-77 28q-24 0 -35 -2zM330 -37h1q23 0 34 -22t11 -50q0 -44 -22 -84t-58 -64q-40 -27 -114 -25q36 42 49.5 78t13.5 88q0 29 -11 51q54 28 96 28z" />
    <glyph glyph-name="rcommaaccent" unicode="&#x157;" horiz-adv-x="382" 
d="M44 391v6q11 20 39.5 38t49.5 18q67 0 67 -107q45 107 126 107q33 0 54 -21q4 -15 -1.5 -44t-18.5 -48q-6 -14 -17.5 -23.5t-24.5 -8.5q-23 8 -45 8q-14 0 -30.5 -11.5t-25.5 -36.5q-7 -21 -7 -46v-195q0 -13 -4.5 -19t-20.5 -8q-41 -6 -121 -6q3 93 3 180v170
q0 30 -23 47zM157 -43h1q23 0 34 -22t11 -50q0 -44 -22 -84t-58 -64q-40 -27 -114 -25q36 42 49.5 78t13.5 88q0 29 -11 51q54 28 96 28z" />
    <glyph glyph-name="Rcaron" unicode="&#x158;" horiz-adv-x="566" 
d="M216 249v-225q0 -14 -5.5 -19t-19.5 -7q-39 -4 -121 -4q3 60 3 183v335q0 73 -2 101q20 4 84 10.5t95 6.5q131 0 193 -45t62 -139q0 -95 -116 -156q22 -21 85 -133q61 -105 97 -149v-5q-13 -11 -94 -11q-33 0 -53.5 8.5t-39.5 32.5q-24 31 -90 162q-17 34 -31.5 44
t-33.5 10q-1 0 -7 0.5t-6 -0.5zM216 540v-205q17 -3 48 -1.5t42 6.5q9 5 19 13.5t21 30.5t11 49q0 53 -29 81t-77 28q-24 0 -35 -2zM373 829h1q19 0 37.5 -12.5t23.5 -25.5q-65 -43 -115 -103q-8 -9 -22 -14q-19 -4 -47 -4q-52 65 -123 122q8 11 25 24t32 13q17 0 28 -7
q25 -16 69 -55q32 31 71 54q16 8 20 8z" />
    <glyph glyph-name="rcaron" unicode="&#x159;" horiz-adv-x="382" 
d="M44 391v6q11 20 39.5 38t49.5 18q67 0 67 -107q45 107 126 107q33 0 54 -21q4 -15 -1.5 -44t-18.5 -48q-6 -14 -17.5 -23.5t-24.5 -8.5q-23 8 -45 8q-14 0 -30.5 -11.5t-25.5 -36.5q-7 -21 -7 -46v-195q0 -13 -4.5 -19t-20.5 -8q-41 -6 -121 -6q3 93 3 180v170
q0 30 -23 47zM261 690h1q13 0 61 -14q-68 -100 -92 -148q-8 -14 -21 -16q-16 -4 -45 -4l-100 162q40 20 62 20q15 0 20 -10q2 -2 21 -30t28 -43q24 42 45 66q12 17 20 17z" />
    <glyph glyph-name="Sacute" unicode="&#x15a;" horiz-adv-x="470" 
d="M256 640h1q41 0 88.5 -15.5t68.5 -37.5q-1 -31 -19.5 -55.5t-49.5 -14.5q-49 21 -94 21q-36 0 -58 -15.5t-22 -42.5q0 -29 25.5 -51t100.5 -62q77 -40 109.5 -77.5t32.5 -105.5q0 -92 -69 -145.5t-166 -53.5q-90 0 -152 40q-28 18 -28 41q0 16 11 42.5t19 30.5
q79 -51 149 -51q42 0 67.5 17t25.5 51q0 29 -22 51t-92 57q-86 42 -116.5 89.5t-30.5 106.5q0 29 11 58t34.5 57.5t69 46.5t106.5 18zM345 829q38 -9 52 -72q2 -12 -16 -19q-31 -9 -67.5 -22l-73.5 -27t-50 -18q-3 3 -20 29q-12 21 7 35q38 32 90.5 63t77.5 31z" />
    <glyph glyph-name="sacute" unicode="&#x15b;" horiz-adv-x="378" 
d="M211 453h1q64 0 119 -36q0 -32 -14.5 -56t-44.5 -17q-37 13 -62 13q-18 0 -29.5 -7.5t-11.5 -20.5q0 -9 4.5 -15.5t10.5 -10.5t17 -10q10 -6 43 -21.5t38 -18.5q73 -40 73 -114q0 -72 -56 -111.5t-134 -39.5q-59 0 -102 24q-33 17 -33 45q0 37 25 66q62 -39 119 -39
q48 0 48 31q0 19 -31 36l-82 42q-70 38 -70 115q0 68 50 106.5t122 38.5zM229 696h1q43 1 81 -32q11 -8 -2 -22l-43 -49.5l-46 -55.5l-31 -38q-20 3 -42 16q-12 10 -3 29q15 50 39.5 100.5t45.5 51.5z" />
    <glyph glyph-name="Scircumflex" unicode="&#x15c;" horiz-adv-x="470" 
d="M256 640h1q41 0 88.5 -15.5t68.5 -37.5q-1 -31 -19.5 -55.5t-49.5 -14.5q-49 21 -94 21q-36 0 -58 -15.5t-22 -42.5q0 -29 25.5 -51t100.5 -62q77 -40 109.5 -77.5t32.5 -105.5q0 -92 -69 -145.5t-166 -53.5q-90 0 -152 40q-28 18 -28 41q0 16 11 42.5t19 30.5
q79 -51 149 -51q42 0 67.5 17t25.5 51q0 29 -22 51t-92 57q-86 42 -116.5 89.5t-30.5 106.5q0 29 11 58t34.5 57.5t69 46.5t106.5 18zM145 671h-1q-20 0 -39 13t-23 26q63 41 117 105q9 10 21 13q19 4 46 4q54 -66 124 -123q-7 -11 -24.5 -24.5t-32.5 -13.5q-17 0 -28 7
q-23 15 -69 56q-36 -33 -72 -55q-16 -8 -19 -8z" />
    <glyph glyph-name="scircumflex" unicode="&#x15d;" horiz-adv-x="378" 
d="M211 453h1q64 0 119 -36q0 -32 -14.5 -56t-44.5 -17q-37 13 -62 13q-18 0 -29.5 -7.5t-11.5 -20.5q0 -9 4.5 -15.5t10.5 -10.5t17 -10q10 -6 43 -21.5t38 -18.5q73 -40 73 -114q0 -72 -56 -111.5t-134 -39.5q-59 0 -102 24q-33 17 -33 45q0 37 25 66q62 -39 119 -39
q48 0 48 31q0 19 -31 36l-82 42q-70 38 -70 115q0 68 50 106.5t122 38.5zM107 509h-1q-14 0 -66 14q72 98 99 147q7 14 23 17q17 4 49 4q47 -75 107 -162q-42 -20 -66 -20q-18 0 -22 10q-45 60 -53 73q-21 -38 -48 -66q-14 -17 -22 -17z" />
    <glyph glyph-name="Scedilla" unicode="&#x15e;" horiz-adv-x="470" 
d="M139 -79l51 64q-83 3 -138 40q-28 19 -28 41q0 16 11.5 42t19.5 30q75 -50 147 -50q40 0 67 16.5t27 50.5q0 29 -22 52.5t-99 60.5q-83 40 -111.5 88.5t-28.5 103.5q0 29 11 58t34.5 57.5t69.5 46.5t107 18q41 0 89 -15.5t70 -38.5q-2 -31 -22 -56.5t-50 -13.5
q-40 22 -92 22q-36 0 -58.5 -15.5t-22.5 -41.5q0 -29 26 -50.5t102 -64.5q37 -20 57.5 -33.5t42.5 -35t31.5 -49t9.5 -63.5q0 -79 -49 -128.5t-124 -64.5l-28 -39q30 -9 48 -30.5t18 -48.5q0 -44 -42.5 -73.5t-96.5 -31.5q-13 3 -22 16t-9 23q0 11 9 13q65 14 65 42
q0 16 -20 25.5t-50 6.5v26z" />
    <glyph glyph-name="scedilla" unicode="&#x15f;" horiz-adv-x="378" 
d="M96 -85l56 73q-52 4 -89 24q-33 15 -33 45q0 37 25 67q58 -40 122 -40q45 0 45 31q0 19 -31 36l-86 43q-66 35 -66 114q0 68 50 106.5t122 38.5q65 0 120 -36q0 -32 -14.5 -56t-44.5 -17q-37 13 -62 13q-41 0 -41 -28q0 -9 4.5 -15.5t10.5 -10.5t17 -10q10 -6 43 -21.5
t38 -18.5q73 -40 73 -114q0 -53 -32 -89t-85 -52l-35 -49q31 -10 50 -33t19 -53q0 -48 -45.5 -81t-102.5 -35q-13 4 -23 19t-10 25q0 12 10 15q66 15 66 44q0 17 -20 27.5t-51 6.5v31z" />
    <glyph glyph-name="Scaron" unicode="&#x160;" horiz-adv-x="470" 
d="M256 640h1q41 0 88.5 -15.5t68.5 -37.5q-1 -31 -19.5 -55.5t-49.5 -14.5q-49 21 -94 21q-36 0 -58 -15.5t-22 -42.5q0 -29 25.5 -51t100.5 -62q77 -40 109.5 -77.5t32.5 -105.5q0 -92 -69 -145.5t-166 -53.5q-90 0 -152 40q-28 18 -28 41q0 16 11 42.5t19 30.5
q79 -51 149 -51q42 0 67.5 17t25.5 51q0 29 -22 51t-92 57q-86 42 -116.5 89.5t-30.5 106.5q0 29 11 58t34.5 57.5t69 46.5t106.5 18zM331 839h1q19 0 37.5 -12.5t23.5 -25.5q-65 -43 -115 -103q-8 -9 -22 -14q-19 -4 -47 -4q-52 65 -123 122q8 11 25 24t32 13q17 0 28 -7
q25 -16 69 -55q32 31 71 54q16 8 20 8z" />
    <glyph glyph-name="scaron" unicode="&#x161;" horiz-adv-x="378" 
d="M211 453h1q64 0 119 -36q0 -32 -14.5 -56t-44.5 -17q-37 13 -62 13q-18 0 -29.5 -7.5t-11.5 -20.5q0 -9 4.5 -15.5t10.5 -10.5t17 -10q10 -6 43 -21.5t38 -18.5q73 -40 73 -114q0 -72 -56 -111.5t-134 -39.5q-59 0 -102 24q-33 17 -33 45q0 37 25 66q62 -39 119 -39
q48 0 48 31q0 19 -31 36l-82 42q-70 38 -70 115q0 68 50 106.5t122 38.5zM256 690h1q13 0 61 -14q-68 -100 -92 -148q-8 -14 -21 -16q-16 -4 -45 -4l-100 162q40 20 62 20q15 0 20 -10q2 -2 21 -30t28 -43q24 42 45 66q12 17 20 17z" />
    <glyph glyph-name="Tcommaaccent" unicode="&#x162;" horiz-adv-x="570" 
d="M211 12v512h-175q-30 0 -19 34q16 45 38 72q23 -5 142 -5h368q-3 -45 -21.5 -70.5t-39.5 -30.5h-146v-400q0 -62 3 -122q-53 -8 -125 -8q-25 0 -25 18zM312 -43h1q23 0 34 -22t11 -50q0 -44 -22 -84t-58 -64q-40 -27 -114 -25q36 42 49.5 78t13.5 88q0 29 -11 51
q54 28 96 28z" />
    <glyph glyph-name="tcommaaccent" unicode="&#x163;" horiz-adv-x="365" 
d="M341 104l4 -2q10 -55 -19 -81q-39 -33 -119 -33q-75 0 -108 39.5t-33 98.5v224q-28 0 -44.5 11.5t-16.5 22.5q12 20 59 64.5t67 60.5q40 32 88 33q-7 -51 -7 -100h143q-6 -37 -16.5 -57.5t-19 -24.5t-21.5 -5q-17 -2 -89 -5q-6 -114 2 -200q7 -62 62 -62q36 0 68 16z
M229 -43h1q23 0 34 -22t11 -50q0 -44 -22 -84t-58 -64q-40 -27 -114 -25q36 42 49.5 78t13.5 88q0 29 -11 51q54 28 96 28z" />
    <glyph glyph-name="Tcaron" unicode="&#x164;" horiz-adv-x="570" 
d="M211 12v512h-175q-30 0 -19 34q16 45 38 72q23 -5 142 -5h368q-3 -45 -21.5 -70.5t-39.5 -30.5h-146v-400q0 -62 3 -122q-53 -8 -125 -8q-25 0 -25 18zM377 829h1q19 0 37.5 -12.5t23.5 -25.5q-65 -43 -115 -103q-8 -9 -22 -14q-19 -4 -47 -4q-52 65 -123 122q8 11 25 24
t32 13q17 0 28 -7q25 -16 69 -55q32 31 71 54q16 8 20 8z" />
    <glyph glyph-name="tcaron" unicode="&#x165;" horiz-adv-x="365" 
d="M341 104l4 -2q10 -55 -19 -81q-39 -33 -119 -33q-75 0 -108 39.5t-33 98.5v224q-28 0 -44.5 11.5t-16.5 22.5q12 20 59 64.5t67 60.5q40 32 88 33q-7 -51 -7 -100h143q-6 -37 -16.5 -57.5t-19 -24.5t-21.5 -5q-17 -2 -89 -5q-6 -114 2 -200q7 -62 62 -62q36 0 68 16z
M422 761h1q23 0 34 -22t11 -50q0 -44 -22 -84t-58 -64q-40 -27 -114 -25q36 42 49.5 78t13.5 88q0 29 -11 51q54 28 96 28z" />
    <glyph glyph-name="Tbar" unicode="&#x166;" horiz-adv-x="570" 
d="M211 12v254h-111q4 30 17.5 58t28.5 28h65v172h-175q-30 0 -19 34q16 45 38 72q23 -5 142 -5h368q-3 -45 -21.5 -70.5t-39.5 -30.5h-146v-172h119q-8 -35 -24.5 -60.5t-40.5 -25.5h-54v-142q0 -62 3 -122q-53 -8 -125 -8q-25 0 -25 18z" />
    <glyph glyph-name="tbar" unicode="&#x167;" horiz-adv-x="375" 
d="M351 104l4 -2q10 -55 -19 -81q-39 -33 -122 -33q-74 0 -106 39t-32 94v72h-65q4 28 17.5 50.5t28.5 22.5h19v84q-28 0 -44.5 11.5t-16.5 22.5q12 20 59 64.5t67 60.5q40 32 88 33q-7 -51 -7 -100h143q-6 -37 -16.5 -57.5t-19 -24.5t-21.5 -5q-17 -2 -89 -5q-2 -26 -2 -84
h110q-7 -32 -23.5 -52.5t-41.5 -20.5h-44l3 -43q7 -63 62 -63q34 0 68 17z" />
    <glyph glyph-name="Utilde" unicode="&#x168;" horiz-adv-x="678" 
d="M215 568v-278q0 -61 11.5 -103t32.5 -61t42 -26.5t47 -7.5q66 0 99.5 44.5t33.5 163.5v300q0 14 5.5 19t17.5 5q40 4 108 4q-3 -60 -3 -182v-141q0 -80 -17 -139.5t-42.5 -93.5t-64 -54t-74 -26.5t-78.5 -6.5q-135 0 -200 73.5t-65 228.5v204q0 97 -3 129q56 8 127 8
q15 0 19 -11.5t4 -48.5zM298 826h1q33 0 62 -37q19 -23 26 -23q15 0 25 49q3 11 11 11q7 0 25.5 -5t27.5 -10q-13 -135 -85 -135q-30 0 -66 40q-21 24 -31 24q-15 -1 -26 -49q-2 -11 -8 -11q-33 0 -57 9q11 137 95 137z" />
    <glyph glyph-name="utilde" unicode="&#x169;" horiz-adv-x="550" 
d="M62 161v163q0 73 -4 111q62 13 126 13q13 0 17 -10.5t4 -51.5v-209q0 -41 22 -59.5t51 -18.5q31 0 62 20v280q0 23 4 30t20 12q76 7 122 7q0 -2 -1.5 -65.5t-1.5 -115.5v-143q0 -25 9.5 -35.5t31.5 -15.5v-5q-1 -28 -24 -54t-45 -26q-42 0 -63.5 16t-33.5 46
q-31 -28 -74 -48q-33 -14 -63 -14q-81 0 -120 47t-39 126zM234 683h1q32 0 63 -35q17 -22 24 -22q17 0 25 48q4 11 11 11q9 0 28.5 -4.5t27.5 -10.5q-12 -138 -87 -138q-33 0 -67 38q-21 23 -30 23q-15 -2 -26 -49q-2 -11 -9 -11q-34 0 -58 9q9 141 97 141z" />
    <glyph glyph-name="Umacron" unicode="&#x16a;" horiz-adv-x="678" 
d="M215 568v-278q0 -61 11.5 -103t32.5 -61t42 -26.5t47 -7.5q66 0 99.5 44.5t33.5 163.5v300q0 14 5.5 19t17.5 5q40 4 108 4q-3 -60 -3 -182v-141q0 -80 -17 -139.5t-42.5 -93.5t-64 -54t-74 -26.5t-78.5 -6.5q-135 0 -200 73.5t-65 228.5v204q0 97 -3 129q56 8 127 8
q15 0 19 -11.5t4 -48.5zM453 674h-226q-15 0 -15 18q0 16 7 42.5t12 32.5h231q14 0 14 -16q0 -19 -7.5 -43t-15.5 -34z" />
    <glyph glyph-name="umacron" unicode="&#x16b;" horiz-adv-x="550" 
d="M62 161v163q0 73 -4 111q62 13 126 13q13 0 17 -10.5t4 -51.5v-209q0 -41 22 -59.5t51 -18.5q31 0 62 20v280q0 23 4 30t20 12q76 7 122 7q0 -2 -1.5 -65.5t-1.5 -115.5v-143q0 -25 9.5 -35.5t31.5 -15.5v-5q-1 -28 -24 -54t-45 -26q-42 0 -63.5 16t-33.5 46
q-31 -28 -74 -48q-33 -14 -63 -14q-81 0 -120 47t-39 126zM381 542h-219q-15 0 -15 17t7 43.5t12 31.5h224q13 0 13 -15q0 -20 -7 -44t-15 -33z" />
    <glyph glyph-name="Ubreve" unicode="&#x16c;" horiz-adv-x="678" 
d="M215 568v-278q0 -61 11.5 -103t32.5 -61t42 -26.5t47 -7.5q66 0 99.5 44.5t33.5 163.5v300q0 14 5.5 19t17.5 5q40 4 108 4q-3 -60 -3 -182v-141q0 -80 -17 -139.5t-42.5 -93.5t-64 -54t-74 -26.5t-78.5 -6.5q-135 0 -200 73.5t-65 228.5v204q0 97 -3 129q56 8 127 8
q15 0 19 -11.5t4 -48.5zM269 810h1q10 0 13 -15q9 -54 53 -54q48 0 63 55q4 14 16 14q9 0 23 -2t26 -7t11 -10q-8 -60 -45.5 -94.5t-95.5 -34.5q-62 0 -96 36.5t-33 89.5q0 11 22 16.5t42 5.5z" />
    <glyph glyph-name="ubreve" unicode="&#x16d;" horiz-adv-x="550" 
d="M62 161v163q0 73 -4 111q62 13 126 13q13 0 17 -10.5t4 -51.5v-209q0 -41 22 -59.5t51 -18.5q31 0 62 20v280q0 23 4 30t20 12q76 7 122 7q0 -2 -1.5 -65.5t-1.5 -115.5v-143q0 -25 9.5 -35.5t31.5 -15.5v-5q-1 -28 -24 -54t-45 -26q-42 0 -63.5 16t-33.5 46
q-31 -28 -74 -48q-33 -14 -63 -14q-81 0 -120 47t-39 126zM214 677h1q8 0 8 -11q10 -62 49 -62q25 0 37.5 16.5t19.5 47.5q0 9 13 9q16 0 38 -6t21 -14q-14 -135 -137 -135q-55 0 -85 36t-29 96q0 11 22.5 17t41.5 6z" />
    <glyph glyph-name="Uring" unicode="&#x16e;" horiz-adv-x="678" 
d="M215 568v-278q0 -61 11.5 -103t32.5 -61t42 -26.5t47 -7.5q66 0 99.5 44.5t33.5 163.5v300q0 14 5.5 19t17.5 5q40 4 108 4q-3 -60 -3 -182v-141q0 -80 -17 -139.5t-42.5 -93.5t-64 -54t-74 -26.5t-78.5 -6.5q-135 0 -200 73.5t-65 228.5v204q0 97 -3 129q56 8 127 8
q15 0 19 -11.5t4 -48.5zM347 870h1q43 0 71 -29t28 -72q0 -46 -31 -76.5t-81 -30.5q-41 0 -71.5 27t-30.5 74q0 45 30.5 76t83.5 31zM339 814h-1q-17 0 -27.5 -15t-10.5 -34q0 -22 12 -35t29 -13q39 1 39 48q0 21 -10 35t-31 14z" />
    <glyph glyph-name="uring" unicode="&#x16f;" horiz-adv-x="550" 
d="M62 161v163q0 73 -4 111q62 13 126 13q13 0 17 -10.5t4 -51.5v-209q0 -41 22 -59.5t51 -18.5q31 0 62 20v280q0 23 4 30t20 12q76 7 122 7q0 -2 -1.5 -65.5t-1.5 -115.5v-143q0 -25 9.5 -35.5t31.5 -15.5v-5q-1 -28 -24 -54t-45 -26q-42 0 -63.5 16t-33.5 46
q-31 -28 -74 -48q-33 -14 -63 -14q-81 0 -120 47t-39 126zM277 707h1q47 0 76.5 -30t29.5 -77q0 -45 -31 -75.5t-77 -30.5t-77.5 28t-31.5 79q0 44 30.5 75t79.5 31zM275 649h-1q-17 0 -28 -14t-11 -32q0 -26 12 -39t31 -13q38 2 38 49q0 21 -10.5 35t-30.5 14z" />
    <glyph glyph-name="Uhungarumlaut" unicode="&#x170;" horiz-adv-x="678" 
d="M215 568v-278q0 -61 11.5 -103t32.5 -61t42 -26.5t47 -7.5q66 0 99.5 44.5t33.5 163.5v300q0 14 5.5 19t17.5 5q40 4 108 4q-3 -60 -3 -182v-141q0 -80 -17 -139.5t-42.5 -93.5t-64 -54t-74 -26.5t-78.5 -6.5q-135 0 -200 73.5t-65 228.5v204q0 97 -3 129q56 8 127 8
q15 0 19 -11.5t4 -48.5zM288 815h1q41 0 73 -28q14 -9 1 -24l-86 -94q-6 -7 -15 -7q-7 0 -24 7t-21 11q7 37 28 86t43 49zM472 815h1q41 0 73 -28q13 -9 0 -24q-56 -64 -86 -94q-4 -7 -14 -7q-7 0 -23.5 7t-21.5 11q7 38 28 86.5t43 48.5z" />
    <glyph glyph-name="uhungarumlaut" unicode="&#x171;" horiz-adv-x="550" 
d="M62 161v163q0 73 -4 111q62 13 126 13q13 0 17 -10.5t4 -51.5v-209q0 -41 22 -59.5t51 -18.5q31 0 62 20v280q0 23 4 30t20 12q76 7 122 7q0 -2 -1.5 -65.5t-1.5 -115.5v-143q0 -25 9.5 -35.5t31.5 -15.5v-5q-1 -28 -24 -54t-45 -26q-42 0 -63.5 16t-33.5 46
q-31 -28 -74 -48q-33 -14 -63 -14q-81 0 -120 47t-39 126zM227 710q19 1 42.5 -10t30.5 -20t0 -22q-43 -57 -91 -155q-28 6 -41 15q-16 14 -14 29q7 57 28 109.5t45 53.5zM407 710q19 1 42 -9.5t31 -20.5q9 -9 0 -22q-43 -58 -90 -155q-9 2 -49 22q-7 4 -5 23q5 54 26 107.5
t45 54.5z" />
    <glyph glyph-name="Uogonek" unicode="&#x172;" horiz-adv-x="687" 
d="M491 300v300q0 14 5.5 19t17.5 5q40 4 108 4q-3 -60 -3 -182v-138q0 -245 -149 -302q-91 -60 -91 -134q0 -23 16 -38t39 -15q31 0 55 11l5 -5q0 -12 -4.5 -32t-9.5 -26q-13 -13 -44 -25t-63 -12q-52 0 -81 31t-29 79q0 35 23.5 74t64.5 71h-13q-136 0 -203 74t-67 230
v202q0 97 -3 129q56 8 127 8q15 0 19 -11.5t4 -48.5v-278q0 -117 38 -159.5t99 -42.5q69 0 104 45.5t35 166.5z" />
    <glyph glyph-name="uogonek" unicode="&#x173;" horiz-adv-x="549" 
d="M528 -170l5 -5q0 -12 -4.5 -32t-9.5 -26q-13 -14 -43 -25.5t-62 -11.5q-54 0 -84 28t-30 80q0 39 25 84t70 80q-25 17 -38 49q-73 -63 -133 -63q-83 0 -122.5 47t-39.5 126v163q0 73 -4 111q52 13 126 13q13 0 17 -10.5t4 -51.5v-207q0 -41 22 -60.5t51 -19.5q37 0 62 22
v278q0 23 4 30t20 12q76 7 122 7q0 -2 -1.5 -65.5t-1.5 -115.5v-143q0 -26 9.5 -36.5t32.5 -14.5v-6q-5 -39 -46 -75q-63 -53 -63 -118q0 -24 14.5 -39.5t39.5 -15.5q34 0 58 11z" />
    <glyph glyph-name="Wcircumflex" unicode="&#x174;" horiz-adv-x="887" 
d="M494 628h1q16 0 27 -37q26 -84 104 -414l125 451q45 0 77 -3q26 -3 35 -13t2 -32q-71 -233 -187 -548q-10 -27 -24 -33q-24 -11 -105 -11q-75 313 -103 418q-8 -32 -46 -169t-57 -198q-10 -32 -30 -40q-33 -11 -98 -11q-17 55 -56 192.5t-73 244.5t-66 179
q16 7 59.5 15.5t65.5 8.5q17 0 26 -14t23 -60q46 -162 95 -366q5 21 21 79.5l40 145.5l42 155q-1 12 -6 37q63 23 108 23zM361 661h-1q-20 0 -39 13t-23 26q63 41 117 105q9 10 21 13q19 4 46 4q54 -66 124 -123q-7 -11 -24.5 -24.5t-32.5 -13.5q-17 0 -28 7q-23 15 -69 56
q-36 -33 -72 -55q-16 -8 -19 -8z" />
    <glyph glyph-name="wcircumflex" unicode="&#x175;" horiz-adv-x="699" 
d="M138 453h1q19 0 26 -27q26 -100 63 -275l73 240q-1 4 -3 15.5t-3 16.5q16 6 53.5 13t53.5 7q7 0 11 -1.5t6.5 -7t3.5 -8t4 -12.5q6 -25 33 -121.5t37 -137.5q65 238 79 298q71 -2 101 -12q23 -7 8 -51l-126 -360q-4 -11 -7 -16.5t-9 -10t-17 -6.5q-45 -9 -102 -9l-73 266
l-72 -222q-5 -18 -11.5 -25t-20.5 -10q-45 -9 -96 -9l-95 306q-26 79 -48 133q82 26 130 26zM285 509h-1q-14 0 -66 14q72 98 99 147q7 14 23 17q17 4 49 4q47 -75 107 -162q-43 -20 -66 -20q-18 0 -22 10q-45 60 -53 73q-21 -38 -48 -66q-14 -17 -22 -17z" />
    <glyph glyph-name="Ycircumflex" unicode="&#x176;" horiz-adv-x="581" 
d="M225 12v233q0 33 -9 48q-64 112 -198 312v3q73 20 128 20q16 0 25 -8t28 -41l115 -201q80 126 144 250q72 2 103 -11q12 -7 11.5 -16t-10.5 -28q-14 -24 -95 -146t-84 -127q-11 -21 -11 -43v-135q0 -40 1.5 -77t1.5 -43q-45 -8 -129 -8q-13 0 -17 3.5t-4 14.5zM206 661
h-1q-20 0 -39 13t-23 26q63 41 117 105q9 10 21 13q19 4 46 4q54 -66 124 -123q-7 -11 -24.5 -24.5t-32.5 -13.5q-17 0 -28 7q-23 15 -69 56q-36 -33 -72 -55q-16 -8 -19 -8z" />
    <glyph glyph-name="ycircumflex" unicode="&#x177;" horiz-adv-x="453" 
d="M58 -154v6q23 26 60.5 79.5t59.5 94.5q-15 24 -21 40q-98 264 -143 357q25 12 61.5 21t57.5 9q10 0 17 -5.5t9.5 -10.5t7.5 -17q42 -112 84 -254q63 171 79 287q38 -2 83 -11q21 -5 26 -16t0 -30q-42 -189 -128 -366q-43 -88 -90 -158.5t-65 -70.5q-28 0 -57.5 15
t-40.5 30zM159 509h-1q-14 0 -66 14q72 98 99 147q7 14 23 17q17 4 49 4q47 -75 107 -162q-42 -20 -66 -20q-18 0 -22 10q-45 60 -53 73q-21 -38 -48 -66q-14 -17 -22 -17z" />
    <glyph glyph-name="Ydieresis" unicode="&#x178;" horiz-adv-x="581" 
d="M225 12v233q0 33 -9 48q-64 112 -198 312v3q73 20 128 20q16 0 25 -8t28 -41l115 -201q80 126 144 250q72 2 103 -11q12 -7 11.5 -16t-10.5 -28q-14 -24 -95 -146t-84 -127q-11 -21 -11 -43v-135q0 -40 1.5 -77t1.5 -43q-45 -8 -129 -8q-13 0 -17 3.5t-4 14.5zM196 802h1
q24 0 41 -19t17 -44q0 -32 -17.5 -50.5t-47.5 -18.5q-25 0 -44 17t-19 47t18 49t51 19zM416 802h1q25 0 41.5 -18.5t16.5 -44.5q0 -32 -17.5 -50.5t-47.5 -18.5q-23 0 -42 17t-19 47t18 49t49 19z" />
    <glyph glyph-name="Zacute" unicode="&#x179;" horiz-adv-x="541" 
d="M532 98l1 -2q-8 -35 -31 -64.5t-37 -34.5q-1 0 -18 -0.5t-54.5 -1.5t-89.5 -1q-175 0 -263 8q-14 14 -15 26q81 117 174.5 274.5t124.5 221.5h-232q-41 0 -52.5 12t-3.5 35q14 35 37 61q20 -7 65 -7h365q-4 -40 -18 -86q-9 -28 -89.5 -172.5l-152.5 -265.5
q22 -6 133.5 -6.5t155.5 3.5zM381 830q38 -9 52 -72q2 -12 -16 -19q-31 -9 -67.5 -22l-73.5 -27t-50 -18q-3 3 -20 29q-12 21 7 35q38 32 90.5 63t77.5 31z" />
    <glyph glyph-name="zacute" unicode="&#x17a;" horiz-adv-x="409" 
d="M27 6l-14 24q173 278 194 320h-127q-36 0 -49.5 8t-8.5 26q13 51 31 67q19 -9 81 -9h250q-2 -14 -3 -27t-8 -32q-2 -5 -3 -7q-8 -23 -59.5 -117t-96.5 -167q17 -4 94.5 -4t105.5 4q-13 -64 -37 -81q-11 -6 -18 -8.5t-35 -4.5t-81 -2q-165 0 -216 10zM258 696h1
q43 1 81 -32q11 -8 -2 -22l-43 -49.5l-46 -55.5l-31 -38q-20 3 -42 16q-12 10 -3 29q15 50 39.5 100.5t45.5 51.5z" />
    <glyph glyph-name="Zdotaccent" unicode="&#x17b;" horiz-adv-x="541" 
d="M532 98l1 -2q-8 -35 -31 -64.5t-37 -34.5q-1 0 -18 -0.5t-54.5 -1.5t-89.5 -1q-175 0 -263 8q-14 14 -15 26q81 117 174.5 274.5t124.5 221.5h-232q-41 0 -52.5 12t-3.5 35q14 35 37 61q20 -7 65 -7h365q-4 -40 -18 -86q-9 -28 -89.5 -172.5l-152.5 -265.5
q22 -6 133.5 -6.5t155.5 3.5zM275 812h1q25 0 42 -18.5t17 -44.5q0 -32 -18 -50.5t-48 -18.5q-25 0 -44 17t-19 47t18 49t51 19z" />
    <glyph glyph-name="zdotaccent" unicode="&#x17c;" horiz-adv-x="409" 
d="M27 6l-14 24q173 278 194 320h-127q-36 0 -49.5 8t-8.5 26q13 51 31 67q19 -9 81 -9h250q-2 -14 -3 -27t-8 -32q-2 -5 -3 -7q-8 -23 -59.5 -117t-96.5 -167q17 -4 94.5 -4t105.5 4q-13 -64 -37 -81q-11 -6 -18 -8.5t-35 -4.5t-81 -2q-165 0 -216 10zM219 671h1
q26 0 43.5 -19t17.5 -46q0 -32 -18.5 -50.5t-50.5 -18.5q-24 0 -43 17t-19 48t17.5 50t51.5 19z" />
    <glyph glyph-name="Zcaron" unicode="&#x17d;" horiz-adv-x="541" 
d="M532 98l1 -2q-8 -35 -31 -64.5t-37 -34.5q-1 0 -18 -0.5t-54.5 -1.5t-89.5 -1q-175 0 -263 8q-14 14 -15 26q81 117 174.5 274.5t124.5 221.5h-232q-41 0 -52.5 12t-3.5 35q14 35 37 61q20 -7 65 -7h365q-4 -40 -18 -86q-9 -28 -89.5 -172.5l-152.5 -265.5
q22 -6 133.5 -6.5t155.5 3.5zM363 831h1q19 0 37.5 -12.5t23.5 -25.5q-65 -43 -115 -103q-8 -9 -22 -14q-19 -4 -47 -4q-52 65 -123 122q8 11 25 24t32 13q17 0 28 -7q25 -16 69 -55q32 31 71 54q16 8 20 8z" />
    <glyph glyph-name="zcaron" unicode="&#x17e;" horiz-adv-x="409" 
d="M27 6l-14 24q173 278 194 320h-127q-36 0 -49.5 8t-8.5 26q13 51 31 67q19 -9 81 -9h250q-2 -14 -3 -27t-8 -32q-2 -5 -3 -7q-8 -23 -59.5 -117t-96.5 -167q17 -4 94.5 -4t105.5 4q-13 -64 -37 -81q-11 -6 -18 -8.5t-35 -4.5t-81 -2q-165 0 -216 10zM286 690h1
q13 0 61 -14q-68 -100 -92 -148q-8 -14 -21 -16q-16 -4 -45 -4l-100 162q40 20 62 20q15 0 20 -10q2 -2 21 -30t28 -43q24 42 45 66q12 17 20 17z" />
    <glyph glyph-name="longs" unicode="&#x17f;" horiz-adv-x="280" 
d="M216 442q3 -240 3 -440q-64 -8 -131 -8q-7 0 -10 1t-5.5 5t-2.5 13q2 216 2 338q-61 5 -61 44q11 12 20 19t21 15l20 13q0 127 71 191q50 48 129 48q53 0 74 -25q4 -23 -10.5 -49.5t-35.5 -30.5q-12 3 -25 3q-31 0 -45.5 -31.5t-13.5 -105.5z" />
    <glyph glyph-name="florin" unicode="&#x192;" horiz-adv-x="507" 
d="M377 630h1q59 0 95 -32q1 -25 -14 -49.5t-37 -19.5q-18 6 -29 6q-30 0 -46.5 -35t-23.5 -125q71 0 119 4q-13 -78 -53 -87q-15 -4 -80 -4q-17 -167 -27 -213q-38 -190 -208 -190q-45 0 -72 18q-24 14 -24 39q0 15 8 34.5t17 26.5q23 -16 52 -16q52 0 70 53.5t43 247.5
q-50 0 -62 12q-11 11 -10 16q16 49 77 63q17 148 91 212q46 39 113 39z" />
    <glyph glyph-name="AEacute" unicode="&#x1fc;" horiz-adv-x="806" 
d="M418 234h-168l-104 -231q-8 -15 -24 -15q-50 0 -101 22l-1 10l276 568q8 17 11 28q81 9 130 9h329q-8 -61 -35 -92q-13 -8 -96 -8h-96l14 -198h195q-17 -61 -34.5 -78t-46.5 -17h-106l10 -131q22 -7 100 -7q98 0 125 3l2 -2q-17 -66 -65 -96q-23 -5 -106 -5
q-140 0 -184 10l-15 20zM415 327l-14 210q-17 -2 -28 -25q-82 -178 -85 -185h127zM557 826q38 -9 52 -72q2 -12 -16 -19q-31 -9 -67.5 -22l-73.5 -27t-50 -18q-3 3 -20 29q-12 21 7 35q38 32 90.5 63t77.5 31z" />
    <glyph glyph-name="aeacute" unicode="&#x1fd;" horiz-adv-x="688" 
d="M644 117l2 -3q-1 -42 -26 -74t-42 -39q-34 -13 -83 -13q-124 0 -176 77q-77 -77 -157 -77q-54 0 -94 34.5t-40 92.5q0 36 17 63t48.5 44t60 26.5t67.5 17.5q47 9 55 9v19q0 23 -18.5 38.5t-50.5 15.5q-42 0 -89 -20q-36 -14 -55.5 4.5t-17.5 58.5q36 26 87.5 44t99.5 18
q83 0 122 -55q58 55 137 55q88 0 130 -53t42 -122q0 -24 -6 -36q-11 -24 -78 -42q-38 -10 -179 -10q12 -96 130 -96q49 0 114 23zM470 369h-1q-27 0 -48 -24t-20 -74q54 -6 124 3q6 1 6 19q0 32 -15.5 54t-45.5 22zM213 90h1q37 0 72 42q-12 24 -12 68q-45 -3 -72 -15.5
t-34 -23.5t-7 -24q0 -20 14.5 -33.5t37.5 -13.5zM384 696h1q43 1 81 -32q11 -8 -2 -22l-43 -49.5l-46 -55.5l-31 -38q-20 3 -42 16q-12 10 -3 29q15 50 39.5 100.5t45.5 51.5z" />
    <glyph glyph-name="Oslashacute" unicode="&#x1fe;" horiz-adv-x="737" 
d="M654 615l-49 -64q98 -87 98 -233q0 -66 -21 -125t-61.5 -106t-106.5 -74.5t-149 -27.5q-100 0 -168 41l-57 -74q-20 -24 -38 -1q-23 30 -26 43l61 77q-52 46 -77 108.5t-25 122.5q0 152 93 245t243 93q102 0 174 -44l40 53q12 15 19.5 17t16.5 -5q28 -22 33 -46zM217 175
l259 332q-36 39 -112 39q-70 0 -127 -58.5t-57 -178.5q0 -88 37 -134zM524 447l-256 -329q47 -39 107 -39q82 0 132.5 61.5t50.5 175.5q0 82 -34 131zM479 831q38 -9 52 -72q2 -12 -16 -19q-31 -9 -67.5 -22l-73.5 -27t-50 -18q-3 3 -20 29q-12 21 7 35q38 32 90.5 63
t77.5 31z" />
    <glyph glyph-name="oslashacute" unicode="&#x1ff;" horiz-adv-x="530" 
d="M448 430l-23 -33q36 -28 54 -75.5t18 -98.5q0 -101 -64 -168t-163 -67q-69 0 -116 22l-27 -35l-1 -1v-1q-14 -19 -26 -3q-23 28 -25 39v0q0 -3 27 36q-71 59 -71 174q0 100 68 167t168 67q67 0 106 -22q20 26 20 28q11 16 18.5 17.5t15.5 -9.5q17 -19 21 -37zM182 155
l132 191q-20 22 -50 22q-48 0 -72 -41.5t-24 -99.5q0 -41 14 -72zM349 291l-134 -193q24 -24 55 -24q47 0 68.5 39.5t21.5 102.5q0 42 -11 75zM305 696h1q43 1 81 -32q11 -8 -2 -22l-43 -49.5l-46 -55.5l-31 -38q-20 3 -42 16q-12 10 -3 29q15 50 39.5 100.5t45.5 51.5z" />
    <glyph glyph-name="Scommaaccent" unicode="&#x218;" horiz-adv-x="470" 
d="M256 640h1q41 0 88.5 -15.5t68.5 -37.5q-1 -31 -19.5 -55.5t-49.5 -14.5q-49 21 -94 21q-36 0 -58 -15.5t-22 -42.5q0 -29 25.5 -51t100.5 -62q77 -40 109.5 -77.5t32.5 -105.5q0 -92 -69 -145.5t-166 -53.5q-90 0 -152 40q-28 18 -28 41q0 16 11 42.5t19 30.5
q79 -51 149 -51q42 0 67.5 17t25.5 51q0 29 -22 51t-92 57q-86 42 -116.5 89.5t-30.5 106.5q0 29 11 58t34.5 57.5t69 46.5t106.5 18zM257 -43h1q23 0 34 -22t11 -50q0 -44 -22 -84t-58 -64q-40 -27 -114 -25q36 42 49.5 78t13.5 88q0 29 -11 51q54 28 96 28z" />
    <glyph glyph-name="scommaaccent" unicode="&#x219;" horiz-adv-x="378" 
d="M211 453h1q64 0 119 -36q0 -32 -14.5 -56t-44.5 -17q-37 13 -62 13q-18 0 -29.5 -7.5t-11.5 -20.5q0 -9 4.5 -15.5t10.5 -10.5t17 -10q10 -6 43 -21.5t38 -18.5q73 -40 73 -114q0 -72 -56 -111.5t-134 -39.5q-59 0 -102 24q-33 17 -33 45q0 37 25 66q62 -39 119 -39
q48 0 48 31q0 19 -31 36l-82 42q-70 38 -70 115q0 68 50 106.5t122 38.5zM231 -43h1q23 0 34 -22t11 -50q0 -44 -22 -84t-58 -64q-40 -27 -114 -25q36 42 49.5 78t13.5 88q0 29 -11 51q54 28 96 28z" />
    <glyph glyph-name="uni021A" unicode="&#x21a;" horiz-adv-x="570" 
d="M211 12v512h-175q-30 0 -19 34q16 45 38 72q23 -5 142 -5h368q-3 -45 -21.5 -70.5t-39.5 -30.5h-146v-400q0 -62 3 -122q-53 -8 -125 -8q-25 0 -25 18zM312 -43h1q23 0 34 -22t11 -50q0 -44 -22 -84t-58 -64q-40 -27 -114 -25q36 42 49.5 78t13.5 88q0 29 -11 51
q54 28 96 28z" />
    <glyph glyph-name="uni021B" unicode="&#x21b;" horiz-adv-x="365" 
d="M341 104l4 -2q10 -55 -19 -81q-39 -33 -119 -33q-75 0 -108 39.5t-33 98.5v224q-28 0 -44.5 11.5t-16.5 22.5q12 20 59 64.5t67 60.5q40 32 88 33q-7 -51 -7 -100h143q-6 -37 -16.5 -57.5t-19 -24.5t-21.5 -5q-17 -2 -89 -5q-6 -114 2 -200q7 -62 62 -62q36 0 68 16z
M229 -43h1q23 0 34 -22t11 -50q0 -44 -22 -84t-58 -64q-40 -27 -114 -25q36 42 49.5 78t13.5 88q0 29 -11 51q54 28 96 28z" />
    <glyph glyph-name="circumflex" unicode="&#x2c6;" horiz-adv-x="400" 
d="M128 509h-1q-14 0 -66 14q72 98 99 147q7 14 23 17q17 4 49 4q47 -75 107 -162q-43 -20 -66 -20q-18 0 -22 10q-45 60 -53 73q-21 -38 -48 -66q-14 -17 -22 -17z" />
    <glyph glyph-name="caron" unicode="&#x2c7;" horiz-adv-x="400" 
d="M267 690h1q13 0 61 -14q-68 -100 -92 -148q-8 -14 -21 -16q-16 -4 -45 -4l-100 162q40 20 62 20q15 0 20 -10q2 -2 21 -30t28 -43q24 42 45 66q12 17 20 17z" />
    <glyph glyph-name="uni02C9" unicode="&#x2c9;" horiz-adv-x="400" 
d="M306 542h-219q-15 0 -15 17t7 43.5t12 31.5h224q13 0 13 -15q0 -20 -7 -44t-15 -33z" />
    <glyph glyph-name="breve" unicode="&#x2d8;" horiz-adv-x="400" 
d="M139 677h1q8 0 8 -11q10 -62 49 -62q25 0 37.5 16.5t19.5 47.5q0 9 13 9q16 0 38 -6t21 -14q-14 -135 -137 -135q-55 0 -85 36t-29 96q0 11 22.5 17t41.5 6z" />
    <glyph glyph-name="dotaccent" unicode="&#x2d9;" horiz-adv-x="400" 
d="M204 671h1q26 0 43.5 -19t17.5 -46q0 -32 -18.5 -50.5t-50.5 -18.5q-24 0 -43 17t-19 48t17.5 50t51.5 19z" />
    <glyph glyph-name="ring" unicode="&#x2da;" horiz-adv-x="400" 
d="M202 707h1q47 0 76.5 -30t29.5 -77q0 -45 -31 -75.5t-77 -30.5t-77.5 28t-31.5 79q0 44 30.5 75t79.5 31zM200 649h-1q-17 0 -28 -14t-11 -32q0 -26 12 -39t31 -13q38 2 38 49q0 21 -10.5 35t-30.5 14z" />
    <glyph glyph-name="ogonek" unicode="&#x2db;" horiz-adv-x="400" 
d="M209 12h90q-60 -39 -82.5 -71.5t-22.5 -70.5q0 -22 15.5 -36.5t38.5 -14.5q33 0 57 11l5 -5q0 -12 -5 -32t-9 -26q-13 -13 -44 -25t-63 -12q-52 0 -81 31t-29 79q0 44 36 92.5t94 79.5z" />
    <glyph glyph-name="tilde" unicode="&#x2dc;" horiz-adv-x="400" 
d="M159 683h1q32 0 63 -35q17 -22 24 -22q17 0 25 48q4 11 11 11q9 0 28.5 -4.5t27.5 -10.5q-12 -138 -87 -138q-33 0 -67 38q-21 23 -30 23q-15 -2 -26 -49q-2 -11 -9 -11q-34 0 -58 9q9 141 97 141z" />
    <glyph glyph-name="hungarumlaut" unicode="&#x2dd;" horiz-adv-x="400" 
d="M152 710q19 1 42.5 -10t30.5 -20t0 -22q-43 -57 -91 -155q-28 6 -41 15q-16 14 -14 29q7 57 28 109.5t45 53.5zM332 710q19 1 42 -9.5t31 -20.5q9 -9 0 -22q-43 -58 -90 -155q-9 2 -49 22q-7 4 -5 23q5 54 26 107.5t45 54.5z" />
    <glyph glyph-name="uni0394" unicode="&#x394;" horiz-adv-x="696" 
d="M41 4l-6 31l243 561v19q65 13 121 13q16 0 24 -19l237 -578l-11 -30q-55 -9 -430 -7q-144 0 -178 10zM198 114q31 -10 119 -10q127 0 159 4l-140 364z" />
    <glyph glyph-name="uni03A9" unicode="&#x3a9;" horiz-adv-x="781" 
d="M68 103l5 2q15 -8 86 -10q41 0 54 4q0 7 -3 8q-58 32 -93 93t-35 140q0 132 89 216t240 84q136 0 219.5 -79t83.5 -206q0 -161 -128 -248q-3 -1 -1 -4q1 -2 3 -2q22 -6 69 -6q90 0 102 3l3 -4q0 -21 -22.5 -56.5t-42.5 -39.5q-13 -2 -45.5 -3t-79 -1h-62.5q-80 0 -92 10
l-5 8l29 80q70 36 95 94.5t25 147.5q0 98 -42 155t-121 57q-81 0 -122.5 -58t-41.5 -152q0 -91 36.5 -156.5t89.5 -86.5l1 -4q-23 -69 -32 -78q-13 -11 -24 -12q-31 0 -79.5 -2.5t-80.5 -2.5q-87 0 -110 11q-15 7 -8 20q5 8 14.5 27.5l17 34.5t8.5 16z" />
    <glyph glyph-name="uni03BC" unicode="&#x3bc;" horiz-adv-x="556" 
d="M186 17l5 -231q-43 -1 -95 2q-31 2 -37 10t-5 35l11 313v172q0 85 -4 110q62 16 125 16q14 0 18 -10.5t4 -54.5v-206q0 -41 19.5 -58t46.5 -17q47 0 70 27v268q0 23 4 30.5t20 11.5q88 8 122 9q0 -5 -1.5 -68t-1.5 -114v-139q0 -24 11.5 -35t35.5 -13v-7
q-6 -30 -25.5 -55t-41.5 -25q-76 0 -103 59q-52 -59 -107 -59q-24 0 -44 9.5t-27 19.5z" />
    <glyph glyph-name="pi" unicode="&#x3c0;" horiz-adv-x="597" 
d="M352 85v254h-96q0 -79 -12.5 -178t-27.5 -141q-12 -32 -46 -32q-36 0 -90 12q19 62 34 168.5t12 170.5q-59 0 -87 -7q-9 39 -9 42.5t-8 42.5q17 20 53 26.5t99 6.5h396l-10 -66q-3 -23 -11.5 -34t-28.5 -11h-25v-222q0 -21 15.5 -32t36.5 -11q0 -20 -9 -42.5t-24 -31.5
q-24 -12 -67 -12q-95 0 -95 97z" />
    <glyph glyph-name="Wgrave" unicode="&#x1e80;" horiz-adv-x="887" 
d="M494 628h1q16 0 27 -37q26 -84 104 -414l125 451q45 0 77 -3q26 -3 35 -13t2 -32q-71 -233 -187 -548q-10 -27 -24 -33q-24 -11 -105 -11q-75 313 -103 418q-8 -32 -46 -169t-57 -198q-10 -32 -30 -40q-33 -11 -98 -11q-17 55 -56 192.5t-73 244.5t-66 179
q16 7 59.5 15.5t65.5 8.5q17 0 26 -14t23 -60q46 -162 95 -366q5 21 21 79.5l40 145.5l42 155q-1 12 -6 37q63 23 108 23zM349 842h1q14 0 67 -37.5t84 -67.5q18 -17 5 -40l-11 -15.5l-8 -11.5q-160 75 -187 85q-14 4 -8 22q8 25 24 45t33 20z" />
    <glyph glyph-name="wgrave" unicode="&#x1e81;" horiz-adv-x="699" 
d="M138 453h1q19 0 26 -27q26 -100 63 -275l73 240q-1 4 -3 15.5t-3 16.5q16 6 53.5 13t53.5 7q7 0 11 -1.5t6.5 -7t3.5 -8t4 -12.5q6 -25 33 -121.5t37 -137.5q65 238 79 298q71 -2 101 -12q23 -7 8 -51l-126 -360q-4 -11 -7 -16.5t-9 -10t-17 -6.5q-45 -9 -102 -9l-73 266
l-72 -222q-5 -18 -11.5 -25t-20.5 -10q-45 -9 -96 -9l-95 306q-26 79 -48 133q82 26 130 26zM325 698q17 -1 42 -55.5t35 -100.5q6 -16 -8 -26q-17 -11 -42 -15q-55 80 -119 143q-11 9 4 22q40 33 88 32z" />
    <glyph glyph-name="Wacute" unicode="&#x1e82;" horiz-adv-x="887" 
d="M494 628h1q16 0 27 -37q26 -84 104 -414l125 451q45 0 77 -3q26 -3 35 -13t2 -32q-71 -233 -187 -548q-10 -27 -24 -33q-24 -11 -105 -11q-75 313 -103 418q-8 -32 -46 -169t-57 -198q-10 -32 -30 -40q-33 -11 -98 -11q-17 55 -56 192.5t-73 244.5t-66 179
q16 7 59.5 15.5t65.5 8.5q17 0 26 -14t23 -60q46 -162 95 -366q5 21 21 79.5l40 145.5l42 155q-1 12 -6 37q63 23 108 23zM554 828q38 -9 52 -72q2 -12 -16 -19q-31 -9 -67.5 -22l-73.5 -27t-50 -18q-3 3 -20 29q-12 21 7 35q38 32 90.5 63t77.5 31z" />
    <glyph glyph-name="wacute" unicode="&#x1e83;" horiz-adv-x="699" 
d="M138 453h1q19 0 26 -27q26 -100 63 -275l73 240q-1 4 -3 15.5t-3 16.5q16 6 53.5 13t53.5 7q7 0 11 -1.5t6.5 -7t3.5 -8t4 -12.5q6 -25 33 -121.5t37 -137.5q65 238 79 298q71 -2 101 -12q23 -7 8 -51l-126 -360q-4 -11 -7 -16.5t-9 -10t-17 -6.5q-45 -9 -102 -9l-73 266
l-72 -222q-5 -18 -11.5 -25t-20.5 -10q-45 -9 -96 -9l-95 306q-26 79 -48 133q82 26 130 26zM392 696h1q43 1 81 -32q11 -8 -2 -22l-43 -49.5l-46 -55.5l-31 -38q-20 3 -42 16q-12 10 -3 29q15 50 39.5 100.5t45.5 51.5z" />
    <glyph glyph-name="Wdieresis" unicode="&#x1e84;" horiz-adv-x="887" 
d="M494 628h1q16 0 27 -37q26 -84 104 -414l125 451q45 0 77 -3q26 -3 35 -13t2 -32q-71 -233 -187 -548q-10 -27 -24 -33q-24 -11 -105 -11q-75 313 -103 418q-8 -32 -46 -169t-57 -198q-10 -32 -30 -40q-33 -11 -98 -11q-17 55 -56 192.5t-73 244.5t-66 179
q16 7 59.5 15.5t65.5 8.5q17 0 26 -14t23 -60q46 -162 95 -366q5 21 21 79.5l40 145.5l42 155q-1 12 -6 37q63 23 108 23zM347 802h1q24 0 41 -19t17 -44q0 -32 -17.5 -50.5t-47.5 -18.5q-25 0 -44 17t-19 47t18 49t51 19zM567 802h1q25 0 41.5 -18.5t16.5 -44.5
q0 -32 -17.5 -50.5t-47.5 -18.5q-23 0 -42 17t-19 47t18 49t49 19z" />
    <glyph glyph-name="wdieresis" unicode="&#x1e85;" horiz-adv-x="699" 
d="M138 453h1q19 0 26 -27q26 -100 63 -275l73 240q-1 4 -3 15.5t-3 16.5q16 6 53.5 13t53.5 7q7 0 11 -1.5t6.5 -7t3.5 -8t4 -12.5q6 -25 33 -121.5t37 -137.5q65 238 79 298q71 -2 101 -12q23 -7 8 -51l-126 -360q-4 -11 -7 -16.5t-9 -10t-17 -6.5q-45 -9 -102 -9l-73 266
l-72 -222q-5 -18 -11.5 -25t-20.5 -10q-45 -9 -96 -9l-95 306q-26 79 -48 133q82 26 130 26zM263 669h1q25 0 42 -19.5t17 -44.5q0 -31 -18 -49.5t-47 -18.5q-25 0 -43.5 17t-18.5 47t18 49t49 19zM465 669h1q26 0 43 -18.5t17 -45.5q0 -31 -18 -49.5t-47 -18.5
q-24 0 -43 17t-19 47t17.5 49t48.5 19z" />
    <glyph glyph-name="Ygrave" unicode="&#x1ef2;" horiz-adv-x="581" 
d="M225 12v233q0 33 -9 48q-64 112 -198 312v3q73 20 128 20q16 0 25 -8t28 -41l115 -201q80 126 144 250q72 2 103 -11q12 -7 11.5 -16t-10.5 -28q-14 -24 -95 -146t-84 -127q-11 -21 -11 -43v-135q0 -40 1.5 -77t1.5 -43q-45 -8 -129 -8q-13 0 -17 3.5t-4 14.5zM208 837h1
q14 0 67 -37.5t84 -67.5q18 -17 5 -40l-10.5 -15t-8.5 -12q-160 75 -187 85q-14 4 -8 22q8 25 24 45t33 20z" />
    <glyph glyph-name="ygrave" unicode="&#x1ef3;" horiz-adv-x="453" 
d="M58 -154v6q23 26 60.5 79.5t59.5 94.5q-15 24 -21 40q-98 264 -143 357q25 12 61.5 21t57.5 9q10 0 17 -5.5t9.5 -10.5t7.5 -17q42 -112 84 -254q63 171 79 287q38 -2 83 -11q21 -5 26 -16t0 -30q-42 -189 -128 -366q-43 -88 -90 -158.5t-65 -70.5q-28 0 -57.5 15
t-40.5 30zM199 698q17 -1 42 -55.5t35 -100.5q6 -16 -8 -26q-17 -11 -42 -15q-55 80 -119 143q-11 9 4 22q40 33 88 32z" />
    <glyph glyph-name="figuredash" unicode="&#x2012;" horiz-adv-x="419" 
d="M75 337h304l-5 -34q-5 -41 -10.5 -51t-18.5 -10h-305l6 45q6 50 29 50z" />
    <glyph glyph-name="endash" unicode="&#x2013;" horiz-adv-x="563" 
d="M84 293h430l-6 -49q-7 -52 -27 -52h-432l8 53q4 28 10.5 38t16.5 10z" />
    <glyph glyph-name="emdash" unicode="&#x2014;" horiz-adv-x="949" 
d="M84 293h816l-6 -38q-5 -29 -9.5 -43t-8.5 -17t-11 -3h-816l7 49q6 52 28 52z" />
    <glyph glyph-name="quoteleft" unicode="&#x2018;" horiz-adv-x="244" 
d="M29 498v1q0 46 24 95t60 75q30 23 93 21q-52 -80 -52 -175q0 -25 7 -51q-62 -24 -91 -24q-19 0 -30 16.5t-11 41.5z" />
    <glyph glyph-name="quoteright" unicode="&#x2019;" horiz-adv-x="244" 
d="M215 626v-1q0 -45 -24 -94.5t-60 -75.5q-29 -23 -93 -21q52 80 52 181q0 25 -6 45q60 24 90 24q19 0 30 -16.5t11 -41.5z" />
    <glyph glyph-name="quotesinglbase" unicode="&#x201a;" horiz-adv-x="217" 
d="M145 168h1q18 0 29.5 -17.5t11.5 -44.5q0 -47 -29.5 -98t-68.5 -80q-33 -26 -98 -24q64 94 64 191q0 29 -7 48q7 2 22 7.5t25 8.5t24 6t26 3z" />
    <glyph glyph-name="quotedblleft" unicode="&#x201c;" horiz-adv-x="425" 
d="M29 498v1q0 46 24 95t60 75q30 23 93 21q-52 -80 -52 -181q0 -19 7 -45q-62 -24 -91 -24q-19 0 -30 16.5t-11 41.5zM209 502v1q0 43 24 91.5t60 74.5q29 23 93 21q-52 -80 -52 -177q0 -30 7 -49q-62 -24 -91 -24q-19 0 -30 17t-11 45z" />
    <glyph glyph-name="quotedblright" unicode="&#x201d;" horiz-adv-x="423" 
d="M215 626v-1q0 -45 -24 -94.5t-60 -75.5q-29 -23 -93 -21q52 80 52 181q0 25 -6 45q60 24 90 24q19 0 30 -16.5t11 -41.5zM394 626v-1q0 -45 -24 -94.5t-60 -75.5q-29 -23 -93 -21q52 80 52 181q0 22 -7 45q65 24 92 24q18 0 29 -16.5t11 -41.5z" />
    <glyph glyph-name="quotedblbase" unicode="&#x201e;" horiz-adv-x="406" 
d="M186 107v-1q0 -46 -28 -96.5t-66 -79.5q-33 -25 -98 -23q62 95 62 188q0 29 -7 48q7 2 21.5 7.5t24.5 8.5t23.5 6t25.5 3q19 0 30.5 -17.5t11.5 -43.5zM376 107v-1q0 -46 -28 -96.5t-66 -79.5q-29 -25 -98 -23q62 95 62 188q0 22 -7 48q5 2 21 7.5l25 8.5t23.5 6t26.5 3
q19 0 30 -17.5t11 -43.5z" />
    <glyph glyph-name="dagger" unicode="&#x2020;" horiz-adv-x="480" 
d="M54 422h118v155q6 5 41.5 11.5t55.5 6.5q13 0 13 -18l-3 -155h162q-16 -71 -42 -76q-18 -6 -120 -6q0 -223 -3 -337q-1 -32 -17.5 -61.5t-31.5 -29.5q-18 0 -35 27.5t-18 59.5q-6 250 -2 342h-141q1 19 7.5 47.5t15.5 33.5z" />
    <glyph glyph-name="daggerdbl" unicode="&#x2021;" horiz-adv-x="478" 
d="M53 440h118v137q7 5 38.5 11t54.5 6q11 0 14.5 -4t3.5 -15l-3 -135h160q-16 -72 -38 -77q-20 -6 -122 -6v-90h160q-15 -72 -38 -77q-28 -4 -122 -4q0 -13 -1.5 -78.5t-2.5 -104.5q-1 -31 -18.5 -61t-29.5 -30q-15 0 -33.5 28.5t-19.5 58.5q-3 103 -3 187h-140q0 9 7 42
t15 39h118v91h-140q0 10 7 43t15 39z" />
    <glyph glyph-name="bullet" unicode="&#x2022;" horiz-adv-x="403" 
d="M207 377h1q58 0 94.5 -42.5t36.5 -99.5q0 -64 -39 -103t-104 -39q-50 0 -91 35.5t-41 101.5q0 64 37.5 105.5t105.5 41.5z" />
    <glyph glyph-name="onedotenleader" unicode="&#x2024;" horiz-adv-x="500" 
d="M255 158h1q34 0 55 -24t21 -59q0 -40 -23 -63t-62 -23q-31 0 -55 21.5t-24 61.5q0 37 22.5 61.5t64.5 24.5z" />
    <glyph glyph-name="twodotenleader" unicode="&#x2025;" horiz-adv-x="514" 
d="M137 158h1q34 0 55 -24t21 -59q0 -40 -23 -63t-62 -23q-31 0 -55 21.5t-24 61.5q0 37 22.5 61.5t64.5 24.5zM386 158h1q34 0 55.5 -24t21.5 -59q0 -39 -23 -62.5t-62 -23.5q-31 0 -55 21.5t-24 61.5q0 37 22 61.5t64 24.5z" />
    <glyph glyph-name="ellipsis" unicode="&#x2026;" horiz-adv-x="856" 
d="M143 158h1q34 0 55 -24t21 -59q0 -39 -23 -62.5t-62 -23.5q-32 0 -56 21.5t-24 61.5q0 37 23.5 61.5t64.5 24.5zM428 158h1q34 0 55 -24t21 -59q0 -39 -23 -62.5t-62 -23.5q-32 0 -56 21.5t-24 61.5q0 37 23 61.5t65 24.5zM713 158h1q34 0 55 -24t21 -59q0 -39 -23 -62.5
t-62 -23.5q-32 0 -56 21.5t-24 61.5q0 37 23 61.5t65 24.5z" />
    <glyph glyph-name="perthousand" unicode="&#x2030;" horiz-adv-x="1051" 
d="M188 602h1q71 0 106.5 -44t35.5 -121q0 -68 -37.5 -117t-105.5 -49q-69 0 -110 41t-41 123q0 39 13.5 75t49.5 64t88 28zM182 537h-1q-19 0 -31 -26.5t-12 -73.5q0 -101 48 -101q22 0 33 27t11 70q0 104 -48 104zM578 576l-366 -591q-13 -21 -28 -11q-28 18 -38 37
l371 600q5 11 23 3q30 -13 38 -38zM547 319h1q71 0 107 -43.5t36 -121.5q0 -67 -38 -116.5t-106 -49.5q-70 0 -111 41t-41 124q0 27 8.5 54.5t25.5 53t47.5 42t70.5 16.5zM541 253h-1q-20 0 -32 -26t-12 -72q0 -47 12.5 -74.5t36.5 -27.5q21 0 33 28t12 70q0 102 -49 102z
M869 319h1q71 0 107 -43.5t36 -121.5q0 -67 -38 -116.5t-106 -49.5q-70 0 -110.5 41t-40.5 124q0 61 38 113.5t113 52.5zM863 253h-1q-19 0 -31 -25.5t-12 -72.5q0 -102 48 -102q22 0 33.5 28t11.5 70q0 102 -49 102z" />
    <glyph glyph-name="guilsinglleft" unicode="&#x2039;" horiz-adv-x="449" 
d="M290 49v-1q0 -14 -20 -29t-36 -20q-72 120 -175 211q-11 18 -11 28q54 38 98 88.5t99 129.5q15 -2 35 -17.5t21 -30.5q1 -23 -39 -84.5t-68 -95.5q23 -30 59.5 -94t36.5 -85z" />
    <glyph glyph-name="guilsinglright" unicode="&#x203a;" horiz-adv-x="449" 
d="M160 404v1q0 12 20.5 28t35.5 19q68 -115 175 -209q10 -15 10 -29q-55 -37 -98.5 -87t-97.5 -127q-15 1 -35.5 16.5t-21.5 31.5q-1 21 38 80t70 98q-24 32 -60 94t-36 84z" />
    <glyph glyph-name="fraction" unicode="&#x2044;" horiz-adv-x="78" 
d="M251 581l-360 -602q-8 -13 -14.5 -15t-13.5 3q-32 19 -42 38l365 611q9 14 25 6q33 -18 40 -41z" />
    <glyph glyph-name="zerosuperior" unicode="&#x2070;" 
d="M175 750h1q70 0 103 -45.5t33 -119.5q0 -67 -35.5 -114.5t-112.5 -47.5q-68 0 -103 44t-35 112q0 70 35 120.5t114 50.5zM170 680h-1q-35 0 -35 -93q0 -48 11 -71t27 -23q17 0 26 28t9 70q0 89 -37 89z" />
    <glyph glyph-name="foursuperior" unicode="&#x2074;" 
d="M278 767l1 -4l-61.5 -66t-52.5 -61.5t-50 -70.5q34 -4 54 -3l2 59q11 7 44.5 16t58.5 9h4v-83q21 0 40 2l2 -2q0 -23 -21 -65q-3 -1 -7 -2t-8 -1.5t-6 -0.5v-61q-33 -2 -61.5 -6t-45.5 -4l-4 4q2 40 2 65q-77 0 -127 8q-4 2 -14.5 20.5t-10.5 21.5q26 49 67.5 106
t71.5 85q10 10 50.5 20.5t71.5 13.5z" />
    <glyph glyph-name="fivesuperior" unicode="&#x2075;" 
d="M38 478l3 5q42 -12 75 -12q29 0 47.5 9.5t18.5 27.5q0 26 -37 36q-28 9 -95 17l-4 7q1 20 12.5 81t22.5 86q65 11 203 15q0 -37 -14 -65q-7 -18 -30 -20q-14 -1 -53 -2.5t-41 -1.5q0 -2 -2.5 -14.5t-3.5 -16.5q75 -14 97 -24q32 -14 47 -32.5t15 -51.5q0 -59 -49 -89
t-112 -30q-55 0 -79 16q-10 7 -16.5 25.5t-4.5 33.5z" />
    <glyph glyph-name="sixsuperior" unicode="&#x2076;" 
d="M306 716l-2 -3q-81 -16 -122 -48q-48 -37 -48 -112q0 -29 11.5 -45.5t28.5 -16.5q14 0 24.5 12t10.5 30q0 19 -11 30.5t-25 11.5q-9 0 -21 -3q2 33 8 43q6 7 25 13t36 6q48 0 69.5 -27.5t21.5 -63.5q0 -55 -38.5 -87.5t-106.5 -32.5q-64 0 -103.5 35.5t-39.5 100.5
q0 86 58 141q70 66 185 66q3 0 9 -4.5t15.5 -16.5t14.5 -29z" />
    <glyph glyph-name="sevensuperior" unicode="&#x2077;" 
d="M304 743l4 -4q-16 -97 -59 -184.5t-68 -113.5q-16 -16 -46 -20q-32 -5 -78 -5l-2 4q91 97 141 235h-117q-28 0 -37.5 6t-8.5 18q1 18 12.5 40t22.5 32q16 -8 53 -8h183z" />
    <glyph glyph-name="eightsuperior" unicode="&#x2078;" 
d="M175 750h1q47 0 83 -21.5t36 -65.5q0 -35 -46 -64q32 -15 46.5 -32.5t14.5 -45.5q0 -45 -42.5 -71.5t-102.5 -26.5q-65 0 -100 24t-35 65q0 10 3 18.5t8 14.5t12 12t13.5 10t13 7.5t11.5 5.5q-17 12 -25 18.5t-15.5 21t-7.5 33.5q0 44 38.5 70.5t93.5 26.5zM212 659v1
q0 14 -11.5 22.5t-29.5 8.5q-15 0 -24.5 -7t-9.5 -19q0 -22 57 -39q18 13 18 33zM172 483h1q37 0 37 28q0 23 -63 43q-19 -14 -19 -37q0 -12 13 -23t31 -11z" />
    <glyph glyph-name="ninesuperior" unicode="&#x2079;" 
d="M38 456l1 4q24 2 58 12.5t53 24.5q52 41 52 114q0 71 -40 71q-17 0 -26.5 -13t-9.5 -30q0 -22 13 -33.5t28 -11.5q10 0 19 2q0 -34 -15 -54q-19 -16 -50 -16q-47 0 -73 28t-26 69q0 52 39.5 89.5t109.5 37.5q75 0 109 -42.5t34 -104.5q0 -90 -67 -151q-60 -57 -152 -57
q-20 0 -37 19.5t-20 41.5z" />
    <glyph glyph-name="parenleftsuperior" unicode="&#x207d;" horiz-adv-x="266" 
d="M34 593v1q0 94 38 170.5t106 120.5q13 -3 29 -19.5t15 -28.5q-98 -91 -98 -223q0 -65 25.5 -128t72.5 -100q-6 -17 -25.5 -33t-32.5 -15q-49 24 -89.5 98t-40.5 157z" />
    <glyph glyph-name="parenrightsuperior" unicode="&#x207e;" horiz-adv-x="266" 
d="M228 628v-1q0 -94 -38 -170t-106 -120q-13 3 -29 19.5t-15 28.5q98 91 98 224q0 63 -25.5 126.5t-72.5 100.5q6 17 25.5 33t32.5 15q49 -24 89.5 -98.5t40.5 -157.5z" />
    <glyph glyph-name="nsuperior" unicode="&#x207f;" horiz-adv-x="428" 
d="M253 291v160q0 39 -33 39q-25 0 -45 -23v-168q0 -9 -3 -12.5t-14 -4.5q-48 -5 -102 -5q3 62 3 116v97q0 18 -20 30v4q19 25 35.5 36.5t43.5 11.5q19 0 33.5 -12.5t19.5 -27.5q45 40 94 40q60 0 82.5 -33.5t22.5 -72.5v-87q0 -71 2 -97q-80 -5 -101 -5q-18 0 -18 14z" />
    <glyph glyph-name="zeroinferior" unicode="&#x2080;" 
d="M175 198h1q70 0 103 -45.5t33 -119.5q0 -67 -35.5 -114.5t-112.5 -47.5q-68 0 -103 44t-35 112q0 70 35 120.5t114 50.5zM170 128h-1q-35 0 -35 -93q0 -48 11 -71t27 -23q17 0 26 28t9 70q0 89 -37 89z" />
    <glyph glyph-name="oneinferior" unicode="&#x2081;" 
d="M253 198l4 -4q-5 -107 -3 -300q0 -16 -26 -17l-90 -6q0 2 4 228q-11 -4 -47 -10t-37 -6l-3 2l21 67q138 31 177 46z" />
    <glyph glyph-name="twoinferior" unicode="&#x2082;" 
d="M42 91l-4 3q2 32 13 60q41 44 114 44q57 0 87.5 -29t30.5 -72q0 -18 -5.5 -34.5t-11 -27t-20 -25.5t-20 -20t-24 -19t-20.5 -16q23 -3 123 0q-4 -18 -16 -42.5t-22 -29.5q-32 -8 -95 -8q-107 0 -135 6l-3 9q13 32 23 48q106 80 106 135q0 19 -12.5 30t-33.5 11
q-44 0 -75 -23z" />
    <glyph glyph-name="threeinferior" unicode="&#x2083;" 
d="M82 -8l-4 7l8.5 25.5t9.5 25.5q80 8 80 45q0 13 -11.5 20.5t-29.5 7.5q-39 0 -79 -28q-14 21 -14 36t15 29q13 12 45 25t69 13q45 0 78.5 -22t33.5 -59q0 -43 -55 -70q76 -17 76 -80q0 -53 -47 -84.5t-117 -31.5q-46 0 -81 16q-22 18 -22 61l5 5q35 -14 73 -14
q69 0 69 41q0 35 -60 35q-8 0 -22.5 -1.5t-19.5 -1.5z" />
    <glyph glyph-name="fourinferior" unicode="&#x2084;" 
d="M278 215l1 -4l-61.5 -66t-52.5 -61.5t-50 -70.5q34 -4 54 -3l2 59q11 7 44.5 16t58.5 9h4v-83q21 0 40 2l2 -2q0 -23 -21 -65q-3 -1 -7 -2t-8 -1.5t-6 -0.5v-61q-33 -2 -61.5 -6t-45.5 -4l-4 4q2 40 2 65q-77 0 -127 8q-4 2 -14.5 20.5t-10.5 21.5q26 49 67.5 106
t71.5 85q10 10 50.5 20.5t71.5 13.5z" />
    <glyph glyph-name="fiveinferior" unicode="&#x2085;" 
d="M38 -74l3 5q42 -12 75 -12q29 0 47.5 9.5t18.5 27.5q0 26 -37 36q-28 9 -95 17l-4 7q1 20 12.5 81t22.5 86q65 11 203 15q0 -37 -14 -65q-7 -18 -30 -20q-14 -1 -53 -2.5t-41 -1.5q0 -2 -2.5 -14.5t-3.5 -16.5q75 -14 97 -24q32 -14 47 -32.5t15 -51.5q0 -59 -49 -89
t-112 -30q-55 0 -79 16q-10 7 -16.5 25.5t-4.5 33.5z" />
    <glyph glyph-name="sixinferior" unicode="&#x2086;" 
d="M306 164l-2 -3q-81 -16 -122 -48q-48 -37 -48 -112q0 -29 11.5 -45.5t28.5 -16.5q14 0 24.5 12t10.5 30q0 19 -11 30.5t-25 11.5q-9 0 -21 -3q2 33 8 43q6 7 25 13t36 6q48 0 69.5 -27.5t21.5 -63.5q0 -55 -38.5 -87.5t-106.5 -32.5q-64 0 -103.5 35.5t-39.5 100.5
q0 86 58 141q70 66 185 66q3 0 9 -4.5t15.5 -16.5t14.5 -29z" />
    <glyph glyph-name="seveninferior" unicode="&#x2087;" 
d="M304 191l4 -4q-16 -97 -59 -184.5t-68 -113.5q-16 -16 -46 -20q-32 -5 -78 -5l-2 4q91 97 141 235h-117q-28 0 -37.5 6t-8.5 18q1 18 12.5 40t22.5 32q16 -8 53 -8h183z" />
    <glyph glyph-name="eightinferior" unicode="&#x2088;" 
d="M175 198h1q47 0 83 -21.5t36 -65.5q0 -35 -46 -64q32 -15 46.5 -32.5t14.5 -45.5q0 -45 -42.5 -71.5t-102.5 -26.5q-65 0 -100 24t-35 65q0 38 58 66q2 1 3 2q-17 12 -25 18.5t-15.5 21t-7.5 33.5q0 44 38.5 70.5t93.5 26.5zM212 107v1q0 14 -11.5 22.5t-29.5 8.5
q-15 0 -24.5 -7t-9.5 -19q0 -22 57 -39q18 13 18 33zM172 -69h1q37 0 37 28q0 23 -63 43q-19 -14 -19 -37q0 -12 13 -23t31 -11z" />
    <glyph glyph-name="nineinferior" unicode="&#x2089;" 
d="M38 -96l1 4q24 2 58 12.5t53 24.5q52 41 52 114q0 71 -40 71q-17 0 -26.5 -13t-9.5 -30q0 -22 13 -33.5t28 -11.5q10 0 19 2q0 -34 -15 -54q-19 -16 -50 -16q-47 0 -73 28t-26 69q0 52 39.5 89.5t109.5 37.5q75 0 109 -42.5t34 -104.5q0 -90 -67 -151q-60 -57 -152 -57
q-20 0 -37 19.5t-20 41.5z" />
    <glyph glyph-name="parenleftinferior" unicode="&#x208d;" horiz-adv-x="266" 
d="M34 41v1q0 94 38 170.5t106 120.5q13 -3 29 -19.5t15 -28.5q-98 -91 -98 -223q0 -65 25.5 -128t72.5 -100q-6 -17 -25.5 -33t-32.5 -15q-49 24 -89.5 98t-40.5 157z" />
    <glyph glyph-name="parenrightinferior" unicode="&#x208e;" horiz-adv-x="266" 
d="M228 76v-1q0 -94 -38 -170t-106 -120q-13 3 -29 19.5t-15 28.5q98 91 98 224q0 63 -25.5 126.5t-72.5 100.5q6 17 25.5 33t32.5 15q49 -24 89.5 -98.5t40.5 -157.5z" />
    <glyph glyph-name="colonmonetary" unicode="&#x20a1;" horiz-adv-x="507" 
d="M322 597l8 46q1 22 20 27q26 7 67 7l-8 -83q66 -11 90 -43q2 -18 -17 -52q-17 -27 -39 -16q-8 5 -25 9.5l-21 5.5l-43 -403q8 -1 14 -1q63 0 112 20l4 -3q0 -19 -9.5 -49.5t-20.5 -37.5q-33 -23 -94 -23l-3 -1h-9l-8 -65q-3 -22 -23 -24q-42 -4 -68 -3l10 99
q-101 20 -161 92t-60 191q0 125 75.5 208.5t208.5 98.5zM269 114l43 387q-63 -10 -94 -66.5t-31 -137.5q0 -69 22 -117t60 -66z" />
    <glyph glyph-name="Euro" unicode="&#x20ac;" horiz-adv-x="507" 
d="M470 100l5 -1q-7 -59 -27 -86q-34 -25 -109 -25q-108 0 -175.5 54t-87.5 159h-73q10 40 22.5 53.5t32.5 13.5h10q-2 26 0 51h-45q9 39 19.5 52.5t29.5 13.5h7q25 99 96 158t173 59q92 0 129 -39q3 -35 -16 -56q-10 -17 -36 -13q-28 14 -64 14q-52 0 -89 -32.5t-53 -90.5
h208q-10 -42 -23 -54t-41 -12h-155q-2 -25 0 -51h189q-11 -42 -23.5 -54.5t-40.5 -12.5h-114q36 -119 157 -119q45 0 94 18z" />
    <glyph glyph-name="afii61289" unicode="&#x2113;" horiz-adv-x="509" 
d="M232 245v-26q0 -113 78 -113q40 0 65 18.5t49 60.5q28 -7 42.5 -23t13 -32t-8.5 -31q-70 -111 -201 -111q-79 0 -122 41.5t-43 120.5q-1 1 0 2.5t0 2.5l-12 -8t-14 -9q-35 -19 -54 18l-14 28l2 10q52 30 92 59v207q0 250 173 250q69 0 105.5 -45t36.5 -128
q0 -144 -188 -292zM232 514v-141q78 78 78 175q0 30 -10 48t-27 18q-21 0 -31 -22t-10 -78z" />
    <glyph glyph-name="afii61352" unicode="&#x2116;" horiz-adv-x="928" 
d="M76 614v6q6 2 75.5 5t84.5 3q5 0 19 -13q56 -52 104 -238l11.5 -45l14.5 -54.5l13.5 -49t14.5 -45.5t12 -27q0 10 -4 80.5t-4 100.5v260q0 16 3.5 21.5t13.5 5.5q28 4 100 4q-3 -65 -3 -184v-444q-3 -3 -63 -8t-71 -5q-5 0 -14 6q-19 20 -31.5 38t-32 61t-38.5 107
q-18 59 -35.5 123.5t-27 96t-16.5 44.5q6 -131 6 -207v-226q0 -18 -4 -23.5t-15 -8.5q-19 -4 -98 -4q3 60 3 182v401zM726 286h-1q-77 0 -119 47.5t-42 109.5q0 72 45 118t118 46q79 0 120.5 -43.5t41.5 -114.5q0 -72 -45.5 -117.5t-117.5 -45.5zM725 534h-1
q-20 0 -31.5 -23t-11.5 -63q0 -89 47 -89q44 0 44 91q0 84 -47 84zM587 148l-2 2q3 26 13.5 56t18.5 31q16 2 77 8.5t109 12.5t66 10l2 -1q-7 -41 -20 -64t-40 -30q-23 -6 -104 -14.5t-120 -10.5z" />
    <glyph glyph-name="trademark" unicode="&#x2122;" horiz-adv-x="474" 
d="M88 468v116h-51q-7 0 -6 9q4 26 11 33q5 -1 41 -1h118q0 -9 -6.5 -24t-12.5 -17h-39v-87q0 -9 0.5 -19.5t0.5 -12.5l-49 -2q-7 0 -7 5zM421 617l13 -93q3 -18 12 -59q-48 -4 -49 -4q-6 0 -8 10l-3 21l-3 21l-9 69l-34 -115q-16 -2 -39 -2q-2 7 -9.5 30l-14.5 44.5
t-11 32.5l-3.5 -25.5t-5.5 -43.5t-4 -36q-1 -6 -6 -6q-14 0 -42 4q2 10 11 63t15 82l-3 11q18 5 66 5q8 0 13 -16l20 -64l24 72l1 4q12 4 61 4q7 0 8 -9z" />
    <glyph glyph-name="Omega" unicode="&#x2126;" horiz-adv-x="781" 
d="M68 103l5 2q15 -8 86 -10q41 0 54 4q0 7 -3 8q-58 32 -93 93t-35 140q0 132 89 216t240 84q136 0 219.5 -79t83.5 -206q0 -161 -128 -248q-3 -1 -1 -4q1 -2 3 -2q22 -6 69 -6q90 0 102 3l3 -4q0 -21 -22.5 -56.5t-42.5 -39.5q-13 -2 -45.5 -3t-79 -1h-62.5q-80 0 -92 10
l-5 8l29 80q70 36 95 94.5t25 147.5q0 98 -42 155t-121 57q-81 0 -122.5 -58t-41.5 -152q0 -91 36.5 -156.5t89.5 -86.5l1 -4q-23 -69 -32 -78q-13 -11 -24 -12q-31 0 -79.5 -2.5t-80.5 -2.5q-87 0 -110 11q-15 7 -8 20q5 8 14.5 27.5l17 34.5t8.5 16z" />
    <glyph glyph-name="estimated" unicode="&#x212e;" horiz-adv-x="744" 
d="M714 286h-551q-6 0 -6 -4v-166q0 -10 8 -20q86 -91 209 -91q132 0 219 102h50q-47 -55 -118 -87t-152 -32q-141 0 -240.5 90t-99.5 217t99.5 217t240.5 90q142 0 241.5 -90t99.5 -217v-9zM589 308v169q0 12 -8 20q-85 87 -207 87q-120 0 -208 -90q-9 -11 -9 -21v-165
q0 -5 6 -5h422q4 0 4 5z" />
    <glyph glyph-name="onethird" unicode="&#x2153;" horiz-adv-x="750" 
d="M250 602l4 -4q-3 -31 0 -300q0 -16 -27 -17l-89 -6v49.5t0.5 99t0.5 80.5q-11 -4 -49 -10l-39 -7l-2 2l24 67q138 31 177 46zM570 586l-360 -601q-12 -20 -27 -12q-33 20 -42 38l364 610q9 14 25 6q33 -18 40 -41zM565 320h1q45 0 78 -21.5t33 -59.5q0 -43 -53 -70
q74 -13 74 -81q0 -51 -48.5 -83t-118.5 -32q-46 0 -81 16q-22 20 -22 65l4 2q34 -16 75 -16q36 0 53.5 12.5t17.5 32.5q0 35 -60 35q-8 0 -22.5 -1.5t-19.5 -1.5l-4 7q16 44 18 48q80 8 80 47q0 30 -39 30q-40 0 -81 -31q-14 19 -14 35q0 15 15 29q13 12 45 25t69 13z" />
    <glyph glyph-name="twothirds" unicode="&#x2154;" horiz-adv-x="750" 
d="M166 602h1q58 0 89 -27.5t31 -73.5q0 -18 -5 -34t-9.5 -26t-19 -25t-19.5 -19.5t-24.5 -20t-22.5 -17.5q24 -3 122 0q-19 -63 -38 -72q-32 -8 -95 -8q-107 0 -135 6l-4 15l24 42q106 80 106 137q0 42 -46 42t-80 -27l-4 2q0 3 15 62q42 44 114 44zM591 586l-359 -601
q-12 -20 -27 -12q-34 19 -42 38l363 610q9 15 26 6q32 -18 39 -41zM574 320h1q45 0 78 -21.5t33 -59.5q0 -43 -53 -70q74 -13 74 -81q0 -51 -48.5 -83t-118.5 -32q-45 0 -80 16q-22 18 -22 61l6 6q32 -16 72 -16q36 0 53.5 12.5t17.5 32.5q0 35 -59 35q-8 0 -23.5 -1.5
t-18.5 -1.5l-5 7q2 5 5.5 15.5t7 19.5t5.5 13q80 8 80 47q0 30 -39 30q-40 0 -81 -31q-13 18 -13 35q0 16 14 29q13 12 45 25t69 13z" />
    <glyph glyph-name="oneeighth" unicode="&#x215b;" horiz-adv-x="750" 
d="M253 602l2 -2q-6 -59 -3 -302q0 -16 -27 -17l-89 -6q0 3 4 229q-8 -3 -25.5 -6.5t-36 -6.5t-22.5 -4l-3 2l21 67q143 33 179 46zM571 586l-360 -601q-12 -20 -27 -12q-33 20 -42 38l364 610q9 14 25 6q33 -18 40 -41zM564 319h1q47 0 83 -21.5t36 -65.5q0 -35 -46 -64
q32 -15 46.5 -32.5t14.5 -45.5q0 -45 -42.5 -71.5t-102.5 -26.5q-65 0 -100 24t-35 65t61 68q-17 12 -25 18.5t-15.5 21t-7.5 34.5q0 43 38.5 69.5t93.5 26.5zM601 228v1q0 14 -11.5 22.5t-29.5 8.5q-15 0 -24.5 -7t-9.5 -19q0 -20 57 -39q18 15 18 33zM561 52h1q37 0 37 28
q0 24 -63 43q-19 -14 -19 -37q0 -12 13 -23t31 -11z" />
    <glyph glyph-name="threeeighths" unicode="&#x215c;" horiz-adv-x="750" 
d="M170 602h1q44 0 77.5 -23t33.5 -60q0 -26 -13 -40t-39 -29q74 -13 74 -80q0 -51 -49 -83t-119 -32q-45 0 -80 16q-22 20 -22 64l3 3q34 -16 76 -16q71 0 71 45q0 35 -60 35q-10 0 -42 -4l-5 7q1 4 8 23.5t10 25.5q80 8 80 47q0 30 -39 30q-41 0 -81 -32q-14 17 -14 36
q0 15 15 29q13 12 45 25t69 13zM592 586l-360 -601q-12 -20 -27 -12q-34 19 -42 38l364 610q9 14 25 6q33 -18 40 -41zM584 319h1q47 0 83 -21.5t36 -65.5q0 -35 -46 -64q32 -15 46.5 -32.5t14.5 -45.5q0 -45 -42.5 -71.5t-102.5 -26.5q-65 0 -100 24t-35 65t61 68
q-17 12 -25 18.5t-15.5 21t-7.5 34.5q0 43 38.5 69.5t93.5 26.5zM621 228v1q0 14 -11.5 22.5t-29.5 8.5q-15 0 -24.5 -7t-9.5 -19q0 -22 57 -39q18 15 18 33zM581 52h1q37 0 37 28q0 24 -63 43q-19 -14 -19 -37q0 -12 13 -23t31 -11z" />
    <glyph glyph-name="fiveeighths" unicode="&#x215d;" horiz-adv-x="750" 
d="M38 332l3 5q42 -12 72 -12q69 0 69 36q0 27 -37 37q-23 7 -93 16l-6 6q3 32 17.5 97.5t20.5 69.5q83 12 197 15q2 -30 -10 -65q-6 -18 -31 -20q-12 -1 -45.5 -2t-43.5 -2q0 -3 -1.5 -8.5t-3 -12.5t-2.5 -10q68 -13 92 -23q63 -24 63 -85q0 -59 -49 -89t-112 -30
q-54 0 -79 17q-10 7 -16.5 26t-4.5 34zM590 586l-360 -601q-8 -13 -14.5 -15t-13.5 3q-33 20 -42 38l364 610q9 15 25 6q34 -18 41 -41zM580 319h1q47 0 83 -21t36 -66q0 -35 -46 -64q61 -27 61 -78q0 -45 -42.5 -71.5t-102.5 -26.5q-65 0 -100.5 24t-35.5 65t61 68
q-17 12 -25 18.5t-15.5 21t-7.5 34.5q0 44 39 70t94 26zM617 229v1q0 13 -12 21.5t-30 8.5q-34 0 -34 -26q0 -20 58 -39q18 15 18 34zM577 52h1q37 0 37 28q0 24 -64 43q-19 -14 -19 -37q0 -12 13.5 -23t31.5 -11z" />
    <glyph glyph-name="seveneighths" unicode="&#x215e;" horiz-adv-x="750" 
d="M331 595l2 -4q-22 -107 -66 -190.5t-72 -107.5q-17 -17 -46 -21t-74 -4l-1 3q93 98 143 236h-117q-28 0 -37.5 5.5t-8.5 16.5q1 12 13.5 40t21.5 36q16 -10 53 -10h189zM560 588l-359 -603q-8 -13 -14.5 -15t-13.5 3q-33 20 -42 38l364 610q9 15 25 6q34 -18 40 -39z
M560 319h1q46 0 82 -21.5t36 -65.5q0 -35 -45 -64q61 -27 61 -78q0 -45 -42.5 -71.5t-102.5 -26.5q-65 0 -100.5 24t-35.5 65q0 39 61 69q-17 10 -25.5 17.5t-15.5 22t-7 33.5q0 44 39 70t94 26zM596 228v1q0 14 -11.5 22.5t-29.5 8.5q-15 0 -24.5 -7t-9.5 -19q0 -20 57 -39
q18 15 18 33zM557 52h1q37 0 37 28q0 24 -64 43q-19 -14 -19 -37q0 -12 13.5 -23t31.5 -11z" />
    <glyph glyph-name="partialdiff" unicode="&#x2202;" horiz-adv-x="557" 
d="M251 386h1q73 0 114 -47v8q0 97 -41 157t-116 60q-64 0 -121 -27q-8 18 -12 34q-20 52 26 73q58 27 135 27q126 0 197 -92.5t71 -252.5q0 -167 -72 -252.5t-190 -85.5q-98 0 -149.5 57.5t-51.5 141.5q0 93 60.5 146t148.5 53zM265 81h1q74 0 85 152q-3 21 -25 38.5
t-52 17.5q-34 0 -57.5 -27.5t-23.5 -76.5q0 -46 19 -75t53 -29z" />
    <glyph glyph-name="Delta" unicode="&#x2206;" horiz-adv-x="696" 
d="M41 4l-6 31l243 561v19q65 13 121 13q16 0 24 -19l237 -578l-11 -30q-55 -9 -430 -7q-144 0 -178 10zM198 114q31 -10 119 -10q127 0 159 4l-140 364z" />
    <glyph glyph-name="product" unicode="&#x220f;" horiz-adv-x="703" 
d="M625 524h-43v-596q0 -26 -8 -33t-39 -7h-101v636h-164v-596q0 -25 -8 -32.5t-34 -7.5h-106v636h-93l4 53q2 27 11 39t36 12h595l-6 -50q-4 -30 -13.5 -42t-30.5 -12z" />
    <glyph glyph-name="summation" unicode="&#x2211;" horiz-adv-x="549" 
d="M240 524v-4l137 -235l-169 -263v-5q66 -8 150 -8q114 0 167 5l3 -7q0 -15 -18.5 -51t-31.5 -46q-53 -10 -193 -10q-182 0 -243 10l-15 39l203 303l-193 335l17 41h454q-9 -67 -36 -98q-19 -6 -91 -6h-141z" />
    <glyph glyph-name="minus" unicode="&#x2212;" horiz-adv-x="608" 
d="M509 211h-443q1 56 8 76t26 20h443q-1 -56 -7.5 -76t-26.5 -20z" />
    <glyph glyph-name="uni2215" unicode="&#x2215;" horiz-adv-x="78" 
d="M251 581l-360 -602q-8 -13 -14.5 -15t-13.5 3q-32 19 -42 38l365 611q9 14 25 6q33 -18 40 -41z" />
    <glyph glyph-name="uni2219" unicode="&#x2219;" horiz-adv-x="241" 
d="M126 322h1q34 0 55 -24t21 -59q0 -39 -23 -62.5t-62 -23.5q-32 0 -56 21.5t-24 61.5q0 37 23 61.5t65 24.5z" />
    <glyph glyph-name="radical" unicode="&#x221a;" horiz-adv-x="571" 
d="M561 791l-195 -867q-6 -30 -18 -39t-39 -9h-59l-140 405l-57 -20q-17 1 -28 30t-4 48l175 67l84 -261q7 -24 23 -84h2q5 29 17 88l131 625q5 23 13.5 30t29.5 2q34 -6 65 -15z" />
    <glyph glyph-name="infinity" unicode="&#x221e;" horiz-adv-x="802" 
d="M577 86h-1q-22 0 -39 2.5t-42 11t-49.5 30t-46.5 55.5q-38 -50 -79 -74.5t-97 -24.5q-68 0 -118 49t-50 128q0 81 51.5 131.5t128.5 50.5q56 0 96.5 -22.5t77.5 -73.5q1 1 10 11t11 12.5t12 12.5t14.5 13.5l15 12t18 12l19 9t21.5 8t23.5 4t26.5 1.5q69 -1 118 -48.5
t49 -125.5q0 -77 -47 -131t-123 -54zM235 185h1q53 0 109 74q-22 31 -34.5 46.5t-33 28t-44.5 12.5q-31 0 -53 -20.5t-22 -61.5q0 -34 21.5 -56.5t55.5 -22.5zM572 185h1q30 0 50 24.5t20 52.5q0 38 -19.5 61t-57.5 23q-23 0 -44.5 -14.5t-31 -26.5l-29.5 -39
q35 -50 60 -65.5t51 -15.5z" />
    <glyph glyph-name="integral" unicode="&#x222b;" horiz-adv-x="387" 
d="M306 742h1q21 0 57 -9q15 -15 6.5 -48.5t-22.5 -40.5q-17 5 -31 5q-19 0 -32 -11t-19.5 -24.5t-10 -38t-3.5 -36.5v-36v-10q0 -67 8 -206t8 -221q0 -247 -170 -247q-43 0 -76 18q-9 15 -3 41.5t19 44.5q18 -7 36 -7q19 0 32.5 10.5t19.5 22t9.5 34.5t3.5 33.5v32.5
q0 84 -8 228.5t-8 217.5q0 247 183 247z" />
    <glyph glyph-name="approxequal" unicode="&#x2248;" horiz-adv-x="608" 
d="M202 439h1q51 0 128 -49q42 -26 70 -26q18 0 31 12t27 48q5 15 18 15q22 0 45 -9t32 -18q-16 -78 -59.5 -113.5t-92.5 -35.5q-58 0 -128 44q-44 28 -62 28q-41 0 -60 -54q-6 -18 -20 -18q-12 0 -41 10t-37 17q7 68 49.5 108.5t98.5 40.5zM204 238h1q49 0 126 -49
q42 -26 67 -26q19 0 33 12.5t28 47.5q5 15 18 15q22 0 45 -9t32 -18q-9 -44 -28 -75t-42.5 -46t-44.5 -21.5t-42 -6.5q-32 0 -57.5 9.5t-65.5 34.5q-44 28 -62 28q-42 0 -60 -54q-6 -18 -20 -18q-12 0 -41 10t-37 17q7 68 50.5 108.5t99.5 40.5z" />
    <glyph glyph-name="notequal" unicode="&#x2260;" horiz-adv-x="608" 
d="M372 510l79 -36l-30 -65h122q-1 -32 -3 -51t-10 -31.5t-21 -12.5h-130l-51 -114h215q-1 -32 -3 -51t-10 -31.5t-21 -12.5h-224l-43 -96l-80 38l26 58h-122q1 53 8 74t25 21h133l50 114h-216q1 53 8 74t25 21h227z" />
    <glyph glyph-name="lessequal" unicode="&#x2264;" horiz-adv-x="608" 
d="M543 507l-361 -146v-3l361 -148q0 -12 -5 -40t-10 -39q-6 -15 -26 -6l-420 183q-16 6 -16 27q0 43 12 67l424 191q21 10 30 -11q11 -29 11 -75zM509 0h-443q1 54 8 75t25 21h444q-1 -49 -8 -72.5t-26 -23.5z" />
    <glyph glyph-name="greaterequal" unicode="&#x2265;" horiz-adv-x="608" 
d="M66 210l361 146v3l-361 148q0 12 5 40.5t10 39.5q6 15 27 6l419 -184q16 -6 16 -26q0 -42 -12 -68l-423 -190q-22 -9 -31 11q-11 27 -11 74zM509 0h-443q1 54 8 75t25 21h444q-1 -49 -8 -72.5t-26 -23.5z" />
    <glyph glyph-name="lozenge" unicode="&#x25ca;" horiz-adv-x="578" 
d="M543 325l-188 -351q-43 -13 -98 -13q-21 0 -29.5 5t-19.5 27l-172 330l189 353q15 4 53.5 11t51.5 7q12 0 15 -2t10 -12zM418 319l-130 263h-2l-124 -263l128 -258h2z" />
    <glyph glyph-name="A.sc" unicode="&#xe000;" horiz-adv-x="569" 
d="M362 94h-169q-6 -27 -30 -82q-7 -16 -31 -16q-58 0 -108 10l-1 3q18 48 92 226.5t90 219.5l-2 16q96 11 139 11q12 0 17 -7q20 -45 42.5 -103.5l44.5 -117t28 -72.5q35 -91 72 -172l-1 -4q-19 -10 -127 -10q-22 0 -30 24l-11.5 32l-10 28t-4.5 14zM221 189h111
l-35.5 103.5t-20.5 60.5l-24.5 -74z" />
    <glyph glyph-name="AE.sc" unicode="&#xe001;" horiz-adv-x="715" 
d="M344 165h-126q-52 -127 -73 -161q-4 -8 -20 -8q-80 0 -110 11v7q21 41 105 217l104 216q6 14 8 22q11 1 56.5 4t60.5 3h309q-11 -70 -30 -85q-12 -9 -94 -9h-63l12 -123h169q-18 -60 -34.5 -77.5t-37.5 -17.5h-91l8 -70q7 -5 36 -5q127 0 160 3l1 -6q-18 -56 -65 -86
q-8 -4 -80 -4q-141 0 -181 7l-12 16zM257 259h82l-8 125h-21q-40 -88 -53 -125z" />
    <glyph glyph-name="AEacute.sc" unicode="&#xe002;" horiz-adv-x="715" 
d="M344 165h-126q-52 -127 -73 -161q-4 -8 -20 -8q-80 0 -110 11v7q21 41 105 217l104 216q6 14 8 22q11 1 56.5 4t60.5 3h309q-11 -70 -30 -85q-12 -9 -94 -9h-63l12 -123h169q-18 -60 -34.5 -77.5t-37.5 -17.5h-91l8 -70q7 -5 36 -5q127 0 160 3l1 -6q-18 -56 -65 -86
q-8 -4 -80 -4q-141 0 -181 7l-12 16zM257 259h82l-8 125h-21q-40 -88 -53 -125zM450 709q45 -11 76 -55q5 -7 3.5 -10.5t-12.5 -10.5q-60 -39 -159 -115q-24 11 -38 28q-9 9 2 31q27 44 66.5 90.5t61.5 41.5z" />
    <glyph glyph-name="Aacute.sc" unicode="&#xe003;" horiz-adv-x="569" 
d="M362 94h-169q-6 -27 -30 -82q-7 -16 -31 -16q-58 0 -108 10l-1 3q18 48 92 226.5t90 219.5l-2 16q96 11 139 11q12 0 17 -7q20 -45 42.5 -103.5l44.5 -117t28 -72.5q35 -91 72 -172l-1 -4q-19 -10 -127 -10q-22 0 -30 24l-11.5 32l-10 28t-4.5 14zM221 189h111
l-35.5 103.5t-20.5 60.5l-24.5 -74zM372 721q45 -11 76 -55q5 -7 3.5 -10.5t-12.5 -10.5q-60 -39 -159 -115q-24 11 -38 28q-9 9 2 31q27 44 66.5 90.5t61.5 41.5z" />
    <glyph glyph-name="Abreve.sc" unicode="&#xe004;" horiz-adv-x="569" 
d="M362 94h-169q-6 -27 -30 -82q-7 -16 -31 -16q-58 0 -108 10l-1 3q18 48 92 226.5t90 219.5l-2 16q96 11 139 11q12 0 17 -7q20 -45 42.5 -103.5l44.5 -117t28 -72.5q35 -91 72 -172l-1 -4q-19 -10 -127 -10q-22 0 -30 24l-11.5 32l-10 28t-4.5 14zM221 189h111
l-35.5 103.5t-20.5 60.5l-24.5 -74zM213 707h1q13 0 13 -12q6 -42 19 -58.5t34 -16.5q30 0 45.5 19.5t22.5 56.5q0 3 3.5 7t10.5 4q18 0 37.5 -7t18.5 -16q-16 -152 -145 -152q-55 0 -88.5 40t-32.5 108q0 13 20 20t41 7z" />
    <glyph glyph-name="Acircumflex.sc" unicode="&#xe005;" horiz-adv-x="569" 
d="M362 94h-169q-6 -27 -30 -82q-7 -16 -31 -16q-58 0 -108 10l-1 3q18 48 92 226.5t90 219.5l-2 16q96 11 139 11q12 0 17 -7q20 -45 42.5 -103.5l44.5 -117t28 -72.5q35 -91 72 -172l-1 -4q-19 -10 -127 -10q-22 0 -30 24l-11.5 32l-10 28t-4.5 14zM221 189h111
l-35.5 103.5t-20.5 60.5l-24.5 -74zM209 532h-1q-22 0 -68 14q82 103 105 138q5 12 22 15q22 5 51 5q48 -71 113 -152q-40 -20 -69 -20q-17 0 -24 8q-34 42 -56 66q-2 -3 -19.5 -24.5t-27.5 -32.5q-15 -17 -26 -17z" />
    <glyph glyph-name="Adieresis.sc" unicode="&#xe006;" horiz-adv-x="569" 
d="M362 94h-169q-6 -27 -30 -82q-7 -16 -31 -16q-58 0 -108 10l-1 3q18 48 92 226.5t90 219.5l-2 16q96 11 139 11q12 0 17 -7q20 -45 42.5 -103.5l44.5 -117t28 -72.5q35 -91 72 -172l-1 -4q-19 -10 -127 -10q-22 0 -30 24l-11.5 32l-10 28t-4.5 14zM221 189h111
l-35.5 103.5t-20.5 60.5l-24.5 -74zM177 689h1q26 0 44 -20.5t18 -46.5q0 -33 -19 -52.5t-51 -19.5q-25 0 -44.5 17.5t-19.5 49.5t18.5 52t52.5 20zM394 689h1q26 0 43.5 -20t17.5 -47q0 -33 -18.5 -52.5t-50.5 -19.5q-25 0 -44.5 17.5t-19.5 49.5t18.5 52t52.5 20z" />
    <glyph glyph-name="Agrave.sc" unicode="&#xe007;" horiz-adv-x="569" 
d="M362 94h-169q-6 -27 -30 -82q-7 -16 -31 -16q-58 0 -108 10l-1 3q18 48 92 226.5t90 219.5l-2 16q96 11 139 11q12 0 17 -7q20 -45 42.5 -103.5l44.5 -117t28 -72.5q35 -91 72 -172l-1 -4q-19 -10 -127 -10q-22 0 -30 24l-11.5 32l-10 28t-4.5 14zM221 189h111
l-35.5 103.5t-20.5 60.5l-24.5 -74zM212 730q16 4 56 -45t64 -94q8 -16 -4 -30q-16 -19 -38 -25q-56 51 -157 115q-14 8 -2 23q12 17 34.5 33.5t46.5 22.5z" />
    <glyph glyph-name="Amacron.sc" unicode="&#xe008;" horiz-adv-x="569" 
d="M362 94h-169q-6 -27 -30 -82q-7 -16 -31 -16q-58 0 -108 10l-1 3q18 48 92 226.5t90 219.5l-2 16q96 11 139 11q12 0 17 -7q20 -45 42.5 -103.5l44.5 -117t28 -72.5q35 -91 72 -172l-1 -4q-19 -10 -127 -10q-22 0 -30 24l-11.5 32l-10 28t-4.5 14zM221 189h111
l-35.5 103.5t-20.5 60.5l-24.5 -74zM401 552h-232q-15 0 -15 18t7.5 46t12.5 33h235q15 0 15 -16q0 -21 -7.5 -45.5t-15.5 -35.5z" />
    <glyph glyph-name="Aogonek.sc" unicode="&#xe009;" horiz-adv-x="566" 
d="M542 16v-5q-42 -25 -66.5 -65t-24.5 -75q0 -23 16.5 -39.5t39.5 -16.5q34 0 54 11q5 0 8 -6q0 -12 -5 -32t-10 -25q-12 -15 -43.5 -26.5t-65.5 -11.5q-53 0 -82.5 31.5t-29.5 80.5q0 40 28 82.5t77 75.5h-8t-7.5 0.5t-6.5 1t-6.5 1t-5 1.5t-5 3t-4 4.5t-4 6t-3.5 7.5
q-24 67 -25 74h-170q-7 -24 -32 -82q-7 -16 -31 -16q-53 0 -105 10l-1 6q19 50 95.5 228.5l91.5 214.5l-2 16q94 11 137 11q12 0 17 -7q18 -42 112 -293q36 -94 67 -166zM222 189h112q-38 121 -55 163z" />
    <glyph glyph-name="Aring.sc" unicode="&#xe00a;" horiz-adv-x="569" 
d="M362 94h-169q-6 -27 -30 -82q-7 -16 -31 -16q-58 0 -108 10l-1 3q18 48 92 226.5t90 219.5l-2 16q96 11 139 11q12 0 17 -7q20 -45 42.5 -103.5l44.5 -117t28 -72.5q35 -91 72 -172l-1 -4q-19 -10 -127 -10q-22 0 -30 24l-11.5 32l-10 28t-4.5 14zM221 189h111
l-35.5 103.5t-20.5 60.5l-24.5 -74zM290 748h1q49 0 79.5 -33.5t30.5 -75.5q0 -50 -32.5 -82.5t-85.5 -32.5q-44 0 -78 29t-34 80q0 52 33 83.5t86 31.5zM286 687h-1q-19 0 -30 -16t-11 -37q0 -24 12.5 -36.5t31.5 -12.5q40 0 40 49q0 53 -42 53z" />
    <glyph glyph-name="Atilde.sc" unicode="&#xe00b;" horiz-adv-x="569" 
d="M362 94h-169q-6 -27 -30 -82q-7 -16 -31 -16q-58 0 -108 10l-1 3q18 48 92 226.5t90 219.5l-2 16q96 11 139 11q12 0 17 -7q20 -45 42.5 -103.5l44.5 -117t28 -72.5q35 -91 72 -172l-1 -4q-19 -10 -127 -10q-22 0 -30 24l-11.5 32l-10 28t-4.5 14zM221 189h111
l-35.5 103.5t-20.5 60.5l-24.5 -74zM244 715h1q34 0 65 -40q19 -23 27 -23q16 0 26 51q3 12 12 12t28.5 -4.5t28.5 -11.5q-11 -146 -91 -146q-33 0 -70 43q-21 25 -32 25q-15 -1 -27 -50q-2 -12 -9 -12q-42 0 -62 9q12 147 103 147z" />
    <glyph glyph-name="B.sc" unicode="&#xe00c;" horiz-adv-x="517" 
d="M72 8v361q0 63 -3 91q6 3 33 7.5t71.5 9.5t83.5 5q114 0 158.5 -33.5t44.5 -90.5q0 -34 -21 -59.5t-54 -35.5q58 -17 82.5 -45.5t24.5 -70.5q0 -153 -261 -153q-98 0 -159 14zM211 395v-111q47 2 79 2q34 16 34 52q0 31 -21 46.5t-48 15.5q-21 0 -44 -5zM211 202v-122
q17 -4 45 -4q34 0 57.5 17t23.5 48q0 29 -21 46t-60 17q-36 0 -45 -2z" />
    <glyph glyph-name="C.sc" unicode="&#xe00d;" horiz-adv-x="510" 
d="M479 111l3 -2q0 -28 -11 -56t-24 -40q-33 -25 -118 -25q-140 0 -216.5 67t-76.5 178q0 122 84.5 188.5t209.5 66.5q55 0 99 -14.5t56 -30.5q3 -11 -8.5 -37.5t-18.5 -30.5q-12 -10 -25 -5q-44 19 -98 19q-65 0 -105.5 -38t-40.5 -108q0 -68 45.5 -110t127.5 -42
q66 0 117 20z" />
    <glyph glyph-name="Cacute.sc" unicode="&#xe00e;" horiz-adv-x="510" 
d="M479 111l3 -2q0 -28 -11 -56t-24 -40q-33 -25 -118 -25q-140 0 -216.5 67t-76.5 178q0 122 84.5 188.5t209.5 66.5q55 0 99 -14.5t56 -30.5q3 -11 -8.5 -37.5t-18.5 -30.5q-12 -10 -25 -5q-44 19 -98 19q-65 0 -105.5 -38t-40.5 -108q0 -68 45.5 -110t127.5 -42
q66 0 117 20zM353 709q45 -11 76 -55q5 -7 3.5 -10.5t-12.5 -10.5q-60 -39 -159 -115q-24 11 -38 28q-9 9 2 31q27 44 66.5 90.5t61.5 41.5z" />
    <glyph glyph-name="Ccaron.sc" unicode="&#xe00f;" horiz-adv-x="510" 
d="M479 111l3 -2q0 -28 -11 -56t-24 -40q-33 -25 -118 -25q-140 0 -216.5 67t-76.5 178q0 122 84.5 188.5t209.5 66.5q55 0 99 -14.5t56 -30.5q3 -11 -8.5 -37.5t-18.5 -30.5q-12 -10 -25 -5q-44 19 -98 19q-65 0 -105.5 -38t-40.5 -108q0 -68 45.5 -110t127.5 -42
q66 0 117 20zM219 703h1q17 0 23 -9q18 -18 56 -65q20 26 49 59q12 15 26 15q17 0 69 -12q-73 -93 -105 -141q-9 -14 -23 -16q-38 -4 -51 -4q-49 71 -114 155q46 18 69 18z" />
    <glyph glyph-name="Ccedilla.sc" unicode="&#xe010;" horiz-adv-x="511" 
d="M208 -88l62 80q-112 12 -172.5 77t-60.5 164q0 123 85 189t211 66q57 0 99 -13.5t55 -31.5q3 -11 -9 -38t-18 -33q-13 -7 -24 -2q-38 19 -101 19q-66 0 -105.5 -37.5t-39.5 -107.5q0 -68 45.5 -110.5t128.5 -42.5q60 0 118 22l2 -2q-7 -76 -31 -97q-33 -21 -104 -24
l-30 -43q32 -10 51.5 -33.5t19.5 -54.5q0 -49 -47 -83t-106 -36q-13 4 -23.5 19t-10.5 26q0 12 10 15q68 15 68 46q0 17 -20.5 27.5t-52.5 6.5v32z" />
    <glyph glyph-name="Ccircumflex.sc" unicode="&#xe011;" horiz-adv-x="510" 
d="M479 111l3 -2q0 -28 -11 -56t-24 -40q-33 -25 -118 -25q-140 0 -216.5 67t-76.5 178q0 122 84.5 188.5t209.5 66.5q55 0 99 -14.5t56 -30.5q3 -11 -8.5 -37.5t-18.5 -30.5q-12 -10 -25 -5q-44 19 -98 19q-65 0 -105.5 -38t-40.5 -108q0 -68 45.5 -110t127.5 -42
q66 0 117 20zM219 526h-1q-22 0 -68 14q82 103 105 138q5 12 22 15q22 5 51 5q48 -71 113 -152q-40 -20 -69 -20q-17 0 -24 8q-34 42 -56 66q-2 -2 -19.5 -24t-27.5 -33q-15 -17 -26 -17z" />
    <glyph glyph-name="Cdotaccent.sc" unicode="&#xe012;" horiz-adv-x="510" 
d="M479 111l3 -2q0 -28 -11 -56t-24 -40q-33 -25 -118 -25q-140 0 -216.5 67t-76.5 178q0 122 84.5 188.5t209.5 66.5q55 0 99 -14.5t56 -30.5q3 -11 -8.5 -37.5t-18.5 -30.5q-12 -10 -25 -5q-44 19 -98 19q-65 0 -105.5 -38t-40.5 -108q0 -68 45.5 -110t127.5 -42
q66 0 117 20zM302 692h1q27 0 46 -20t19 -48q0 -33 -19.5 -52.5t-52.5 -19.5q-25 0 -45 18t-20 50t18 52t53 20z" />
    <glyph glyph-name="D.sc" unicode="&#xe013;" horiz-adv-x="584" 
d="M72 8v369q0 75 -1 83q22 7 79 14.5t113 7.5q70 0 123.5 -16t83.5 -40t48.5 -58t24.5 -63.5t6 -63.5q0 -58 -19.5 -102t-50.5 -71t-76 -44t-90.5 -23.5t-98.5 -6.5q-78 0 -142 14zM215 386v-297q32 -4 42 -4q12 0 25.5 2t35 11.5t38 25t29 46.5t12.5 72q0 76 -39.5 111.5
t-95.5 35.5q-20 0 -47 -3z" />
    <glyph glyph-name="Dcaron.sc" unicode="&#xe014;" horiz-adv-x="584" 
d="M72 8v369q0 75 -1 83q22 7 79 14.5t113 7.5q70 0 123.5 -16t83.5 -40t48.5 -58t24.5 -63.5t6 -63.5q0 -58 -19.5 -102t-50.5 -71t-76 -44t-90.5 -23.5t-98.5 -6.5q-78 0 -142 14zM215 386v-297q32 -4 42 -4q12 0 25.5 2t35 11.5t38 25t29 46.5t12.5 72q0 76 -39.5 111.5
t-95.5 35.5q-20 0 -47 -3zM203 701h1q17 0 23 -9q18 -18 56 -65q20 26 49 59q12 15 26 15q17 0 69 -12q-73 -93 -105 -141q-9 -14 -23 -16q-38 -4 -51 -4q-49 71 -114 155q46 18 69 18z" />
    <glyph glyph-name="Dcroat.sc" unicode="&#xe015;" horiz-adv-x="595" 
d="M83 4v197h-63q4 53 14.5 68.5t29.5 15.5h19v93q0 65 -1 90q80 14 191 14q87 0 147.5 -23.5t89 -63t39.5 -77.5t11 -82q0 -115 -92 -182q-82 -60 -243 -60q-60 0 -142 10zM227 387v-102h106q-6 -55 -16.5 -69.5t-32.5 -14.5h-57v-113q11 -2 37 -2q13 0 26 1.5t36 10.5
t39.5 24t29 46.5t12.5 73.5q0 74 -40.5 111t-98.5 37q-26 0 -41 -3z" />
    <glyph glyph-name="Dotlessismall.cap" unicode="&#xe016;" horiz-adv-x="285" 
d="M72 11v372q0 67 -3 93q34 6 130 6q10 0 13 -8.5t3 -35.5v-343q0 -42 3 -93q-18 -6 -126 -6q-12 0 -16 3t-4 12z" />
    <glyph glyph-name="E.sc" unicode="&#xe017;" horiz-adv-x="444" 
d="M72 19v350q0 62 -2 97q20 1 66.5 5t71.5 5h39h81.5h75.5q-5 -65 -30 -90q-12 -5 -74 -5h-85v-92h181q-14 -61 -28.5 -77t-39.5 -16h-113v-101q18 -5 97 -5q80 0 113 4v-3q-15 -74 -51 -89q-13 -6 -113 -6q-131 0 -175 7z" />
    <glyph glyph-name="Eacute.sc" unicode="&#xe018;" horiz-adv-x="444" 
d="M72 19v350q0 62 -2 97q20 1 66.5 5t71.5 5h39h81.5h75.5q-5 -65 -30 -90q-12 -5 -74 -5h-85v-92h181q-14 -61 -28.5 -77t-39.5 -16h-113v-101q18 -5 97 -5q80 0 113 4v-3q-15 -74 -51 -89q-13 -6 -113 -6q-131 0 -175 7zM321 719q45 -11 76 -55q5 -7 3.5 -10.5
t-12.5 -10.5q-60 -39 -159 -115q-24 11 -38 28q-9 9 2 31q27 44 66.5 90.5t61.5 41.5z" />
    <glyph glyph-name="Ebreve.sc" unicode="&#xe019;" horiz-adv-x="444" 
d="M72 19v350q0 62 -2 97q20 1 66.5 5t71.5 5h39h81.5h75.5q-5 -65 -30 -90q-12 -5 -74 -5h-85v-92h181q-14 -61 -28.5 -77t-39.5 -16h-113v-101q18 -5 97 -5q80 0 113 4v-3q-15 -74 -51 -89q-13 -6 -113 -6q-131 0 -175 7zM165 707h1q13 0 13 -12q6 -42 19 -58.5t34 -16.5
q30 0 45.5 19.5t22.5 56.5q0 3 3.5 7t10.5 4q18 0 37.5 -7t18.5 -16q-16 -152 -145 -152q-55 0 -88.5 40t-32.5 108q0 13 20 20t41 7z" />
    <glyph glyph-name="Ecaron.sc" unicode="&#xe01a;" horiz-adv-x="444" 
d="M72 19v350q0 62 -2 97q20 1 66.5 5t71.5 5h39h81.5h75.5q-5 -65 -30 -90q-12 -5 -74 -5h-85v-92h181q-14 -61 -28.5 -77t-39.5 -16h-113v-101q18 -5 97 -5q80 0 113 4v-3q-15 -74 -51 -89q-13 -6 -113 -6q-131 0 -175 7zM163 701h1q17 0 23 -9q18 -18 56 -65q20 26 49 59
q12 15 26 15q17 0 69 -12q-73 -93 -105 -141q-9 -14 -23 -16q-38 -4 -51 -4q-49 71 -114 155q46 18 69 18z" />
    <glyph glyph-name="Ecircumflex.sc" unicode="&#xe01b;" horiz-adv-x="444" 
d="M72 19v350q0 62 -2 97q20 1 66.5 5t71.5 5h39h81.5h75.5q-5 -65 -30 -90q-12 -5 -74 -5h-85v-92h181q-14 -61 -28.5 -77t-39.5 -16h-113v-101q18 -5 97 -5q80 0 113 4v-3q-15 -74 -51 -89q-13 -6 -113 -6q-131 0 -175 7zM155 532h-1q-22 0 -68 14q82 103 105 138
q5 12 22 15q22 5 51 5q48 -71 113 -152q-40 -20 -69 -20q-17 0 -24 8q-34 42 -56 66q-2 -3 -19.5 -24.5t-27.5 -32.5q-15 -17 -26 -17z" />
    <glyph glyph-name="Edieresis.sc" unicode="&#xe01c;" horiz-adv-x="444" 
d="M72 19v350q0 62 -2 97q20 1 66.5 5t71.5 5h39h81.5h75.5q-5 -65 -30 -90q-12 -5 -74 -5h-85v-92h181q-14 -61 -28.5 -77t-39.5 -16h-113v-101q18 -5 97 -5q80 0 113 4v-3q-15 -74 -51 -89q-13 -6 -113 -6q-131 0 -175 7zM128 681h1q26 0 44 -20.5t18 -46.5
q0 -33 -19 -52.5t-51 -19.5q-25 0 -44.5 17.5t-19.5 49.5t18.5 52t52.5 20zM345 681h1q26 0 43.5 -20t17.5 -47q0 -33 -18.5 -52.5t-50.5 -19.5q-25 0 -44.5 17.5t-19.5 49.5t18.5 52t52.5 20z" />
    <glyph glyph-name="Edotaccent.sc" unicode="&#xe01d;" horiz-adv-x="444" 
d="M72 19v350q0 62 -2 97q20 1 66.5 5t71.5 5h39h81.5h75.5q-5 -65 -30 -90q-12 -5 -74 -5h-85v-92h181q-14 -61 -28.5 -77t-39.5 -16h-113v-101q18 -5 97 -5q80 0 113 4v-3q-15 -74 -51 -89q-13 -6 -113 -6q-131 0 -175 7zM239 682h1q27 0 46 -20t19 -48q0 -33 -19.5 -52.5
t-52.5 -19.5q-25 0 -45 18t-20 50t18 52t53 20z" />
    <glyph glyph-name="Egrave.sc" unicode="&#xe01e;" horiz-adv-x="444" 
d="M72 19v350q0 62 -2 97q20 1 66.5 5t71.5 5h39h81.5h75.5q-5 -65 -30 -90q-12 -5 -74 -5h-85v-92h181q-14 -61 -28.5 -77t-39.5 -16h-113v-101q18 -5 97 -5q80 0 113 4v-3q-15 -74 -51 -89q-13 -6 -113 -6q-131 0 -175 7zM168 728q16 4 56 -45t64 -94q8 -16 -4 -30
q-16 -19 -38 -25q-56 51 -157 115q-14 8 -2 23q12 17 34.5 33.5t46.5 22.5z" />
    <glyph glyph-name="Emacron.sc" unicode="&#xe01f;" horiz-adv-x="444" 
d="M72 19v350q0 62 -2 97q20 1 66.5 5t71.5 5h39h81.5h75.5q-5 -65 -30 -90q-12 -5 -74 -5h-85v-92h181q-14 -61 -28.5 -77t-39.5 -16h-113v-101q18 -5 97 -5q80 0 113 4v-3q-15 -74 -51 -89q-13 -6 -113 -6q-131 0 -175 7zM347 553h-232q-15 0 -15 18t7.5 46t12.5 33h235
q15 0 15 -16q0 -21 -7.5 -45.5t-15.5 -35.5z" />
    <glyph glyph-name="Eng.sc" unicode="&#xe020;" horiz-adv-x="587" 
d="M278 -150l3 4q62 14 83 31.5t21 64.5q0 28 -23 65l-94 175q-49 89 -88 180q6 -61 6 -175v-174q0 -17 -17 -22q-32 -5 -99 -3q2 32 2 140v318l-3 18v4q48 6 159 6q20 0 27 -12q51 -82 96 -174q49 -97 57 -125q-6 104 -6 155v132q0 8 2 12.5t5.5 6t11.5 2.5q33 3 97 3
q-2 -64 -2 -140v-274q0 -163 -45 -221q-48 -64 -140 -64q-18 0 -33 21t-20 46z" />
    <glyph glyph-name="Eogonek.sc" unicode="&#xe021;" horiz-adv-x="444" 
d="M423 93l2 -4q-14 -73 -52 -87q-8 -4 -23 -4q-85 -63 -85 -130q0 -23 16 -38t40 -15q33 0 55 11q5 0 8 -6q0 -12 -5 -32t-9 -25q-13 -15 -44.5 -26.5t-65.5 -11.5q-52 0 -82 32t-30 80q0 39 28.5 82t76.5 77q-124 0 -168 7l-13 16v350q0 62 -2 97q20 1 66.5 5t71.5 5h39
h81.5h75.5q-5 -65 -30 -90q-12 -5 -74 -5h-85v-92h181q-14 -61 -28.5 -77t-39.5 -16h-113v-101q18 -5 97 -5q86 0 111 3z" />
    <glyph glyph-name="Eth.sc" unicode="&#xe022;" horiz-adv-x="595" 
d="M83 4v197h-63q4 53 14.5 68.5t29.5 15.5h19v93q0 65 -1 90q80 14 191 14q87 0 147.5 -23.5t89 -63t39.5 -77.5t11 -82q0 -115 -92 -182q-82 -60 -243 -60q-60 0 -142 10zM227 387v-102h106q-6 -55 -16.5 -69.5t-32.5 -14.5h-57v-113q11 -2 37 -2q13 0 26 1.5t36 10.5
t39.5 24t29 46.5t12.5 73.5q0 74 -40.5 111t-98.5 37q-26 0 -41 -3z" />
    <glyph glyph-name="F.sc" unicode="&#xe023;" horiz-adv-x="452" 
d="M72 11v374q0 18 -2 80q11 6 146 11h208q-10 -67 -36 -91q-13 -3 -67 -3h-106v-109h190q-10 -62 -25.5 -78t-49.5 -16h-115q-1 -16 2 -177q-19 -6 -125 -6q-20 0 -20 15z" />
    <glyph glyph-name="G.sc" unicode="&#xe024;" horiz-adv-x="570" 
d="M373 85v83q0 34 -6 61q102 11 129 11q19 0 19 -22v-177q-20 -18 -73 -41q-51 -12 -115 -12q-59 0 -108.5 12.5t-92 40t-66.5 77.5t-24 119q0 122 87 186.5t213 64.5q70 0 119.5 -20t59.5 -37q0 -24 -24 -55q-20 -22 -39 -12q-52 25 -108 25q-65 0 -109.5 -39.5
t-44.5 -115.5q0 -71 43 -112t108 -41q20 0 32 4z" />
    <glyph glyph-name="Gbreve.sc" unicode="&#xe025;" horiz-adv-x="570" 
d="M373 85v83q0 34 -6 61q102 11 129 11q19 0 19 -22v-177q-20 -18 -73 -41q-51 -12 -115 -12q-59 0 -108.5 12.5t-92 40t-66.5 77.5t-24 119q0 122 87 186.5t213 64.5q70 0 119.5 -20t59.5 -37q0 -24 -24 -55q-20 -22 -39 -12q-52 25 -108 25q-65 0 -109.5 -39.5
t-44.5 -115.5q0 -71 43 -112t108 -41q20 0 32 4zM229 709h1q13 0 13 -12q6 -42 19 -58.5t34 -16.5q30 0 45.5 19.5t22.5 56.5q0 3 3.5 7t10.5 4q18 0 37.5 -7t18.5 -16q-16 -152 -145 -152q-55 0 -88.5 40t-32.5 108q0 13 20 20t41 7z" />
    <glyph glyph-name="Gcircumflex.sc" unicode="&#xe026;" horiz-adv-x="570" 
d="M373 85v83q0 34 -6 61q102 11 129 11q19 0 19 -22v-177q-20 -18 -73 -41q-51 -12 -115 -12q-59 0 -108.5 12.5t-92 40t-66.5 77.5t-24 119q0 122 87 186.5t213 64.5q70 0 119.5 -20t59.5 -37q0 -24 -24 -55q-20 -22 -39 -12q-52 25 -108 25q-65 0 -109.5 -39.5
t-44.5 -115.5q0 -71 43 -112t108 -41q20 0 32 4zM221 533h-1q-22 0 -68 14q82 103 105 138q5 12 22 15q23 5 51 5q48 -71 113 -152q-40 -20 -69 -20q-17 0 -24 8q-34 42 -56 66q-2 -3 -19.5 -24.5t-27.5 -32.5q-15 -17 -26 -17z" />
    <glyph glyph-name="Gcommaaccent.sc" unicode="&#xe027;" horiz-adv-x="570" 
d="M373 85v83q0 34 -6 61q102 11 129 11q19 0 19 -22v-177q-20 -18 -73 -41q-51 -12 -115 -12q-59 0 -108.5 12.5t-92 40t-66.5 77.5t-24 119q0 122 87 186.5t213 64.5q70 0 119.5 -20t59.5 -37q0 -24 -24 -55q-20 -22 -39 -12q-52 25 -108 25q-65 0 -109.5 -39.5
t-44.5 -115.5q0 -71 43 -112t108 -41q20 0 32 4zM333 -43h1q23 0 34 -22t11 -50q0 -44 -22 -84t-58 -64q-40 -27 -114 -25q36 42 49.5 78t13.5 88q0 29 -11 51q54 28 96 28z" />
    <glyph glyph-name="Gdotaccent.sc" unicode="&#xe028;" horiz-adv-x="570" 
d="M373 85v83q0 34 -6 61q102 11 129 11q19 0 19 -22v-177q-20 -18 -73 -41q-51 -12 -115 -12q-59 0 -108.5 12.5t-92 40t-66.5 77.5t-24 119q0 122 87 186.5t213 64.5q70 0 119.5 -20t59.5 -37q0 -24 -24 -55q-20 -22 -39 -12q-52 25 -108 25q-65 0 -109.5 -39.5
t-44.5 -115.5q0 -71 43 -112t108 -41q20 0 32 4zM303 690h1q27 0 46 -20t19 -48q0 -33 -19.5 -52.5t-52.5 -19.5q-25 0 -45 18t-20 50t18 52t53 20z" />
    <glyph glyph-name="H.sc" unicode="&#xe029;" horiz-adv-x="597" 
d="M215 295h169v163q0 8 2.5 12.5t6.5 6t13 2.5q24 3 124 3q-3 -42 -3 -134v-252q0 -43 3 -94q-24 -6 -131 -6q-8 0 -11.5 3t-3.5 12v192q-23 -2 -64 -2h-105v-181q0 -12 -6 -16t-24 -6q-79 -4 -115 -2q2 32 2 139v247q0 77 -2 94q62 6 127 6q11 0 14.5 -8t3.5 -36v-143z
" />
    <glyph glyph-name="Hbar.sc" unicode="&#xe02a;" horiz-adv-x="597" 
d="M72 318h-64q4 30 18 57.5t29 27.5h17q0 59 -2 73q62 6 127 6q11 0 14.5 -8t3.5 -36v-35h169v55q0 8 2.5 12.5t6.5 6t13 2.5q24 3 124 3q-2 -29 -3 -79h65q0 -28 -16 -56t-40 -29h-9v-222q0 -43 3 -94q-24 -6 -131 -6q-8 0 -11.5 3t-3.5 12v144q-23 -2 -64 -2h-105v-133
q0 -12 -6 -16t-24 -6q-79 -4 -115 -2q2 32 2 142v180zM384 318h-169v-71h169v71z" />
    <glyph glyph-name="Hcircumflex.sc" unicode="&#xe02b;" horiz-adv-x="597" 
d="M215 295h169v163q0 8 2.5 12.5t6.5 6t13 2.5q24 3 124 3q-3 -42 -3 -134v-252q0 -43 3 -94q-24 -6 -131 -6q-8 0 -11.5 3t-3.5 12v192q-23 -2 -64 -2h-105v-181q0 -12 -6 -16t-24 -6q-79 -4 -115 -2q2 32 2 139v247q0 77 -2 94q62 6 127 6q11 0 14.5 -8t3.5 -36v-143z
M223 524h-1q-22 0 -68 14q82 103 105 138q5 12 22 15q23 5 51 5q48 -71 113 -152q-40 -20 -69 -20q-17 0 -24 8q-34 42 -56 66q-2 -3 -19.5 -24.5t-27.5 -32.5q-15 -17 -26 -17z" />
    <glyph glyph-name="I.sc" unicode="&#xe02c;" horiz-adv-x="285" 
d="M72 11v372q0 67 -3 93q34 6 130 6q10 0 13 -8.5t3 -35.5v-343q0 -42 3 -93q-18 -6 -126 -6q-12 0 -16 3t-4 12z" />
    <glyph glyph-name="IJ.sc" unicode="&#xe02d;" horiz-adv-x="570" 
d="M72 11v372q0 67 -3 93q34 6 130 6q10 0 13 -8.5t3 -35.5v-343q0 -42 3 -93q-18 -6 -126 -6q-12 0 -16 3t-4 12zM357 109v266q0 64 -2 100q105 6 132 6q13 0 13 -45v-327q0 -114 -51 -167q-46 -46 -100 -46q-29 0 -51 17.5t-23 46.5v5q28 10 42.5 19.5t27 40.5t12.5 84z
" />
    <glyph glyph-name="Iacute.sc" unicode="&#xe02e;" horiz-adv-x="285" 
d="M72 11v372q0 67 -3 93q34 6 130 6q10 0 13 -8.5t3 -35.5v-343q0 -42 3 -93q-18 -6 -126 -6q-12 0 -16 3t-4 12zM235 719q45 -11 76 -55q5 -7 3.5 -10.5t-12.5 -10.5q-60 -39 -159 -115q-24 11 -38 28q-9 9 2 31q27 44 66.5 90.5t61.5 41.5z" />
    <glyph glyph-name="Ibreve.sc" unicode="&#xe02f;" horiz-adv-x="285" 
d="M72 11v372q0 67 -3 93q34 6 130 6q10 0 13 -8.5t3 -35.5v-343q0 -42 3 -93q-18 -6 -126 -6q-12 0 -16 3t-4 12zM67 707h1q13 0 13 -12q6 -42 19 -58.5t34 -16.5q30 0 45.5 19.5t22.5 56.5q0 3 3.5 7t10.5 4q18 0 37.5 -7t18.5 -16q-16 -152 -145 -152q-55 0 -88.5 40
t-32.5 108q0 13 20 20t41 7z" />
    <glyph glyph-name="Icircumflex.sc" unicode="&#xe030;" horiz-adv-x="285" 
d="M72 11v372q0 67 -3 93q34 6 130 6q10 0 13 -8.5t3 -35.5v-343q0 -42 3 -93q-18 -6 -126 -6q-12 0 -16 3t-4 12zM60 532h-1q-23 0 -68 14q82 103 105 138q5 12 22 15q23 5 51 5q48 -71 113 -152q-40 -20 -69 -20q-17 0 -24 8q-34 42 -56 66q-2 -3 -19.5 -24.5t-27.5 -32.5
q-15 -17 -26 -17z" />
    <glyph glyph-name="Idieresis.sc" unicode="&#xe031;" horiz-adv-x="285" 
d="M72 11v372q0 67 -3 93q34 6 130 6q10 0 13 -8.5t3 -35.5v-343q0 -42 3 -93q-18 -6 -126 -6q-12 0 -16 3t-4 12zM39 691h1q26 0 44 -20.5t18 -46.5q0 -33 -19 -52.5t-51 -19.5q-25 0 -44.5 17.5t-19.5 49.5t18.5 52t52.5 20zM256 691h1q26 0 43.5 -20t17.5 -47
q0 -33 -18.5 -52.5t-50.5 -19.5q-25 0 -44.5 17.5t-19.5 49.5t18.5 52t52.5 20z" />
    <glyph glyph-name="Idotaccent.sc" unicode="&#xe032;" horiz-adv-x="285" 
d="M72 11v372q0 67 -3 93q34 6 130 6q10 0 13 -8.5t3 -35.5v-343q0 -42 3 -93q-18 -6 -126 -6q-12 0 -16 3t-4 12zM150 690h1q27 0 46 -20t19 -48q0 -33 -19.5 -52.5t-52.5 -19.5q-25 0 -45 18t-20 50t18 52t53 20z" />
    <glyph glyph-name="Igrave.sc" unicode="&#xe033;" horiz-adv-x="285" 
d="M72 11v372q0 67 -3 93q34 6 130 6q10 0 13 -8.5t3 -35.5v-343q0 -42 3 -93q-18 -6 -126 -6q-12 0 -16 3t-4 12zM66 712q16 4 56 -45t64 -94q8 -16 -4 -30q-16 -19 -38 -25q-56 51 -157 115q-14 8 -2 23q12 17 34.5 33.5t46.5 22.5z" />
    <glyph glyph-name="Imacron.sc" unicode="&#xe034;" horiz-adv-x="285" 
d="M72 11v372q0 67 -3 93q34 6 130 6q10 0 13 -8.5t3 -35.5v-343q0 -42 3 -93q-18 -6 -126 -6q-12 0 -16 3t-4 12zM255 552h-232q-15 0 -15 18t7.5 46t12.5 33h235q15 0 15 -16q0 -21 -7.5 -45.5t-15.5 -35.5z" />
    <glyph glyph-name="Iogonek.sc" unicode="&#xe035;" horiz-adv-x="285" 
d="M215 438v-343q0 -42 3 -93q-74 -55 -74 -134q0 -23 16.5 -39t39.5 -16q31 0 57 12l6 -5q0 -13 -5 -33.5t-10 -26.5q-12 -14 -44 -26t-66 -12q-54 0 -83.5 31.5t-29.5 80.5q0 84 93 161q-9 1 -26 1q-9 1 -12.5 1.5t-5.5 4t-2 9.5v372q0 67 -3 93q34 6 130 6q10 0 13 -8.5
t3 -35.5z" />
    <glyph glyph-name="Itilde.sc" unicode="&#xe036;" horiz-adv-x="285" 
d="M72 11v372q0 67 -3 93q34 6 130 6q10 0 13 -8.5t3 -35.5v-343q0 -42 3 -93q-18 -6 -126 -6q-12 0 -16 3t-4 12zM100 705h1q34 0 65 -40q19 -23 27 -23q16 0 26 51q3 12 12 12t28.5 -4.5t28.5 -11.5q-11 -146 -91 -146q-33 0 -70 43q-21 25 -32 25q-15 -1 -27 -50
q-2 -12 -9 -12q-42 0 -62 9q12 147 103 147z" />
    <glyph glyph-name="J.sc" unicode="&#xe037;" horiz-adv-x="285" 
d="M72 109v266q0 64 -2 100q105 6 132 6q13 0 13 -45v-327q0 -114 -51 -167q-46 -46 -100 -46q-29 0 -51 17.5t-23 46.5v5q28 10 42.5 19.5t27 40.5t12.5 84z" />
    <glyph glyph-name="Jcircumflex.sc" unicode="&#xe038;" horiz-adv-x="285" 
d="M72 109v266q0 64 -2 100q105 6 132 6q13 0 13 -45v-327q0 -114 -51 -167q-46 -46 -100 -46q-29 0 -51 17.5t-23 46.5v5q28 10 42.5 19.5t27 40.5t12.5 84zM67 524h-1q-23 0 -68 14q82 103 105 138q5 12 22 15q22 5 51 5q48 -71 113 -152q-40 -20 -69 -20q-17 0 -24 8
q-34 42 -56 66q-2 -3 -19.5 -24.5t-27.5 -32.5q-15 -17 -26 -17z" />
    <glyph glyph-name="K.sc" unicode="&#xe039;" horiz-adv-x="538" 
d="M72 9v366q0 73 -3 99q45 8 130 8q8 0 10.5 -9t2.5 -37v-194q35 51 97 131t81 109q52 0 90 -7q22 -4 27 -12t-6 -24q-11 -15 -68 -84t-82 -102q43 -73 175 -246l-1 -6q-17 -7 -136 -7q-26 0 -54 41q-94 137 -123 189v-130q0 -36 4 -92q-16 -6 -124 -6q-12 0 -16 2.5
t-4 10.5z" />
    <glyph glyph-name="Kcommaaccent.sc" unicode="&#xe03a;" horiz-adv-x="538" 
d="M72 9v366q0 73 -3 99q45 8 130 8q8 0 10.5 -9t2.5 -37v-194q35 51 97 131t81 109q52 0 90 -7q22 -4 27 -12t-6 -24q-11 -15 -68 -84t-82 -102q43 -73 175 -246l-1 -6q-17 -7 -136 -7q-26 0 -54 41q-94 137 -123 189v-130q0 -36 4 -92q-16 -6 -124 -6q-12 0 -16 2.5
t-4 10.5zM316 -40h1q23 0 34 -22t11 -50q0 -44 -22 -84t-58 -64q-40 -27 -114 -25q36 42 49.5 78.5t13.5 87.5q0 29 -11 51q54 28 96 28z" />
    <glyph glyph-name="L.sc" unicode="&#xe03b;" horiz-adv-x="433" 
d="M72 19v363q0 78 -2 94q54 6 127 6q11 0 14.5 -7.5t3.5 -34.5v-345q20 -5 82 -5q79 0 115 4l2 -2q-11 -58 -50 -90q-16 -6 -102 -6q-132 0 -176 7z" />
    <glyph glyph-name="Lacute.sc" unicode="&#xe03c;" horiz-adv-x="433" 
d="M72 19v363q0 78 -2 94q54 6 127 6q11 0 14.5 -7.5t3.5 -34.5v-345q20 -5 82 -5q79 0 115 4l2 -2q-11 -58 -50 -90q-16 -6 -102 -6q-132 0 -176 7zM222 709q45 -11 76 -55q5 -7 3.5 -10.5t-12.5 -10.5q-60 -39 -159 -115q-24 11 -38 28q-9 9 2 31q27 44 66.5 90.5
t61.5 41.5z" />
    <glyph glyph-name="Lcaron.sc" unicode="&#xe03d;" horiz-adv-x="433" 
d="M72 19v363q0 78 -2 94q54 6 127 6q11 0 14.5 -7.5t3.5 -34.5v-345q20 -5 82 -5q79 0 115 4l2 -2q-11 -58 -50 -90q-16 -6 -102 -6q-132 0 -176 7zM417 491h1q23 0 34 -22t11 -50q0 -44 -22 -84t-58 -64q-40 -27 -114 -25q36 42 49.5 78t13.5 88q0 29 -11 51q54 28 96 28z
" />
    <glyph glyph-name="Lcommaaccent.sc" unicode="&#xe03e;" horiz-adv-x="433" 
d="M72 19v363q0 78 -2 94q54 6 127 6q11 0 14.5 -7.5t3.5 -34.5v-345q20 -5 82 -5q79 0 115 4l2 -2q-11 -58 -50 -90q-16 -6 -102 -6q-132 0 -176 7zM261 -41h1q23 0 34 -22t11 -50q0 -44 -22 -84t-58 -64q-40 -27 -114 -25q36 42 49.5 78t13.5 88q0 29 -11 51q54 28 96 28z
" />
    </font>
</defs>
</svg>
